<svg xmlns="http://www.w3.org/2000/svg" height="186.078" width="191.423"><g stroke="#3e4147" stroke-linecap="round" stroke-linejoin="round" stroke-width="2"><path d="M179.23 184.729c-2.8-5.323-8.176-8.724-11.574-13.887-3.61-5.482-7.581-10.89-10.454-16.795-4.441-9.126-7.46-21-12.323-29.061l4.146-13.989s6.82-7.957 8.923 4.654c1.9 19.89 14.348 48.76 32.111 59M101.053 28.978c-2.8-5.542-13.1-19.893-16.946-22.82C75.638-.287 59.931.944 50.115 1.296c-16.693.6-45.47-.946-45.466 12.189 0 9.466 36.826 1.556 53.976 2.469 8.773.468 11.181 1.374 16.8 7.842 1.659 1.908 9.869 10.66 13.443 12.322" fill="#d8e9f7"/><path d="M101.053 28.978c14.73-4.663 32.4-12.737 42.187 4.426 4.935 8.65 26.6 41.557 11.076 47.5 4.175 13.315 11.037 27.231-1.513 38.05-8.655 7.461-28.834 19.448-39.711 13.4-10.116-5.621-16.513-24.508-20.831-34.568-3.381-7.877-4.181-11.132-3.392-17.52.851-6.89 3.007-6.635.56-14.425-3.989-12.7-10.857-18.765-.56-29.726 13.107-8.986 12.879-8.073 12.184-7.137zm23.661 51.947c-4.68 3.037-15.094 5.22-16.824 10.055-1.555 4.343 5.15 20.918 7.988 23.9 5.438 5.718 12.019 4.77 18.043-1.194 6.352-6.288 4.564-7.446.622-15.818-4.1 1.387-6.613 4.375-6.633 8.647-12.3.287-7.5-15.893 2.268-18-.99-2.013-2.54-4.962-4.343-6.468" fill="#f3783c"/></g><path d="M145.448 124.417c-7.8 1.67-13.8 2.849-16.6 3.175-14.176 1.65-17.129-4.125-20.953-13.047s-9.558-22.3-8.921-33.135 7.011-14.657 5.735-18.48c-.629-1.887-6.382-14.953-12.506-29.082-1 .676-2.111 1.429-3.336 2.27-10.3 10.961-3.43 17.027.56 29.726 2.447 7.79.291 7.535-.56 14.425-.789 6.388.011 9.643 3.392 17.52 4.318 10.06 10.715 28.947 20.831 34.568 8.433 4.685 22.448-1.463 32.358-7.94z" fill="#df642f"/><path d="M101.053 28.978c14.73-4.663 32.4-12.737 42.187 4.426 4.935 8.65 26.6 41.557 11.076 47.5 4.175 13.315 11.037 27.231-1.513 38.05-8.655 7.461-28.834 19.448-39.711 13.4-10.116-5.621-16.513-24.508-20.831-34.568-3.381-7.877-4.181-11.132-3.392-17.52.851-6.89 3.007-6.635.56-14.425-3.989-12.7-10.857-18.765-.56-29.726 13.107-8.986 12.879-8.073 12.184-7.137zm23.661 51.947c-4.68 3.037-15.094 5.22-16.824 10.055-1.555 4.343 5.15 20.918 7.988 23.9 5.438 5.718 12.019 4.77 18.043-1.194 6.352-6.288 4.564-7.446.622-15.818-4.1 1.387-6.613 4.375-6.633 8.647-12.3.287-7.5-15.893 2.268-18-.99-2.013-2.54-4.962-4.343-6.468" fill="none" stroke="#3e4147" stroke-linecap="round" stroke-linejoin="round" stroke-width="2"/><path d="M135.955 46.368c5.475 5.953 15.121 27.212 18.36 34.535 15.521-5.942-6.142-38.849-11.076-47.5-9.791-17.163-27.456-9.089-42.187-4.426.277-.373.477-.74-.208-.482 1.805 18.765 25.931 7.892 35.111 17.873z" fill="#85c3e9" stroke="#3e4147" stroke-linecap="round" stroke-linejoin="round" stroke-width="2"/><path d="M6.722 25.289C6.661 39.478-5.343 54.405 5.603 57.435c14.411 3.988 1.119-32.146 1.119-32.146z" fill="#fdbe2a" stroke="#3e4147" stroke-linecap="round" stroke-linejoin="round" stroke-width="2"/></svg>
