<?xml version="1.0" encoding="utf-8"?>
<!-- Generator: Adobe Illustrator 23.0.6, SVG Export Plug-In . SVG Version: 6.00 Build 0)  -->
<svg version="1.1" id="Слой_1" xmlns="http://www.w3.org/2000/svg" xmlns:xlink="http://www.w3.org/1999/xlink" x="0px" y="0px"
	 viewBox="0 0 1000 1000" style="enable-background:new 0 0 1000 1000;" xml:space="preserve">
<style type="text/css">
	.st0{fill:none;}
	.st1{fill:#60AAE2;}
	.st2{opacity:0.7;fill:#BF381D;}
	.st3{opacity:0.4;fill:#BF381D;}
	.st4{fill:#BF381D;}
	.st5{clip-path:url(#SVGID_2_);}
	.st6{clip-path:url(#SVGID_4_);}
	.st7{clip-path:url(#SVGID_6_);}
	.st8{clip-path:url(#SVGID_8_);}
	.st9{clip-path:url(#SVGID_10_);}
	.st10{clip-path:url(#SVGID_12_);}
	.st11{clip-path:url(#SVGID_14_);}
	.st12{display:none;stroke:#FFFFFF;stroke-width:4;stroke-miterlimit:10;}
	.st13{font-family:'MyriadPro-Regular';}
	.st14{font-size:20px;}
</style>
<rect y="0" class="st0" width="1000" height="1000"/>
<g>
	<path class="st1" d="M50,958.4c0.6,0,1-0.2,1.3-0.5c0.3-0.3,0.4-0.8,0.4-1.3v-2.9c0-0.6,0.1-1.1,0.2-1.5c0.1-0.4,0.4-0.8,0.7-1.1
		c0.3-0.3,0.8-0.5,1.3-0.7c0.5-0.2,1.2-0.2,2-0.2h0.4v2.3h-0.5c-0.6,0-1,0.1-1.2,0.4c-0.2,0.3-0.3,0.7-0.3,1.2v2.6
		c0,0.7-0.1,1.2-0.3,1.7c-0.2,0.5-0.5,0.9-1.1,1.2c0.5,0.3,0.9,0.7,1.1,1.2c0.2,0.5,0.3,1,0.3,1.7v2.6c0,0.6,0.1,1,0.3,1.2
		c0.2,0.3,0.6,0.4,1.2,0.4h0.5v2.3H56c-0.8,0-1.5-0.1-2-0.2c-0.6-0.2-1-0.4-1.3-0.7c-0.3-0.3-0.6-0.7-0.7-1.1
		c-0.1-0.4-0.2-0.9-0.2-1.5v-2.9c0-0.5-0.1-1-0.4-1.3c-0.3-0.3-0.7-0.5-1.3-0.5V958.4z"/>
	<path class="st1" d="M70.9,951.9h3L73.9,969h-3l0.1-9.3h-5.1v5.7h-3v-13.5h3v5.2h5.1V951.9L70.9,951.9z"/>
	<path class="st1" d="M86.5,960.2c0,0.8-0.1,1.5-0.4,2.2c-0.2,0.7-0.6,1.2-1,1.7c-0.4,0.5-1,0.8-1.6,1.1c-0.6,0.3-1.3,0.4-2.1,0.4
		c-0.8,0-1.4-0.1-2-0.4c-0.6-0.3-1.2-0.6-1.6-1.1c-0.4-0.5-0.8-1-1-1.7c-0.2-0.7-0.4-1.4-0.4-2.2c0-0.8,0.1-1.5,0.4-2.2
		c0.2-0.7,0.6-1.2,1-1.7c0.5-0.5,1-0.8,1.6-1.1s1.3-0.4,2-0.4c0.7,0,1.4,0.1,2,0.4c0.6,0.3,1.1,0.6,1.6,1.1c0.4,0.5,0.8,1,1,1.7
		C86.4,958.7,86.5,959.4,86.5,960.2z M83.5,960.2c0-0.9-0.2-1.6-0.5-2.1c-0.4-0.5-0.9-0.8-1.5-0.8c-0.7,0-1.2,0.3-1.5,0.8
		c-0.4,0.5-0.5,1.2-0.5,2.1c0,0.9,0.2,1.6,0.5,2.1c0.4,0.5,0.9,0.8,1.5,0.8c0.7,0,1.2-0.3,1.5-0.8C83.3,961.8,83.5,961.1,83.5,960.2
		z"/>
	<path class="st1" d="M93.1,965.6c-0.4,0-0.8,0-1.2,0c-0.4,0-0.8-0.1-1.2-0.1c-0.4,0-0.8-0.1-1.1-0.2c-0.4-0.1-0.7-0.1-0.9-0.2v-9.8
		c0.2,0,0.6-0.1,0.9-0.1c0.4-0.1,0.7-0.1,1.1-0.1c0.4,0,0.8-0.1,1.2-0.1c0.4,0,0.8,0,1.2,0c0.9,0,1.6,0.1,2.1,0.2
		c0.6,0.2,1,0.4,1.4,0.7c0.4,0.3,0.6,0.6,0.8,0.9c0.2,0.3,0.2,0.7,0.2,1c0,0.5-0.1,0.9-0.3,1.2c-0.2,0.4-0.5,0.7-0.8,0.8
		c0.2,0.1,0.4,0.2,0.5,0.3c0.2,0.1,0.4,0.3,0.5,0.5c0.2,0.2,0.3,0.4,0.4,0.7c0.1,0.3,0.1,0.6,0.1,1c0,0.4-0.1,0.8-0.2,1.2
		c-0.2,0.4-0.4,0.7-0.8,1c-0.4,0.3-0.9,0.5-1.5,0.7C94.9,965.5,94.1,965.6,93.1,965.6z M93.2,959.2c0.5,0,0.9-0.1,1.2-0.2
		c0.3-0.1,0.4-0.4,0.4-0.8c0-0.4-0.2-0.7-0.5-0.8c-0.3-0.1-0.8-0.2-1.3-0.2c-0.2,0-0.4,0-0.7,0c-0.3,0-0.5,0-0.7,0.1v1.9H93.2
		L93.2,959.2z M91.6,963.2c0.2,0,0.4,0,0.7,0.1c0.3,0,0.6,0,0.9,0c0.6,0,1.1-0.1,1.5-0.2c0.4-0.2,0.5-0.5,0.5-0.9
		c0-0.4-0.2-0.7-0.5-0.9c-0.3-0.2-0.8-0.2-1.5-0.2h-1.7V963.2L91.6,963.2z"/>
	<path class="st1" d="M104,954.9c0.9,0,1.6,0.1,2.1,0.3c0.6,0.2,1,0.5,1.4,0.8c0.4,0.4,0.6,0.8,0.7,1.3c0.1,0.5,0.2,1.1,0.2,1.7v6
		c-0.4,0.1-1,0.2-1.7,0.3c-0.7,0.1-1.6,0.2-2.7,0.2c-0.7,0-1.3-0.1-1.8-0.2c-0.5-0.1-1-0.3-1.4-0.6c-0.4-0.3-0.7-0.6-0.9-1
		c-0.2-0.4-0.3-1-0.3-1.6c0-0.6,0.1-1.1,0.4-1.5c0.2-0.4,0.6-0.8,1-1c0.4-0.2,0.9-0.4,1.4-0.5c0.5-0.1,1-0.2,1.6-0.2
		c0.4,0,0.7,0,1,0c0.3,0,0.5,0.1,0.7,0.1v-0.3c0-0.5-0.1-0.9-0.5-1.2c-0.3-0.3-0.8-0.4-1.6-0.4c-0.5,0-1,0-1.5,0.1
		c-0.5,0.1-0.9,0.2-1.2,0.3l-0.4-2.3c0.2,0,0.4-0.1,0.6-0.2c0.3-0.1,0.5-0.1,0.8-0.1c0.3-0.1,0.6-0.1,1-0.1
		C103.4,954.9,103.7,954.9,104,954.9z M104.3,963.4c0.3,0,0.6,0,0.8,0c0.3,0,0.5,0,0.6-0.1v-2.2c-0.1,0-0.3,0-0.5-0.1
		c-0.2,0-0.5,0-0.7,0c-0.3,0-0.5,0-0.8,0c-0.2,0-0.5,0.1-0.6,0.2s-0.3,0.2-0.4,0.4c-0.1,0.2-0.1,0.4-0.1,0.6c0,0.5,0.1,0.8,0.4,0.9
		C103.3,963.3,103.7,963.4,104.3,963.4z"/>
	<path class="st1" d="M115.4,961.8c-0.4,0.6-0.8,1.2-1.1,1.8c-0.3,0.6-0.6,1.2-0.9,1.8h-3c0.4-0.8,0.8-1.6,1.2-2.3
		c0.4-0.7,0.8-1.3,1.1-1.8c-0.6-0.3-1-0.7-1.3-1.1c-0.3-0.5-0.5-1-0.5-1.7c0-1.1,0.4-2,1.2-2.6c0.8-0.6,2-0.9,3.4-0.9
		c0.3,0,0.7,0,1.1,0c0.4,0,0.8,0.1,1.2,0.1c0.4,0.1,0.8,0.1,1.1,0.2c0.4,0.1,0.7,0.1,0.9,0.2v10h-2.9v-3.6H115.4z M116.9,957.2
		c-0.1,0-0.3,0-0.6,0c-0.3,0-0.5,0-0.7,0c-0.7,0-1.2,0.1-1.5,0.4c-0.3,0.2-0.4,0.5-0.4,0.9c0,0.2,0,0.4,0.1,0.6
		c0.1,0.2,0.2,0.3,0.4,0.4c0.2,0.1,0.4,0.2,0.6,0.2c0.2,0,0.4,0.1,0.6,0.1h1.4V957.2L116.9,957.2z"/>
	<path class="st1" d="M130,956.9c0,0.6-0.2,1-0.5,1.3c-0.4,0.3-0.8,0.5-1.3,0.5s-0.9-0.2-1.3-0.5c-0.4-0.3-0.5-0.8-0.5-1.3
		c0-0.6,0.2-1,0.5-1.3c0.4-0.3,0.8-0.5,1.3-0.5s0.9,0.2,1.3,0.5C129.9,955.9,130,956.3,130,956.9z M130,963.8c0,0.6-0.2,1-0.5,1.3
		c-0.4,0.3-0.8,0.5-1.3,0.5s-0.9-0.2-1.3-0.5c-0.4-0.3-0.5-0.8-0.5-1.3c0-0.6,0.2-1,0.5-1.3c0.4-0.3,0.8-0.5,1.3-0.5
		s0.9,0.1,1.3,0.5C129.9,962.8,130,963.3,130,963.8z"/>
	<path class="st1" d="M135.7,962.8h2c0.5-0.8,0.9-1.7,1.1-2.5c0.3-0.8,0.5-1.6,0.6-2.5c0.1-0.8,0.2-1.7,0.2-2.6c0-0.9,0-1.8,0-2.8
		v-0.5h8.9v10.9h2.3v6.2H148v-3.6h-9.4v3.6h-2.9V962.8z M142.5,954.5c0,0.7-0.1,1.4-0.1,2.2c-0.1,0.7-0.2,1.5-0.3,2.2
		c-0.1,0.7-0.3,1.4-0.5,2.1c-0.2,0.7-0.5,1.3-0.8,1.9h4.9v-8.4H142.5z"/>
	<path class="st1" d="M156.4,954.9c0.9,0,1.6,0.1,2.1,0.3c0.6,0.2,1,0.5,1.4,0.8c0.4,0.4,0.6,0.8,0.7,1.3c0.1,0.5,0.2,1.1,0.2,1.7v6
		c-0.4,0.1-1,0.2-1.7,0.3c-0.7,0.1-1.6,0.2-2.7,0.2c-0.7,0-1.3-0.1-1.8-0.2c-0.5-0.1-1-0.3-1.4-0.6c-0.4-0.3-0.7-0.6-0.9-1
		c-0.2-0.4-0.3-1-0.3-1.6c0-0.6,0.1-1.1,0.4-1.5c0.2-0.4,0.6-0.8,1-1c0.4-0.2,0.9-0.4,1.4-0.5c0.5-0.1,1.1-0.2,1.6-0.2
		c0.4,0,0.7,0,1,0c0.3,0,0.5,0.1,0.7,0.1v-0.3c0-0.5-0.1-0.9-0.5-1.2c-0.3-0.3-0.8-0.4-1.6-0.4c-0.5,0-1,0-1.5,0.1
		c-0.5,0.1-0.9,0.2-1.2,0.3l-0.4-2.3c0.2,0,0.4-0.1,0.6-0.2c0.3-0.1,0.5-0.1,0.8-0.1c0.3-0.1,0.6-0.1,1-0.1
		C155.7,954.9,156,954.9,156.4,954.9z M156.6,963.4c0.3,0,0.6,0,0.8,0c0.3,0,0.5,0,0.6-0.1v-2.2c-0.1,0-0.3,0-0.5-0.1
		c-0.2,0-0.5,0-0.6,0c-0.3,0-0.5,0-0.8,0c-0.2,0-0.4,0.1-0.6,0.2c-0.2,0.1-0.3,0.2-0.4,0.4c-0.1,0.2-0.1,0.4-0.1,0.6
		c0,0.5,0.1,0.8,0.5,0.9C155.6,963.3,156.1,963.4,156.6,963.4z"/>
	<path class="st1" d="M171.9,957.5h-3.3v7.9h-2.9v-7.9h-3.3v-2.4h9.5V957.5L171.9,957.5z"/>
	<path class="st1" d="M177.4,954.9c0.9,0,1.6,0.1,2.1,0.3c0.6,0.2,1,0.5,1.4,0.8c0.4,0.4,0.6,0.8,0.7,1.3c0.1,0.5,0.2,1.1,0.2,1.7v6
		c-0.4,0.1-1,0.2-1.7,0.3c-0.7,0.1-1.6,0.2-2.7,0.2c-0.7,0-1.3-0.1-1.8-0.2c-0.5-0.1-1-0.3-1.4-0.6c-0.4-0.3-0.7-0.6-0.9-1
		c-0.2-0.4-0.3-1-0.3-1.6c0-0.6,0.1-1.1,0.4-1.5c0.2-0.4,0.6-0.8,1-1c0.4-0.2,0.9-0.4,1.4-0.5c0.5-0.1,1.1-0.2,1.6-0.2
		c0.4,0,0.7,0,1,0c0.3,0,0.5,0.1,0.7,0.1v-0.3c0-0.5-0.1-0.9-0.5-1.2c-0.3-0.3-0.8-0.4-1.6-0.4c-0.5,0-1,0-1.5,0.1
		c-0.5,0.1-0.9,0.2-1.2,0.3l-0.4-2.3c0.2,0,0.4-0.1,0.6-0.2c0.3-0.1,0.5-0.1,0.8-0.1c0.3-0.1,0.6-0.1,1-0.1
		C176.7,954.9,177,954.9,177.4,954.9z M177.6,963.4c0.3,0,0.6,0,0.8,0c0.3,0,0.5,0,0.6-0.1v-2.2c-0.1,0-0.3,0-0.5-0.1
		c-0.2,0-0.5,0-0.6,0c-0.3,0-0.5,0-0.8,0c-0.2,0-0.4,0.1-0.6,0.2c-0.2,0.1-0.3,0.2-0.4,0.4c-0.1,0.2-0.1,0.4-0.1,0.6
		c0,0.5,0.1,0.8,0.5,0.9C176.6,963.3,177.1,963.4,177.6,963.4z"/>
	<path class="st1" d="M183.9,958.3h5.6v2.6h-5.6V958.3z"/>
	<path class="st1" d="M201.2,960.2c0,0.8-0.1,1.5-0.4,2.2c-0.2,0.7-0.6,1.2-1,1.7c-0.4,0.5-1,0.8-1.6,1.1c-0.6,0.3-1.3,0.4-2.1,0.4
		c-0.8,0-1.4-0.1-2.1-0.4c-0.6-0.3-1.1-0.6-1.6-1.1c-0.4-0.5-0.8-1-1-1.7c-0.2-0.7-0.4-1.4-0.4-2.2c0-0.8,0.1-1.5,0.4-2.2
		c0.3-0.7,0.6-1.2,1.1-1.7c0.4-0.5,1-0.8,1.6-1.1c0.6-0.3,1.3-0.4,2-0.4c0.7,0,1.4,0.1,2,0.4s1.1,0.6,1.6,1.1c0.5,0.5,0.8,1,1,1.7
		C201.1,958.7,201.2,959.4,201.2,960.2z M198.2,960.2c0-0.9-0.2-1.6-0.5-2.1c-0.4-0.5-0.9-0.8-1.5-0.8c-0.7,0-1.2,0.3-1.5,0.8
		c-0.4,0.5-0.6,1.2-0.6,2.1c0,0.9,0.2,1.6,0.6,2.1c0.4,0.5,0.9,0.8,1.5,0.8c0.7,0,1.2-0.3,1.5-0.8
		C198.1,961.8,198.2,961.1,198.2,960.2z"/>
	<path class="st1" d="M211.9,957.5h-3.3v7.9h-2.9v-7.9h-3.3v-2.4h9.5V957.5z"/>
	<path class="st1" d="M212.1,963h1.3c0.4-0.4,0.6-1,0.8-1.6c0.2-0.7,0.4-1.3,0.4-2.1c0.1-0.7,0.1-1.5,0.1-2.2c0-0.7,0-1.4,0-1.9h8
		v7.9h1.7v5.3h-2.5v-2.9h-7.5v2.9h-2.5V963z M219.9,963v-5.5h-2.4c0,0.4,0,0.9-0.1,1.4c0,0.5-0.1,1-0.2,1.4
		c-0.1,0.5-0.2,0.9-0.3,1.4c-0.2,0.5-0.3,0.9-0.6,1.2H219.9L219.9,963z"/>
	<path class="st1" d="M225.8,960.3c0-0.9,0.1-1.7,0.4-2.4c0.3-0.7,0.6-1.2,1.1-1.7c0.5-0.5,1-0.8,1.6-1c0.6-0.2,1.2-0.3,1.8-0.3
		c1.5,0,2.6,0.4,3.5,1.3c0.8,0.9,1.3,2.2,1.3,3.9c0,0.2,0,0.3,0,0.5c0,0.2,0,0.4,0,0.5h-6.6c0.1,0.6,0.3,1.1,0.8,1.4
		c0.5,0.3,1.1,0.5,2,0.5c0.5,0,1.1-0.1,1.6-0.2c0.5-0.1,0.9-0.2,1.3-0.4l0.4,2.4c-0.2,0.1-0.4,0.2-0.6,0.2c-0.3,0.1-0.5,0.2-0.9,0.2
		c-0.3,0.1-0.7,0.1-1,0.1c-0.4,0-0.7,0.1-1.1,0.1c-0.9,0-1.7-0.1-2.4-0.4c-0.7-0.3-1.2-0.6-1.7-1.1c-0.5-0.5-0.8-1-1-1.7
		C225.9,961.8,225.8,961.1,225.8,960.3z M232.6,959.2c0-0.2-0.1-0.5-0.1-0.7c-0.1-0.2-0.2-0.4-0.3-0.6c-0.1-0.2-0.3-0.3-0.6-0.5
		c-0.2-0.1-0.5-0.2-0.9-0.2c-0.3,0-0.6,0-0.8,0.2c-0.2,0.1-0.4,0.3-0.6,0.4c-0.1,0.2-0.3,0.4-0.4,0.6c-0.1,0.2-0.1,0.5-0.2,0.7
		L232.6,959.2L232.6,959.2z"/>
	<path class="st1" d="M242.3,957.5c0,0.4,0,0.8-0.1,1.2c0,0.4,0,0.9-0.1,1.3c-0.1,0.4-0.1,0.8-0.2,1.2c-0.1,0.4-0.2,0.8-0.3,1.1
		c-0.2,0.4-0.3,0.8-0.6,1.2c-0.2,0.4-0.5,0.7-0.9,1c-0.4,0.3-0.8,0.5-1.3,0.7c-0.5,0.2-1.1,0.3-1.9,0.4l-0.4-2.4
		c0.7-0.1,1.2-0.3,1.5-0.6c0.4-0.2,0.6-0.5,0.8-0.9c0.1-0.3,0.3-0.7,0.3-1.1c0.1-0.4,0.1-0.9,0.2-1.4c0-0.5,0.1-1,0.1-1.5
		c0-0.5,0-1,0-1.4v-1.2h7.7v10.2h-2.9v-7.9H242.3z"/>
	<path class="st1" d="M259.8,960.7c-0.6,0-1,0.2-1.3,0.5c-0.3,0.3-0.4,0.8-0.4,1.3v2.9c0,0.6-0.1,1.1-0.2,1.5
		c-0.1,0.4-0.4,0.8-0.7,1.1c-0.3,0.3-0.8,0.5-1.3,0.7s-1.2,0.2-2.1,0.2h-0.4v-2.3h0.5c0.6,0,1-0.1,1.2-0.4c0.2-0.3,0.3-0.7,0.3-1.2
		v-2.6c0-0.7,0.1-1.2,0.3-1.7c0.2-0.5,0.6-0.9,1.1-1.2c-0.5-0.3-0.9-0.7-1.1-1.2c-0.2-0.5-0.3-1-0.3-1.7V954c0-0.5-0.1-1-0.3-1.2
		s-0.6-0.4-1.2-0.4h-0.5v-2.3h0.4c0.8,0,1.5,0.1,2.1,0.2c0.6,0.2,1,0.4,1.3,0.7s0.6,0.7,0.7,1.1c0.1,0.4,0.2,0.9,0.2,1.5v2.9
		c0,0.6,0.1,1,0.4,1.3c0.3,0.3,0.7,0.5,1.3,0.5V960.7z"/>
</g>
<g>
	<path d="M55.5,68.1l4.1,7h-3.6l-4.8-6.9v-0.3l4.8-6.9h3.6L55.5,68.1z M62.7,68.1l4.1,7h-3.6l-4.8-6.9v-0.3l4.8-6.9h3.6L62.7,68.1z"
		/>
	<path d="M90.6,56.3h-7.7v20.8h-6.2V56.3h-7.5v-4.8h21.4V56.3z"/>
	<path d="M100.5,77.5c-2.9,0-5.3-0.9-7.1-2.6s-2.7-4-2.7-6.8v-0.5c0-1.9,0.4-3.7,1.1-5.2s1.8-2.6,3.2-3.5s3-1.2,4.9-1.2
		c2.7,0,4.8,0.8,6.3,2.5s2.3,4,2.3,6.9v2.3H96.8c0.2,1.1,0.7,1.9,1.4,2.5s1.6,0.9,2.8,0.9c1.9,0,3.3-0.7,4.4-2l2.7,3.2
		c-0.7,1-1.8,1.8-3.1,2.4S102.1,77.5,100.5,77.5z M99.9,62.3c-1.7,0-2.8,1.1-3.1,3.4h6v-0.5c0-0.9-0.2-1.7-0.7-2.2
		S100.8,62.3,99.9,62.3z"/>
	<path d="M128.6,67.8c0,3-0.7,5.3-2,7.1s-3.1,2.6-5.4,2.6c-1.7,0-3.2-0.6-4.3-1.9v8.9H111V58.1h5.5l0.2,1.8c1.1-1.4,2.6-2.1,4.5-2.1
		c2.3,0,4.2,0.9,5.5,2.6s2,4.1,2,7.1V67.8z M122.7,67.4c0-3.4-1-5.1-3-5.1c-1.4,0-2.3,0.5-2.8,1.5v7.5c0.5,1.1,1.5,1.6,2.8,1.6
		c1.9,0,2.9-1.6,2.9-4.9V67.4z"/>
	<path d="M148.8,67.8c0,3-0.7,5.3-2,7.1s-3.1,2.6-5.4,2.6c-1.7,0-3.2-0.6-4.3-1.9v8.9h-5.9V58.1h5.5l0.2,1.8
		c1.1-1.4,2.6-2.1,4.5-2.1c2.3,0,4.2,0.9,5.5,2.6s2,4.1,2,7.1V67.8z M142.9,67.4c0-3.4-1-5.1-3-5.1c-1.4,0-2.3,0.5-2.8,1.5v7.5
		c0.5,1.1,1.5,1.6,2.8,1.6c1.9,0,2.9-1.6,2.9-4.9V67.4z"/>
	<path d="M150.7,67.5c0-1.9,0.4-3.6,1.1-5.1s1.8-2.6,3.2-3.4s3-1.2,4.9-1.2c2.8,0,5.1,0.9,6.7,2.6s2.5,4.2,2.5,7.2v0.2
		c0,3-0.8,5.3-2.5,7.1s-3.9,2.6-6.7,2.6c-2.7,0-4.9-0.8-6.5-2.4s-2.5-3.8-2.7-6.6L150.7,67.5z M156.6,67.8c0,1.8,0.3,3,0.8,3.9
		s1.4,1.2,2.4,1.2c2.1,0,3.2-1.6,3.2-4.9v-0.6c0-3.4-1.1-5.1-3.3-5.1c-2,0-3.1,1.5-3.2,4.4L156.6,67.8z"/>
	<path d="M189.3,67.8c0,3-0.7,5.3-2,7.1s-3.1,2.6-5.4,2.6c-1.7,0-3.2-0.6-4.3-1.9v8.9h-5.9V58.1h5.5l0.2,1.8
		c1.1-1.4,2.6-2.1,4.5-2.1c2.3,0,4.2,0.9,5.5,2.6s2,4.1,2,7.1V67.8z M183.4,67.4c0-3.4-1-5.1-3-5.1c-1.4,0-2.3,0.5-2.8,1.5v7.5
		c0.5,1.1,1.5,1.6,2.8,1.6c1.9,0,2.9-1.6,2.9-4.9V67.4z"/>
	<path d="M203,58.1h5.9v19H203V66.1l-5.2,11.1h-6v-19h6v11L203,58.1z"/>
	<path d="M220.2,72.9c0.8,0,1.5-0.2,1.9-0.7s0.7-1.1,0.7-1.9h5.6c0,2.1-0.7,3.8-2.2,5.1s-3.4,2-5.8,2c-2.8,0-4.9-0.9-6.5-2.6
		s-2.4-4.1-2.4-7.2v-0.2c0-1.9,0.4-3.6,1.1-5.1s1.7-2.6,3.1-3.4s2.9-1.2,4.7-1.2c2.5,0,4.4,0.7,5.9,2.1s2.2,3.2,2.2,5.6h-5.6
		c0-1-0.2-1.7-0.7-2.3s-1.1-0.8-1.9-0.8c-1.5,0-2.4,1-2.7,2.9c-0.1,0.6-0.1,1.5-0.1,2.6c0,1.9,0.2,3.2,0.7,4S219.2,72.9,220.2,72.9z
		"/>
	<path d="M247.5,62.7h-6v14.5h-6V62.7h-5.9v-4.5h17.9V62.7z"/>
	<path d="M260.7,58.1h5.9v19h-5.9V66.1l-5.2,11.1h-6v-19h6v11L260.7,58.1z"/>
	<path d="M286.8,77.1h-6v-5.7c-0.7,0.1-1.3,0.2-1.8,0.2c-3.1,0-5.5-0.6-7.1-1.8s-2.4-3-2.4-5.5v-6.2h5.9v6.3c0,1,0.3,1.7,0.7,2.1
		s1.4,0.6,2.8,0.6c0.6,0,1.2-0.1,1.8-0.2v-8.8h6V77.1z"/>
	<path d="M299.1,77.5c-2.9,0-5.3-0.9-7.1-2.6s-2.7-4-2.7-6.8v-0.5c0-1.9,0.4-3.7,1.1-5.2s1.8-2.6,3.2-3.5s3-1.2,4.9-1.2
		c2.7,0,4.8,0.8,6.3,2.5s2.3,4,2.3,6.9v2.3h-11.8c0.2,1.1,0.7,1.9,1.4,2.5s1.6,0.9,2.8,0.9c1.9,0,3.3-0.7,4.4-2l2.7,3.2
		c-0.7,1-1.8,1.8-3.1,2.4S300.7,77.5,299.1,77.5z M298.5,62.3c-1.7,0-2.8,1.1-3.1,3.4h6v-0.5c0-0.9-0.2-1.7-0.7-2.2
		S299.4,62.3,298.5,62.3z"/>
	<path d="M317.6,72.9c0.8,0,1.5-0.2,1.9-0.7s0.7-1.1,0.7-1.9h5.6c0,2.1-0.7,3.8-2.2,5.1s-3.4,2-5.8,2c-2.8,0-4.9-0.9-6.5-2.6
		s-2.4-4.1-2.4-7.2v-0.2c0-1.9,0.4-3.6,1.1-5.1s1.7-2.6,3.1-3.4s2.9-1.2,4.7-1.2c2.5,0,4.4,0.7,5.9,2.1s2.2,3.2,2.2,5.6h-5.6
		c0-1-0.2-1.7-0.7-2.3s-1.1-0.8-1.9-0.8c-1.5,0-2.4,1-2.7,2.9c-0.1,0.6-0.1,1.5-0.1,2.6c0,1.9,0.2,3.2,0.7,4S316.6,72.9,317.6,72.9z
		"/>
	<path d="M336.3,70.5h-1.8v6.6h-5.9v-19h5.9V65h1.7l3-6.8h7.6l-5.6,8.8h0l6.1,10.2h-8L336.3,70.5z"/>
	<path d="M359.9,58.1h5.9v19h-5.9V66.1l-5.2,11.1h-6v-19h6v11L359.9,58.1z"/>
	<path d="M378.3,77.5c-2.9,0-5.3-0.9-7.1-2.6s-2.7-4-2.7-6.8v-0.5c0-1.9,0.4-3.7,1.1-5.2s1.8-2.6,3.2-3.5s3-1.2,4.9-1.2
		c2.7,0,4.8,0.8,6.3,2.5s2.3,4,2.3,6.9v2.3h-11.8c0.2,1.1,0.7,1.9,1.4,2.5s1.6,0.9,2.8,0.9c1.9,0,3.3-0.7,4.4-2l2.7,3.2
		c-0.7,1-1.8,1.8-3.1,2.4S379.8,77.5,378.3,77.5z M377.6,62.3c-1.7,0-2.8,1.1-3.1,3.4h6v-0.5c0-0.9-0.2-1.7-0.7-2.2
		S378.5,62.3,377.6,62.3z"/>
	<path d="M392,61.1l4.8,6.9v0.3l-4.8,6.9h-3.6l4.1-7l-4.1-7H392z M399.2,61.1l4.8,6.9v0.3l-4.8,6.9h-3.6l4.1-7l-4.1-7H399.2z"/>
	<path d="M433.2,77.1h-6V62.7H422v14.4H416v-19h17.1V77.1z"/>
	<path d="M454,67.8c0,3-0.7,5.3-2,7.1s-3.1,2.6-5.4,2.6c-1.7,0-3.2-0.6-4.3-1.9v8.9h-5.9V58.1h5.5l0.2,1.8c1.1-1.4,2.6-2.1,4.5-2.1
		c2.3,0,4.2,0.9,5.5,2.6s2,4.1,2,7.1V67.8z M448.1,67.4c0-3.4-1-5.1-3-5.1c-1.4,0-2.3,0.5-2.8,1.5v7.5c0.5,1.1,1.5,1.6,2.8,1.6
		c1.9,0,2.9-1.6,2.9-4.9V67.4z"/>
	<path d="M465.8,77.5c-2.9,0-5.3-0.9-7.1-2.6s-2.7-4-2.7-6.8v-0.5c0-1.9,0.4-3.7,1.1-5.2s1.8-2.6,3.2-3.5s3-1.2,4.9-1.2
		c2.7,0,4.8,0.8,6.3,2.5s2.3,4,2.3,6.9v2.3H462c0.2,1.1,0.7,1.9,1.4,2.5s1.6,0.9,2.8,0.9c1.9,0,3.3-0.7,4.4-2l2.7,3.2
		c-0.7,1-1.8,1.8-3.1,2.4S467.4,77.5,465.8,77.5z M465.1,62.3c-1.7,0-2.8,1.1-3.1,3.4h6v-0.5c0-0.9-0.2-1.7-0.7-2.2
		S466.1,62.3,465.1,62.3z"/>
	<path d="M484.2,72.9c0.8,0,1.5-0.2,1.9-0.7s0.7-1.1,0.7-1.9h5.6c0,2.1-0.7,3.8-2.2,5.1s-3.4,2-5.8,2c-2.8,0-4.9-0.9-6.5-2.6
		s-2.4-4.1-2.4-7.2v-0.2c0-1.9,0.4-3.6,1.1-5.1s1.7-2.6,3.1-3.4s2.9-1.2,4.7-1.2c2.5,0,4.4,0.7,5.9,2.1s2.2,3.2,2.2,5.6h-5.6
		c0-1-0.2-1.7-0.7-2.3s-1.1-0.8-1.9-0.8c-1.5,0-2.4,1-2.7,2.9c-0.1,0.6-0.1,1.5-0.1,2.6c0,1.9,0.2,3.2,0.7,4S483.2,72.9,484.2,72.9z
		"/>
	<path d="M511.5,62.7h-6v14.5h-6V62.7h-5.9v-4.5h17.9V62.7z"/>
	<path d="M521.6,68.9l3.2-10.7h6.3l-7.8,22.2l-0.3,0.8c-1.1,2.5-3,3.7-5.8,3.7c-0.8,0-1.6-0.1-2.4-0.4v-4.2h0.8
		c0.8,0,1.5-0.1,1.9-0.4c0.4-0.2,0.8-0.7,1-1.3l0.5-1.3l-6.6-19.2h6.3L521.6,68.9z"/>
	<path d="M549.6,77.1h-6V62.7h-5.2v14.4h-5.9v-19h17.1V77.1z"/>
	<path d="M569.8,58.1v19h-5.9V62.7h-3.6l-0.3,5.8c-0.2,2.9-0.9,5-2,6.5s-2.7,2.2-4.8,2.2h-1.9l-0.1-4.5l0.6-0.1
		c0.8-0.1,1.4-0.6,1.7-1.6s0.6-2.4,0.7-4.3l0.4-8.5H569.8z"/>
	<path d="M582.2,77.5c-2.9,0-5.3-0.9-7.1-2.6s-2.7-4-2.7-6.8v-0.5c0-1.9,0.4-3.7,1.1-5.2s1.8-2.6,3.2-3.5s3-1.2,4.9-1.2
		c2.7,0,4.8,0.8,6.3,2.5s2.3,4,2.3,6.9v2.3h-11.8c0.2,1.1,0.7,1.9,1.4,2.5s1.6,0.9,2.8,0.9c1.9,0,3.3-0.7,4.4-2l2.7,3.2
		c-0.7,1-1.8,1.8-3.1,2.4S583.8,77.5,582.2,77.5z M581.5,62.3c-1.7,0-2.8,1.1-3.1,3.4h6v-0.5c0-0.9-0.2-1.7-0.7-2.2
		S582.5,62.3,581.5,62.3z"/>
	<path d="M609.5,77.1h-5.9v-7h-5.2v7h-5.9v-19h5.9v7.4h5.2v-7.4h5.9V77.1z"/>
	<path d="M623.8,58.1h5.9v19h-5.9V66.1l-5.2,11.1h-6v-19h6v11L623.8,58.1z"/>
	<path d="M649.5,58.1v19h-5.9v-6.3h-2.3l-3.4,6.3H632l3.9-7.3c-1.1-0.5-2-1.3-2.6-2.1s-0.9-1.9-0.9-3c0-1.9,0.8-3.5,2.3-4.7
		s3.6-1.8,6-1.9H649.5z M638.3,64.9c0,0.6,0.2,1.1,0.7,1.5s1.1,0.6,1.8,0.7h2.7v-4.4H641c-0.8,0-1.4,0.2-1.9,0.7
		S638.3,64.3,638.3,64.9z"/>
	<path d="M670.3,72.9c0.8,0,1.5-0.2,1.9-0.7s0.7-1.1,0.7-1.9h5.6c0,2.1-0.7,3.8-2.2,5.1s-3.4,2-5.8,2c-2.8,0-4.9-0.9-6.5-2.6
		s-2.4-4.1-2.4-7.2v-0.2c0-1.9,0.4-3.6,1.1-5.1s1.7-2.6,3.1-3.4s2.9-1.2,4.7-1.2c2.5,0,4.4,0.7,5.9,2.1s2.2,3.2,2.2,5.6h-5.6
		c0-1-0.2-1.7-0.7-2.3s-1.1-0.8-1.9-0.8c-1.5,0-2.4,1-2.7,2.9c-0.1,0.6-0.1,1.5-0.1,2.6c0,1.9,0.2,3.2,0.7,4S669.3,72.9,670.3,72.9z
		"/>
	<path d="M680.2,67.5c0-1.9,0.4-3.6,1.1-5.1s1.8-2.6,3.2-3.4s3-1.2,4.9-1.2c2.8,0,5.1,0.9,6.7,2.6s2.5,4.2,2.5,7.2v0.2
		c0,3-0.8,5.3-2.5,7.1s-3.9,2.6-6.7,2.6c-2.7,0-4.9-0.8-6.5-2.4s-2.5-3.8-2.7-6.6L680.2,67.5z M686.1,67.8c0,1.8,0.3,3,0.8,3.9
		s1.4,1.2,2.4,1.2c2.1,0,3.2-1.6,3.2-4.9v-0.6c0-3.4-1.1-5.1-3.3-5.1c-2,0-3.1,1.5-3.2,4.4L686.1,67.8z"/>
	<path d="M709.2,72.9c0.8,0,1.5-0.2,1.9-0.7s0.7-1.1,0.7-1.9h5.6c0,2.1-0.7,3.8-2.2,5.1s-3.4,2-5.8,2c-2.8,0-4.9-0.9-6.5-2.6
		s-2.4-4.1-2.4-7.2v-0.2c0-1.9,0.4-3.6,1.1-5.1s1.7-2.6,3.1-3.4s2.9-1.2,4.7-1.2c2.5,0,4.4,0.7,5.9,2.1s2.2,3.2,2.2,5.6h-5.6
		c0-1-0.2-1.7-0.7-2.3s-1.1-0.8-1.9-0.8c-1.5,0-2.4,1-2.7,2.9c-0.1,0.6-0.1,1.5-0.1,2.6c0,1.9,0.2,3.2,0.7,4S708.2,72.9,709.2,72.9z
		"/>
	<path d="M736.5,62.7h-6v14.5h-6V62.7h-5.9v-4.5h17.9V62.7z"/>
	<path d="M749.2,77.1c-0.2-0.4-0.4-1-0.6-1.7c-1.1,1.4-2.6,2.1-4.6,2.1c-1.8,0-3.3-0.5-4.6-1.6s-1.9-2.4-1.9-4.1
		c0-2.1,0.8-3.6,2.3-4.7s3.7-1.6,6.6-1.6h1.8v-1c0-1.8-0.8-2.6-2.3-2.6c-1.4,0-2.1,0.7-2.1,2.1H738c0-1.8,0.8-3.3,2.3-4.5
		s3.6-1.7,6-1.7s4.3,0.6,5.7,1.8s2.1,2.8,2.2,4.9v8.4c0,1.7,0.3,3.1,0.8,4v0.3H749.2z M745.4,73.3c0.7,0,1.4-0.2,1.8-0.5
		s0.8-0.7,1-1.1v-3h-1.7c-2.1,0-3.1,0.9-3.1,2.8c0,0.5,0.2,1,0.5,1.3S744.9,73.3,745.4,73.3z"/>
	<path d="M757.9,77.1v-19h8.2c2.6,0,4.6,0.5,6,1.4s2.1,2.2,2.1,4c0,0.9-0.3,1.7-0.9,2.4s-1.5,1.2-2.7,1.6c1.5,0.3,2.7,0.8,3.5,1.5
		s1.2,1.7,1.2,2.8c0,1.8-0.7,3.1-2,4.1s-3.3,1.4-5.8,1.4H757.9z M763.9,65.7h2.4c0.7,0,1.2-0.1,1.5-0.4s0.4-0.6,0.4-1.1
		c0-0.6-0.2-1-0.5-1.3s-0.9-0.4-1.6-0.4h-2.2V65.7z M763.9,69.4v3.2h3.5c0.7,0,1.3-0.1,1.6-0.4s0.5-0.7,0.5-1.2
		c0-1.1-0.6-1.6-1.8-1.7H763.9z"/>
	<path d="M794.8,58.1v19h-5.9V62.7h-3.6l-0.3,5.8c-0.2,2.9-0.9,5-2,6.5s-2.7,2.2-4.8,2.2h-1.9l-0.1-4.5l0.6-0.1
		c0.8-0.1,1.4-0.6,1.7-1.6s0.6-2.4,0.7-4.3l0.4-8.5H794.8z"/>
	<path d="M814.5,58.1v19h-5.9v-6.3h-2.3l-3.4,6.3h-5.9l3.9-7.3c-1.1-0.5-2-1.3-2.6-2.1s-0.9-1.9-0.9-3c0-1.9,0.8-3.5,2.3-4.7
		s3.6-1.8,6-1.9H814.5z M803.3,64.9c0,0.6,0.2,1.1,0.7,1.5s1.1,0.6,1.8,0.7h2.7v-4.4H806c-0.8,0-1.4,0.2-1.9,0.7
		S803.3,64.3,803.3,64.9z"/>
	<path d="M824.7,65.2h1.9c0.4-2.3,1.4-4.1,3-5.4s3.6-2,6-2c2.7,0,4.9,0.8,6.5,2.4s2.5,3.8,2.7,6.6l0,1.1c0,2.9-0.8,5.3-2.5,7
		s-3.9,2.6-6.7,2.6c-2.5,0-4.5-0.7-6.1-2.1c-1.6-1.4-2.6-3.3-2.9-5.7h-1.8v7.4h-5.9v-19h5.9V65.2z M832.3,67.8c0,1.8,0.3,3,0.8,3.9
		s1.4,1.2,2.4,1.2c2.1,0,3.2-1.6,3.2-4.9v-0.6c0-3.4-1.1-5.1-3.3-5.1c-2,0-3.1,1.5-3.2,4.4L832.3,67.8z"/>
	<path d="M864.1,62.7h-6v14.5h-6V62.7h-5.9v-4.5h17.9V62.7z"/>
	<path d="M50.9,109.5c0-1.9,0.4-3.6,1.1-5.1s1.8-2.6,3.2-3.4s3-1.2,4.9-1.2c2.8,0,5.1,0.9,6.7,2.6s2.5,4.2,2.5,7.2v0.2
		c0,3-0.8,5.3-2.5,7.1s-3.9,2.6-6.7,2.6c-2.7,0-4.9-0.8-6.5-2.4s-2.5-3.8-2.7-6.6L50.9,109.5z M56.8,109.8c0,1.8,0.3,3,0.8,3.9
		s1.4,1.2,2.4,1.2c2.1,0,3.2-1.6,3.2-4.9v-0.6c0-3.4-1.1-5.1-3.3-5.1c-2,0-3.1,1.5-3.2,4.4L56.8,109.8z"/>
	<path d="M80,112.5h-1.8v6.6h-5.9v-19h5.9v6.8h1.7l3-6.8h7.6l-5.6,8.8h0l6.1,10.2h-8L80,112.5z"/>
	<path d="M90.8,109.5c0-1.9,0.4-3.6,1.1-5.1s1.8-2.6,3.2-3.4s3-1.2,4.9-1.2c2.8,0,5.1,0.9,6.7,2.6s2.5,4.2,2.5,7.2v0.2
		c0,3-0.8,5.3-2.5,7.1s-3.9,2.6-6.7,2.6c-2.7,0-4.9-0.8-6.5-2.4s-2.5-3.8-2.7-6.6L90.8,109.5z M96.7,109.8c0,1.8,0.3,3,0.8,3.9
		s1.4,1.2,2.4,1.2c2.1,0,3.2-1.6,3.2-4.9v-0.6c0-3.4-1.1-5.1-3.3-5.1c-2,0-3.1,1.5-3.2,4.4L96.7,109.8z"/>
	<path d="M128.4,100.1v19h-5.9v-14.4H119l-0.3,5.8c-0.2,2.9-0.9,5-2,6.5s-2.7,2.2-4.8,2.2H110l-0.1-4.5l0.6-0.1
		c0.8-0.1,1.4-0.6,1.7-1.6s0.6-2.4,0.7-4.3l0.4-8.5H128.4z"/>
	<path d="M130.9,109.5c0-1.9,0.4-3.6,1.1-5.1s1.8-2.6,3.2-3.4s3-1.2,4.9-1.2c2.8,0,5.1,0.9,6.7,2.6s2.5,4.2,2.5,7.2v0.2
		c0,3-0.8,5.3-2.5,7.1s-3.9,2.6-6.7,2.6c-2.7,0-4.9-0.8-6.5-2.4s-2.5-3.8-2.7-6.6L130.9,109.5z M136.8,109.8c0,1.8,0.3,3,0.8,3.9
		s1.4,1.2,2.4,1.2c2.1,0,3.2-1.6,3.2-4.9v-0.6c0-3.4-1.1-5.1-3.3-5.1c-2,0-3.1,1.5-3.2,4.4L136.8,109.8z"/>
	<path d="M178.6,119.1h-17.9v-3.9l8.2-8.6c2-2.3,3-4.1,3-5.5c0-1.1-0.2-1.9-0.7-2.5s-1.2-0.9-2.1-0.9c-0.9,0-1.6,0.4-2.2,1.2
		s-0.8,1.7-0.8,2.9h-5.9c0-1.6,0.4-3,1.2-4.4s1.9-2.4,3.3-3.1s3-1.1,4.7-1.1c2.8,0,4.9,0.6,6.4,1.9s2.2,3.1,2.2,5.5
		c0,1-0.2,2-0.6,2.9s-1,2-1.7,3s-2.1,2.5-3.8,4.2l-3.3,3.8h10.1V119.1z"/>
	<path d="M181.6,98.5c0-1.6,0.5-2.9,1.5-3.8s2.4-1.5,4.1-1.5c1.8,0,3.1,0.5,4.2,1.5s1.5,2.3,1.5,3.9v1.3c0,1.6-0.5,2.9-1.5,3.8
		s-2.4,1.4-4.1,1.4c-1.7,0-3.1-0.5-4.2-1.4s-1.6-2.3-1.6-3.9V98.5z M185.4,99.8c0,0.6,0.2,1.1,0.5,1.5s0.8,0.6,1.4,0.6
		c1.2,0,1.8-0.8,1.8-2.3v-1c0-0.6-0.2-1.1-0.5-1.5c-0.3-0.4-0.8-0.6-1.4-0.6c-0.6,0-1,0.2-1.4,0.6s-0.5,0.9-0.5,1.5V99.8z
		 M188.5,117.2l-2.8-1.4l12.5-20l2.8,1.4L188.5,117.2z M193.8,112.9c0-1.6,0.5-2.9,1.6-3.8s2.4-1.4,4.1-1.4c1.7,0,3.1,0.5,4.2,1.4
		s1.5,2.3,1.5,4v1.2c0,1.6-0.5,2.9-1.5,3.8s-2.4,1.4-4.1,1.4c-1.7,0-3.1-0.5-4.2-1.4s-1.6-2.3-1.6-3.9V112.9z M197.6,114.2
		c0,0.5,0.2,1,0.6,1.4c0.4,0.4,0.8,0.6,1.4,0.6c1.1,0,1.8-0.5,1.8-1.6l0-1.8c0-0.6-0.2-1.1-0.5-1.5s-0.8-0.6-1.4-0.6
		c-0.6,0-1,0.2-1.4,0.5c-0.3,0.4-0.5,0.8-0.5,1.4V114.2z"/>
	<path d="M216.6,109.5c0-1.9,0.4-3.6,1.1-5.1s1.8-2.6,3.2-3.4s3-1.2,4.9-1.2c2.8,0,5.1,0.9,6.7,2.6s2.5,4.2,2.5,7.2v0.2
		c0,3-0.8,5.3-2.5,7.1s-3.9,2.6-6.7,2.6c-2.7,0-4.9-0.8-6.5-2.4s-2.5-3.8-2.7-6.6L216.6,109.5z M222.5,109.8c0,1.8,0.3,3,0.8,3.9
		s1.4,1.2,2.4,1.2c2.1,0,3.2-1.6,3.2-4.9v-0.6c0-3.4-1.1-5.1-3.3-5.1c-2,0-3.1,1.5-3.2,4.4L222.5,109.8z"/>
	<path d="M253.7,104.7h-6v14.5h-6v-14.5h-5.9v-4.5h17.9V104.7z"/>
	<path d="M265.3,119.1v-19h8.2c2.6,0,4.6,0.5,6,1.4s2.1,2.2,2.1,4c0,0.9-0.3,1.7-0.9,2.4s-1.5,1.2-2.7,1.6c1.5,0.3,2.7,0.8,3.5,1.5
		s1.2,1.7,1.2,2.8c0,1.8-0.7,3.1-2,4.1s-3.3,1.4-5.8,1.4H265.3z M271.2,107.7h2.4c0.7,0,1.2-0.1,1.5-0.4s0.4-0.6,0.4-1.1
		c0-0.6-0.2-1-0.5-1.3s-0.9-0.4-1.6-0.4h-2.2V107.7z M271.2,111.4v3.2h3.5c0.7,0,1.3-0.1,1.6-0.4s0.5-0.7,0.5-1.2
		c0-1.1-0.6-1.6-1.8-1.7H271.2z"/>
	<path d="M293.1,114.9c0.8,0,1.5-0.2,1.9-0.7s0.7-1.1,0.7-1.9h5.6c0,2.1-0.7,3.8-2.2,5.1s-3.4,2-5.8,2c-2.8,0-4.9-0.9-6.5-2.6
		s-2.4-4.1-2.4-7.2v-0.2c0-1.9,0.4-3.6,1.1-5.1s1.7-2.6,3.1-3.4s2.9-1.2,4.7-1.2c2.5,0,4.4,0.7,5.9,2.1s2.2,3.2,2.2,5.6h-5.6
		c0-1-0.2-1.7-0.7-2.3s-1.1-0.8-1.9-0.8c-1.5,0-2.4,1-2.7,2.9c-0.1,0.6-0.1,1.5-0.1,2.6c0,1.9,0.2,3.2,0.7,4
		S292.1,114.9,293.1,114.9z"/>
	<path d="M313,119.5c-2.9,0-5.3-0.9-7.1-2.6s-2.7-4-2.7-6.8v-0.5c0-1.9,0.4-3.7,1.1-5.2s1.8-2.6,3.2-3.5s3-1.2,4.9-1.2
		c2.7,0,4.8,0.8,6.3,2.5s2.3,4,2.3,6.9v2.3h-11.8c0.2,1.1,0.7,1.9,1.4,2.5s1.6,0.9,2.8,0.9c1.9,0,3.3-0.7,4.4-2l2.7,3.2
		c-0.7,1-1.8,1.8-3.1,2.4S314.6,119.5,313,119.5z M312.3,104.3c-1.7,0-2.8,1.1-3.1,3.4h6v-0.5c0-0.9-0.2-1.7-0.7-2.2
		S313.3,104.3,312.3,104.3z"/>
	<path d="M334.5,100.1h5.9v19h-5.9v-11.1l-5.2,11.1h-6v-19h6v11L334.5,100.1z M338.5,92.1c0,1.6-0.6,2.9-1.8,3.9s-2.8,1.5-4.7,1.5
		s-3.5-0.5-4.7-1.5s-1.8-2.3-1.8-3.9h4c0,0.7,0.2,1.3,0.7,1.6s1,0.6,1.8,0.6s1.4-0.2,1.8-0.6s0.6-0.9,0.6-1.7H338.5z"/>
	<path d="M369.6,119.1h-6v-14.4h-5.2v14.4h-5.9v-19h17.1V119.1z"/>
	<path d="M372,109.5c0-1.9,0.4-3.6,1.1-5.1s1.8-2.6,3.2-3.4s3-1.2,4.9-1.2c2.8,0,5.1,0.9,6.7,2.6s2.5,4.2,2.5,7.2v0.2
		c0,3-0.8,5.3-2.5,7.1s-3.9,2.6-6.7,2.6c-2.7,0-4.9-0.8-6.5-2.4s-2.5-3.8-2.7-6.6L372,109.5z M377.9,109.8c0,1.8,0.3,3,0.8,3.9
		s1.4,1.2,2.4,1.2c2.1,0,3.2-1.6,3.2-4.9v-0.6c0-3.4-1.1-5.1-3.3-5.1c-2,0-3.1,1.5-3.2,4.4L377.9,109.8z"/>
	<path d="M392.2,114.6c0.9-0.9,1.6-1.9,2.1-2.8s0.7-2,0.7-3.3l0.1-1.3l0.1-7H410v14.4h2.8v10.3h-5.9v-5.8h-10.3v5.8h-6.1l0-10.3
		H392.2z M399,114.6h5.1v-9.9h-3l0,1.6C400.9,109.7,400.2,112.5,399,114.6z"/>
	<path d="M432.2,109.8c0,3-0.7,5.3-2,7.1s-3.1,2.6-5.4,2.6c-1.7,0-3.2-0.6-4.3-1.9v8.9h-5.9v-26.3h5.5l0.2,1.8
		c1.1-1.4,2.6-2.1,4.5-2.1c2.3,0,4.2,0.9,5.5,2.6s2,4.1,2,7.1V109.8z M426.2,109.4c0-3.4-1-5.1-3-5.1c-1.4,0-2.3,0.5-2.8,1.5v7.5
		c0.5,1.1,1.5,1.6,2.8,1.6c1.9,0,2.9-1.6,2.9-4.9V109.4z"/>
	<path d="M434,109.5c0-1.9,0.4-3.6,1.1-5.1s1.8-2.6,3.2-3.4s3-1.2,4.9-1.2c2.8,0,5.1,0.9,6.7,2.6s2.5,4.2,2.5,7.2v0.2
		c0,3-0.8,5.3-2.5,7.1s-3.9,2.6-6.7,2.6c-2.7,0-4.9-0.8-6.5-2.4s-2.5-3.8-2.7-6.6L434,109.5z M440,109.8c0,1.8,0.3,3,0.8,3.9
		s1.4,1.2,2.4,1.2c2.1,0,3.2-1.6,3.2-4.9v-0.6c0-3.4-1.1-5.1-3.3-5.1c-2,0-3.1,1.5-3.2,4.4L440,109.8z"/>
	<path d="M463,114.9c0.8,0,1.5-0.2,1.9-0.7s0.7-1.1,0.7-1.9h5.6c0,2.1-0.7,3.8-2.2,5.1s-3.4,2-5.8,2c-2.8,0-4.9-0.9-6.5-2.6
		s-2.4-4.1-2.4-7.2v-0.2c0-1.9,0.4-3.6,1.1-5.1s1.7-2.6,3.1-3.4s2.9-1.2,4.7-1.2c2.5,0,4.4,0.7,5.9,2.1s2.2,3.2,2.2,5.6h-5.6
		c0-1-0.2-1.7-0.7-2.3s-1.1-0.8-1.9-0.8c-1.5,0-2.4,1-2.7,2.9c-0.1,0.6-0.1,1.5-0.1,2.6c0,1.9,0.2,3.2,0.7,4S462,114.9,463,114.9z"
		/>
	<path d="M490.3,104.7h-6v14.5h-6v-14.5h-5.9v-4.5h17.9V104.7z"/>
	<path d="M500.7,112.5h-1.8v6.6H493v-19h5.9v6.8h1.7l3-6.8h7.6l-5.6,8.8h0l6.1,10.2h-8L500.7,112.5z"/>
	<path d="M511.4,109.5c0-1.9,0.4-3.6,1.1-5.1s1.8-2.6,3.2-3.4s3-1.2,4.9-1.2c2.8,0,5.1,0.9,6.7,2.6s2.5,4.2,2.5,7.2v0.2
		c0,3-0.8,5.3-2.5,7.1s-3.9,2.6-6.7,2.6c-2.7,0-4.9-0.8-6.5-2.4s-2.5-3.8-2.7-6.6L511.4,109.5z M517.4,109.8c0,1.8,0.3,3,0.8,3.9
		s1.4,1.2,2.4,1.2c2.1,0,3.2-1.6,3.2-4.9v-0.6c0-3.4-1.1-5.1-3.3-5.1c-2,0-3.1,1.5-3.2,4.4L517.4,109.8z"/>
	<path d="M532.8,119.1v-19h8.2c2.6,0,4.6,0.5,6,1.4s2.1,2.2,2.1,4c0,0.9-0.3,1.7-0.9,2.4s-1.5,1.2-2.7,1.6c1.5,0.3,2.7,0.8,3.5,1.5
		s1.2,1.7,1.2,2.8c0,1.8-0.7,3.1-2,4.1s-3.3,1.4-5.8,1.4H532.8z M538.7,107.7h2.4c0.7,0,1.2-0.1,1.5-0.4s0.4-0.6,0.4-1.1
		c0-0.6-0.2-1-0.5-1.3s-0.9-0.4-1.6-0.4h-2.2V107.7z M538.7,111.4v3.2h3.5c0.7,0,1.3-0.1,1.6-0.4s0.5-0.7,0.5-1.2
		c0-1.1-0.6-1.6-1.8-1.7H538.7z"/>
	<path d="M551.9,109.5c0-1.9,0.4-3.6,1.1-5.1s1.8-2.6,3.2-3.4s3-1.2,4.9-1.2c2.8,0,5.1,0.9,6.7,2.6s2.5,4.2,2.5,7.2v0.2
		c0,3-0.8,5.3-2.5,7.1s-3.9,2.6-6.7,2.6c-2.7,0-4.9-0.8-6.5-2.4s-2.5-3.8-2.7-6.6L551.9,109.5z M557.8,109.8c0,1.8,0.3,3,0.8,3.9
		s1.4,1.2,2.4,1.2c2.1,0,3.2-1.6,3.2-4.9v-0.6c0-3.4-1.1-5.1-3.3-5.1c-2,0-3.1,1.5-3.2,4.4L557.8,109.8z"/>
	<path d="M583.9,100.1h5.9v19h-5.9v-11.1l-5.2,11.1h-6v-19h6v11L583.9,100.1z M587.9,92.1c0,1.6-0.6,2.9-1.8,3.9s-2.8,1.5-4.7,1.5
		s-3.5-0.5-4.7-1.5s-1.8-2.3-1.8-3.9h4c0,0.7,0.2,1.3,0.7,1.6s1,0.6,1.8,0.6s1.4-0.2,1.8-0.6s0.6-0.9,0.6-1.7H587.9z"/>
	<path d="M619,119.1h-6v-14.4h-5.2v14.4h-5.9v-19H619V119.1z"/>
	<path d="M639.8,109.8c0,3-0.7,5.3-2,7.1s-3.1,2.6-5.4,2.6c-1.7,0-3.2-0.6-4.3-1.9v8.9h-5.9v-26.3h5.5l0.2,1.8
		c1.1-1.4,2.6-2.1,4.5-2.1c2.3,0,4.2,0.9,5.5,2.6s2,4.1,2,7.1V109.8z M633.9,109.4c0-3.4-1-5.1-3-5.1c-1.4,0-2.3,0.5-2.8,1.5v7.5
		c0.5,1.1,1.5,1.6,2.8,1.6c1.9,0,2.9-1.6,2.9-4.9V109.4z"/>
	<path d="M651.6,119.5c-2.9,0-5.3-0.9-7.1-2.6s-2.7-4-2.7-6.8v-0.5c0-1.9,0.4-3.7,1.1-5.2s1.8-2.6,3.2-3.5s3-1.2,4.9-1.2
		c2.7,0,4.8,0.8,6.3,2.5s2.3,4,2.3,6.9v2.3h-11.8c0.2,1.1,0.7,1.9,1.4,2.5s1.6,0.9,2.8,0.9c1.9,0,3.3-0.7,4.4-2l2.7,3.2
		c-0.7,1-1.8,1.8-3.1,2.4S653.2,119.5,651.6,119.5z M651,104.3c-1.7,0-2.8,1.1-3.1,3.4h6v-0.5c0-0.9-0.2-1.7-0.7-2.2
		S651.9,104.3,651,104.3z"/>
	<path d="M670.1,114.9c0.8,0,1.5-0.2,1.9-0.7s0.7-1.1,0.7-1.9h5.6c0,2.1-0.7,3.8-2.2,5.1s-3.4,2-5.8,2c-2.8,0-4.9-0.9-6.5-2.6
		s-2.4-4.1-2.4-7.2v-0.2c0-1.9,0.4-3.6,1.1-5.1s1.7-2.6,3.1-3.4s2.9-1.2,4.7-1.2c2.5,0,4.4,0.7,5.9,2.1s2.2,3.2,2.2,5.6h-5.6
		c0-1-0.2-1.7-0.7-2.3s-1.1-0.8-1.9-0.8c-1.5,0-2.4,1-2.7,2.9c-0.1,0.6-0.1,1.5-0.1,2.6c0,1.9,0.2,3.2,0.7,4
		S669.1,114.9,670.1,114.9z"/>
	<path d="M697.4,104.7h-6v14.5h-6v-14.5h-5.9v-4.5h17.9V104.7z"/>
	<path d="M707.4,110.9l3.2-10.7h6.3l-7.8,22.2l-0.3,0.8c-1.1,2.5-3,3.7-5.8,3.7c-0.8,0-1.6-0.1-2.4-0.4v-4.2h0.8
		c0.8,0,1.5-0.1,1.9-0.4c0.4-0.2,0.8-0.7,1-1.3l0.5-1.3l-6.6-19.2h6.3L707.4,110.9z"/>
	<path d="M735.4,119.1h-6v-14.4h-5.2v14.4h-5.9v-19h17.1V119.1z"/>
	<path d="M755.6,119.1h-5.9v-7h-5.2v7h-5.9v-19h5.9v7.4h5.2v-7.4h5.9V119.1z"/>
	<path d="M758,109.5c0-1.9,0.4-3.6,1.1-5.1s1.8-2.6,3.2-3.4s3-1.2,4.9-1.2c2.8,0,5.1,0.9,6.7,2.6s2.5,4.2,2.5,7.2v0.2
		c0,3-0.8,5.3-2.5,7.1s-3.9,2.6-6.7,2.6c-2.7,0-4.9-0.8-6.5-2.4s-2.5-3.8-2.7-6.6L758,109.5z M764,109.8c0,1.8,0.3,3,0.8,3.9
		s1.4,1.2,2.4,1.2c2.1,0,3.2-1.6,3.2-4.9v-0.6c0-3.4-1.1-5.1-3.3-5.1c-2,0-3.1,1.5-3.2,4.4L764,109.8z"/>
	<path d="M787.1,114.9c0.8,0,1.5-0.2,1.9-0.7s0.7-1.1,0.7-1.9h5.6c0,2.1-0.7,3.8-2.2,5.1s-3.4,2-5.8,2c-2.8,0-4.9-0.9-6.5-2.6
		s-2.4-4.1-2.4-7.2v-0.2c0-1.9,0.4-3.6,1.1-5.1s1.7-2.6,3.1-3.4s2.9-1.2,4.7-1.2c2.5,0,4.4,0.7,5.9,2.1s2.2,3.2,2.2,5.6h-5.6
		c0-1-0.2-1.7-0.7-2.3s-1.1-0.8-1.9-0.8c-1.5,0-2.4,1-2.7,2.9c-0.1,0.6-0.1,1.5-0.1,2.6c0,1.9,0.2,3.2,0.7,4
		S786.1,114.9,787.1,114.9z"/>
	<path d="M814.4,104.7h-6v14.5h-6v-14.5h-5.9v-4.5h17.9V104.7z"/>
	<path d="M827.6,100.1h5.9v19h-5.9v-11.1l-5.2,11.1h-6v-19h6v11L827.6,100.1z"/>
	<path d="M841.3,102.3l-5.7-1.6l1.1-3.3l5.6,2.3l-0.4-6.2h3.8l-0.5,6.3l5.4-2.2l1.1,3.4l-5.8,1.6l3.8,4.7l-3,2.1l-3.2-5.2l-3.2,5
		l-3-2L841.3,102.3z"/>
</g>
<g>
	<path d="M536.8,950.6h1.9v14.2h-1.9v-11l-7,11H528v-14.2h1.9v11L536.8,950.6z"/>
	<path d="M546.1,963.5c0.6,0,1.2-0.2,1.7-0.6s0.7-0.9,0.8-1.5h1.7c0,0.6-0.2,1.2-0.6,1.7s-0.9,1-1.5,1.3s-1.3,0.5-2,0.5
		c-1.4,0-2.6-0.5-3.4-1.4s-1.3-2.3-1.3-3.9v-0.3c0-1,0.2-1.9,0.6-2.7s0.9-1.4,1.6-1.9s1.5-0.7,2.5-0.7c1.2,0,2.2,0.4,3,1.1
		s1.2,1.6,1.3,2.8h-1.7c-0.1-0.7-0.3-1.2-0.8-1.7s-1-0.7-1.7-0.7c-0.9,0-1.6,0.3-2.1,1s-0.8,1.6-0.8,2.9v0.3c0,1.2,0.3,2.2,0.8,2.8
		S545.2,963.5,546.1,963.5z"/>
	<path d="M560.2,955.7h-3.5v9.1h-1.8v-9.1h-3.5v-1.5h8.8V955.7z"/>
	<path d="M561,959.4c0-1,0.2-2,0.6-2.8s1-1.5,1.7-1.9s1.6-0.7,2.5-0.7c1.4,0,2.6,0.5,3.5,1.5s1.3,2.3,1.3,4v0.1c0,1-0.2,2-0.6,2.8
		s-1,1.5-1.7,1.9s-1.6,0.7-2.5,0.7c-1.4,0-2.6-0.5-3.5-1.5s-1.3-2.3-1.3-4V959.4z M562.9,959.7c0,1.2,0.3,2.1,0.8,2.8
		s1.3,1.1,2.2,1.1c0.9,0,1.6-0.4,2.2-1.1s0.8-1.7,0.8-3c0-1.2-0.3-2.1-0.8-2.8s-1.3-1.1-2.2-1.1c-0.9,0-1.6,0.4-2.2,1.1
		S562.9,958.3,562.9,959.7z"/>
	<path d="M580.9,964.8h-1.8V961c-0.8,0.2-1.6,0.3-2.4,0.3c-1.3,0-2.3-0.3-3-1s-1-1.6-1.1-2.9v-3.2h1.8v3.2c0,1.6,0.8,2.4,2.3,2.4
		c0.8,0,1.6-0.1,2.4-0.3v-5.3h1.8V964.8z"/>
	<path d="M592.4,964.8h-1.8v-4.5h-4.9v4.5H584v-10.6h1.8v4.6h4.9v-4.6h1.8V964.8z"/>
	<path d="M602.2,954.3h1.8v10.6h-1.8v-7.7l-4.9,7.7h-1.8v-10.6h1.8v7.7L602.2,954.3z"/>
	<path d="M610.2,960.3h-1.3v4.5H607v-10.6h1.8v4.5h1.2l3.6-4.5h2.2l-4.2,5.1l4.5,5.5h-2.3L610.2,960.3z"/>
	<path d="M617.6,963.9c0-0.3,0.1-0.6,0.3-0.8s0.5-0.3,0.8-0.3s0.7,0.1,0.8,0.3s0.3,0.5,0.3,0.8c0,0.3-0.1,0.5-0.3,0.8
		s-0.5,0.3-0.8,0.3s-0.6-0.1-0.8-0.3S617.6,964.2,617.6,963.9z M617.6,955.3c0-0.3,0.1-0.6,0.3-0.8s0.5-0.3,0.8-0.3s0.7,0.1,0.8,0.3
		s0.3,0.5,0.3,0.8c0,0.3-0.1,0.5-0.3,0.8s-0.5,0.3-0.8,0.3s-0.6-0.1-0.8-0.3S617.6,955.6,617.6,955.3z"/>
	<path d="M638.2,960.3c-0.2,1.5-0.7,2.7-1.7,3.5s-2.2,1.2-3.7,1.2c-1.7,0-3-0.6-4-1.8s-1.5-2.8-1.5-4.8V957c0-1.3,0.2-2.5,0.7-3.5
		s1.1-1.8,2-2.3s1.9-0.8,3-0.8c1.5,0,2.7,0.4,3.6,1.3s1.4,2,1.6,3.5h-1.9c-0.2-1.1-0.5-2-1.1-2.5c-0.5-0.5-1.3-0.8-2.3-0.8
		c-1.2,0-2.1,0.4-2.8,1.3c-0.7,0.9-1,2.1-1,3.8v1.4c0,1.5,0.3,2.8,1,3.7s1.5,1.4,2.7,1.4c1,0,1.8-0.2,2.4-0.7s0.9-1.3,1.1-2.5H638.2
		z"/>
	<path d="M643.9,962.2l2.5-7.9h1.9l-4.2,12.2c-0.7,1.8-1.7,2.6-3.1,2.6l-0.3,0l-0.7-0.1v-1.5l0.5,0c0.6,0,1.1-0.1,1.4-0.4
		s0.6-0.7,0.8-1.4l0.4-1.1l-3.8-10.4h2L643.9,962.2z"/>
	<path d="M649.3,963.4l0.6-0.8c0.7-0.9,1.1-2.3,1.2-4.1l0.2-4.2h6.8v9.1h1.4v4.6h-1.8v-3.1h-7.4v3.1h-1.8l0-4.6H649.3z M651.5,963.4
		h4.9v-7.4h-3.3l-0.1,2.5C652.8,960.6,652.3,962.2,651.5,963.4z"/>
	<path d="M665.9,965c-1.4,0-2.6-0.5-3.5-1.4s-1.3-2.2-1.3-3.8v-0.3c0-1,0.2-2,0.6-2.8s1-1.5,1.7-1.9s1.5-0.7,2.3-0.7
		c1.4,0,2.4,0.5,3.2,1.4s1.1,2.2,1.1,3.9v0.8h-7.2c0,1,0.3,1.9,0.9,2.5s1.3,1,2.2,1c0.6,0,1.2-0.1,1.6-0.4s0.8-0.6,1.2-1l1.1,0.9
		C669,964.3,667.6,965,665.9,965z M665.6,955.5c-0.7,0-1.3,0.3-1.8,0.8s-0.8,1.3-0.9,2.2h5.3v-0.1c-0.1-0.9-0.3-1.6-0.7-2.1
		S666.4,955.5,665.6,955.5z"/>
	<path d="M676.7,954.9c1.3,0,2.4,0.4,3.2,1.3s1.2,2.1,1.2,3.5v0.2c0,1-0.2,1.9-0.6,2.7s-0.9,1.4-1.7,1.8s-1.5,0.6-2.5,0.6
		c-1.4,0-2.6-0.5-3.4-1.4s-1.3-2.2-1.3-3.8v-0.9c0-2.2,0.4-4,1.2-5.3s2-2.1,3.6-2.4c0.9-0.2,1.5-0.4,1.8-0.6s0.5-0.6,0.5-1h1.5
		c0,0.8-0.2,1.4-0.6,1.9s-1,0.8-1.8,1l-1.3,0.3c-1.1,0.3-1.9,0.7-2.4,1.3s-0.9,1.4-1,2.4C674.2,955.4,675.3,954.9,676.7,954.9z
		 M676.4,956.4c-0.9,0-1.6,0.3-2.1,0.9s-0.8,1.4-0.8,2.5v0.2c0,1.1,0.3,2,0.8,2.7s1.2,1,2.1,1c0.9,0,1.6-0.3,2.1-1s0.8-1.6,0.8-2.9
		c0-1-0.3-1.8-0.8-2.4S677.3,956.4,676.4,956.4z"/>
	<path d="M691.6,964.8h-1.8v-4.5h-4.9v4.5h-1.8v-10.6h1.8v4.6h4.9v-4.6h1.8V964.8z"/>
	<path d="M696.5,957.9h2.7c1.2,0,2.1,0.3,2.8,0.9s1,1.4,1,2.5c0,1.1-0.4,1.9-1.1,2.5s-1.7,1-2.9,1h-4.5v-10.6h1.8V957.9z
		 M696.5,959.4v4h2.7c0.7,0,1.2-0.2,1.6-0.5s0.6-0.8,0.6-1.4c0-0.6-0.2-1.1-0.5-1.4s-0.9-0.6-1.5-0.6H696.5z M706.9,964.8H705v-10.6
		h1.8V964.8z"/>
	<path d="M716.9,954.3h1.8v10.6h-1.8v-7.7l-4.9,7.7h-1.8v-10.6h1.8v7.7L716.9,954.3z M717.3,950.4c0,0.8-0.3,1.4-0.8,1.9
		s-1.2,0.7-2.1,0.7s-1.6-0.2-2.1-0.7s-0.8-1.1-0.8-1.9h1.5c0,0.5,0.1,0.8,0.4,1.1s0.6,0.4,1.1,0.4c0.5,0,0.8-0.1,1.1-0.4
		s0.4-0.6,0.4-1.1H717.3z"/>
	<path d="M726.4,963.4l0.6-0.8c0.7-0.9,1.1-2.3,1.2-4.1l0.2-4.2h6.8v9.1h1.4v4.6h-1.8v-3.1h-7.4v3.1h-1.8l0-4.6H726.4z M728.6,963.4
		h4.9v-7.4h-3.3l-0.1,2.5C729.9,960.6,729.5,962.2,728.6,963.4z"/>
	<path d="M743,965c-1.4,0-2.6-0.5-3.5-1.4s-1.3-2.2-1.3-3.8v-0.3c0-1,0.2-2,0.6-2.8s1-1.5,1.7-1.9s1.5-0.7,2.3-0.7
		c1.4,0,2.4,0.5,3.2,1.4s1.1,2.2,1.1,3.9v0.8h-7.2c0,1,0.3,1.9,0.9,2.5s1.3,1,2.2,1c0.6,0,1.2-0.1,1.6-0.4s0.8-0.6,1.2-1l1.1,0.9
		C746.1,964.3,744.7,965,743,965z M742.7,955.5c-0.7,0-1.3,0.3-1.8,0.8s-0.8,1.3-0.9,2.2h5.3v-0.1c-0.1-0.9-0.3-1.6-0.7-2.1
		S743.5,955.5,742.7,955.5z"/>
	<path d="M757.8,964.8H756v-9.1h-4.9v9.1h-1.8v-10.6h8.5V964.8z"/>
	<path d="M767.2,964.8c-0.1-0.2-0.2-0.6-0.3-1.1c-0.8,0.9-1.8,1.3-3,1.3c-1,0-1.9-0.3-2.6-0.9s-1-1.3-1-2.2c0-1.1,0.4-2,1.3-2.6
		s2-0.9,3.5-0.9h1.8v-0.8c0-0.6-0.2-1.1-0.6-1.5s-0.9-0.6-1.7-0.6c-0.6,0-1.2,0.2-1.6,0.5s-0.7,0.7-0.7,1.2h-1.8
		c0-0.5,0.2-1,0.6-1.5s0.9-0.9,1.5-1.2s1.3-0.4,2.1-0.4c1.2,0,2.2,0.3,2.9,0.9s1,1.4,1.1,2.5v4.9c0,1,0.1,1.7,0.4,2.3v0.2H767.2z
		 M764.2,963.5c0.6,0,1.1-0.1,1.6-0.4s0.9-0.7,1.1-1.1v-2.2h-1.4c-2.2,0-3.3,0.6-3.3,1.9c0,0.6,0.2,1,0.6,1.3
		S763.7,963.5,764.2,963.5z"/>
	<path d="M780.5,959.7c0,1.6-0.4,2.9-1.1,3.9s-1.7,1.5-3,1.5c-1.3,0-2.3-0.4-3-1.2v5.1h-1.8v-14.6h1.7l0.1,1.2
		c0.7-0.9,1.8-1.4,3.1-1.4c1.3,0,2.3,0.5,3,1.4s1.1,2.3,1.1,4V959.7z M778.7,959.5c0-1.2-0.3-2.1-0.8-2.8s-1.2-1-2.1-1
		c-1.1,0-1.9,0.5-2.5,1.5v5c0.5,1,1.4,1.4,2.5,1.4c0.9,0,1.6-0.3,2.1-1S778.7,960.8,778.7,959.5z"/>
	<path d="M789.9,955.7h-3.5v9.1h-1.8v-9.1h-3.5v-1.5h8.8V955.7z"/>
	<path d="M798,964.8c-0.1-0.2-0.2-0.6-0.3-1.1c-0.8,0.9-1.8,1.3-3,1.3c-1,0-1.9-0.3-2.6-0.9s-1-1.3-1-2.2c0-1.1,0.4-2,1.3-2.6
		s2-0.9,3.5-0.9h1.8v-0.8c0-0.6-0.2-1.1-0.6-1.5s-0.9-0.6-1.7-0.6c-0.6,0-1.2,0.2-1.6,0.5s-0.7,0.7-0.7,1.2h-1.8
		c0-0.5,0.2-1,0.6-1.5s0.9-0.9,1.5-1.2s1.3-0.4,2.1-0.4c1.2,0,2.2,0.3,2.9,0.9s1,1.4,1.1,2.5v4.9c0,1,0.1,1.7,0.4,2.3v0.2H798z
		 M795,963.5c0.6,0,1.1-0.1,1.6-0.4s0.9-0.7,1.1-1.1v-2.2h-1.4c-2.2,0-3.3,0.6-3.3,1.9c0,0.6,0.2,1,0.6,1.3S794.4,963.5,795,963.5z"
		/>
	<path d="M808.5,962.4l3.6-8.2h2.3v10.6h-1.8v-7.7l-3.4,7.7h-1.2l-3.5-7.9v7.9h-1.8v-10.6h2.3L808.5,962.4z"/>
	<path d="M821.6,965c-1.4,0-2.6-0.5-3.5-1.4s-1.3-2.2-1.3-3.8v-0.3c0-1,0.2-2,0.6-2.8s1-1.5,1.7-1.9s1.5-0.7,2.3-0.7
		c1.4,0,2.4,0.5,3.2,1.4s1.1,2.2,1.1,3.9v0.8h-7.2c0,1,0.3,1.9,0.9,2.5s1.3,1,2.2,1c0.6,0,1.2-0.1,1.6-0.4s0.8-0.6,1.2-1l1.1,0.9
		C824.7,964.3,823.4,965,821.6,965z M821.4,955.5c-0.7,0-1.3,0.3-1.8,0.8s-0.8,1.3-0.9,2.2h5.3v-0.1c-0.1-0.9-0.3-1.6-0.7-2.1
		S822.1,955.5,821.4,955.5z"/>
	<path d="M836.4,964.8h-1.8v-4.5h-4.9v4.5H828v-10.6h1.8v4.6h4.9v-4.6h1.8V964.8z"/>
	<path d="M847.2,955.7h-3.5v9.1h-1.8v-9.1h-3.5v-1.5h8.8V955.7z"/>
	<path d="M862.5,964.8h-1.8v-9.1h-4.9v9.1h-1.8v-10.6h8.5V964.8z"/>
	<path d="M874.4,959.7c0,1.6-0.4,2.9-1.1,3.9s-1.7,1.5-3,1.5c-1.3,0-2.3-0.4-3-1.2v5.1h-1.8v-14.6h1.7l0.1,1.2
		c0.7-0.9,1.8-1.4,3.1-1.4c1.3,0,2.3,0.5,3,1.4s1.1,2.3,1.1,4V959.7z M872.6,959.5c0-1.2-0.3-2.1-0.8-2.8s-1.2-1-2.1-1
		c-1.1,0-1.9,0.5-2.5,1.5v5c0.5,1,1.4,1.4,2.5,1.4c0.9,0,1.6-0.3,2.1-1S872.6,960.8,872.6,959.5z"/>
	<path d="M883.5,954.3h1.8v10.6h-1.8v-7.7l-4.9,7.7h-1.8v-10.6h1.8v7.7L883.5,954.3z"/>
	<path d="M893.4,964.8v-14.2h4.6c1.5,0,2.7,0.3,3.5,1s1.2,1.6,1.2,2.8c0,0.7-0.2,1.3-0.6,1.8s-0.9,0.9-1.5,1.2
		c0.8,0.2,1.4,0.6,1.8,1.2s0.7,1.3,0.7,2.2c0,1.3-0.4,2.3-1.2,3s-2,1.1-3.5,1.1H893.4z M895.3,956.7h2.8c0.8,0,1.5-0.2,2-0.6
		s0.7-1,0.7-1.7c0-0.8-0.2-1.4-0.7-1.7s-1.1-0.5-2.1-0.5h-2.8V956.7z M895.3,958.2v5.1h3.1c0.9,0,1.6-0.2,2.1-0.7s0.8-1.1,0.8-1.9
		c0-1.7-0.9-2.6-2.8-2.6H895.3z"/>
	<path d="M916.3,960.3c-0.2,1.5-0.7,2.7-1.7,3.5s-2.2,1.2-3.7,1.2c-1.7,0-3-0.6-4-1.8s-1.5-2.8-1.5-4.8V957c0-1.3,0.2-2.5,0.7-3.5
		s1.1-1.8,2-2.3s1.9-0.8,3-0.8c1.5,0,2.7,0.4,3.6,1.3s1.4,2,1.6,3.5h-1.9c-0.2-1.1-0.5-2-1.1-2.5c-0.5-0.5-1.3-0.8-2.3-0.8
		c-1.2,0-2.1,0.4-2.8,1.3c-0.7,0.9-1,2.1-1,3.8v1.4c0,1.5,0.3,2.8,1,3.7s1.5,1.4,2.7,1.4c1,0,1.8-0.2,2.4-0.7s0.9-1.3,1.1-2.5H916.3
		z"/>
	<path d="M925.7,959.3v5.6h-1.9v-14.2h5.2c1.6,0,2.8,0.4,3.7,1.2s1.3,1.8,1.3,3.2c0,1.4-0.4,2.4-1.3,3.2s-2.1,1.1-3.7,1.1H925.7z
		 M925.7,957.7h3.4c1,0,1.8-0.2,2.3-0.7s0.8-1.2,0.8-2c0-0.8-0.3-1.5-0.8-2s-1.3-0.8-2.2-0.8h-3.5V957.7z"/>
	<path d="M943.5,952h0.3c1.1,0,2.1,0.3,2.9,0.8s1.6,1.2,2.1,2s0.7,1.8,0.7,2.9c0,1.1-0.2,2.1-0.7,2.9s-1.2,1.6-2.1,2.1
		s-1.8,0.7-2.9,0.8h-0.3v1.9h-1.8v-1.9h-0.3c-1.1,0-2.1-0.2-3-0.7s-1.6-1.2-2.1-2.1s-0.7-1.9-0.7-2.9s0.2-2.1,0.7-2.9
		s1.2-1.6,2.1-2.1s1.9-0.7,3-0.7h0.3v-2h1.8V952z M941.4,953.5c-1.2,0-2.2,0.4-2.9,1.1s-1.1,1.8-1.1,3.1c0,1.3,0.4,2.4,1.1,3.1
		s1.7,1.1,2.9,1.1h0.3v-8.5H941.4z M943.5,953.5v8.5h0.3c1.2,0,2.2-0.4,2.9-1.1s1-1.8,1-3.1c0-1.3-0.3-2.3-1-3.1s-1.7-1.1-3-1.1
		H943.5z"/>
</g>
<g>
	<g id="areas">
		<path class="st2" d="M112.6,872.9c51.6,0,103.2,0,154.8,0c51.6,0,103.2,0,154.8,0c51.7,0,103.5,0,155.2,0c51.6,0,103.2,0,154.8,0
			s103.2,0,154.8,0V502.2c-51.6-12.6-103.2-25.3-154.8-39.9S629,433.1,577.4,414.5c-51.7-18.7-103.5-64.1-155.2-64.1
			c-51.6,0-103.2,35-154.8,35c-51.6,0-103.2-12.3-154.8-24.7V872.9z"/>
		<path class="st3" d="M732.2,366.2c-51.6-17.8-103.2-30.2-154.8-54.8c-51.7-24.6-103.5-92.7-155.2-92.7c-51.6,0-103.2,26-154.8,26
			c-51.6,0-103.2-11.4-154.8-22.8v11.5v48.2v79.2c51.6,12.3,103.2,24.7,154.8,24.7c51.6,0,103.2-35,154.8-35
			c51.7,0,103.5,45.4,155.2,64.1c51.6,18.6,103.2,33.2,154.8,47.8c51.6,14.6,103.2,27.3,154.8,39.9v-41.2V426v-7.7
			C835.4,401.1,783.8,384,732.2,366.2z"/>
		<path class="st4" d="M732.2,352.3c-51.6-18.4-103.2-29.6-154.8-54.6c-51.7-25-103.5-95.5-155.2-95.5c-51.6,0-103.2,28-154.8,28
			c-51.6,0-103.2-10.9-154.8-21.7v6.4v7.1c51.6,11.4,103.2,22.8,154.8,22.8c51.6,0,103.2-26,154.8-26c51.7,0,103.5,68.1,155.2,92.7
			c51.6,24.5,103.2,36.9,154.8,54.8s103.2,35,154.8,52.1v-5.6v-4.8C835.4,389.3,783.8,370.6,732.2,352.3z"/>
	</g>
	<g id="data-point-labels">
		<g>
			<defs>
				<rect id="SVGID_1_" x="67" y="151" width="860.4" height="768.7"/>
			</defs>
			<clipPath id="SVGID_2_">
				<use xlink:href="#SVGID_1_"  style="overflow:visible;"/>
			</clipPath>
			<g transform="translate(0,0)" class="st5">
			</g>
		</g>
		<g>
			<defs>
				<rect id="SVGID_3_" x="67" y="151" width="860.4" height="768.7"/>
			</defs>
			<clipPath id="SVGID_4_">
				<use xlink:href="#SVGID_3_"  style="overflow:visible;"/>
			</clipPath>
			<g transform="translate(0,0)" class="st6">
			</g>
		</g>
		<g>
			<defs>
				<rect id="SVGID_5_" x="67" y="151" width="860.4" height="768.7"/>
			</defs>
			<clipPath id="SVGID_6_">
				<use xlink:href="#SVGID_5_"  style="overflow:visible;"/>
			</clipPath>
			<g transform="translate(0,0)" class="st7">
			</g>
		</g>
		<g>
			<defs>
				<rect id="SVGID_7_" x="67" y="151" width="860.4" height="768.7"/>
			</defs>
			<clipPath id="SVGID_8_">
				<use xlink:href="#SVGID_7_"  style="overflow:visible;"/>
			</clipPath>
			<g transform="translate(0,0)" class="st8">
			</g>
		</g>
		<g>
			<defs>
				<rect id="SVGID_9_" x="67" y="151" width="860.4" height="768.7"/>
			</defs>
			<clipPath id="SVGID_10_">
				<use xlink:href="#SVGID_9_"  style="overflow:visible;"/>
			</clipPath>
			<g transform="translate(0,0)" class="st9">
			</g>
		</g>
		<g>
			<defs>
				<rect id="SVGID_11_" x="67" y="151" width="860.4" height="768.7"/>
			</defs>
			<clipPath id="SVGID_12_">
				<use xlink:href="#SVGID_11_"  style="overflow:visible;"/>
			</clipPath>
			<g transform="translate(0,0)" class="st10">
			</g>
		</g>
		<g>
			<defs>
				<rect id="SVGID_13_" x="67" y="151" width="860.4" height="768.7"/>
			</defs>
			<clipPath id="SVGID_14_">
				<use xlink:href="#SVGID_13_"  style="overflow:visible;"/>
			</clipPath>
			<g transform="translate(0,0)" class="st11">
			</g>
		</g>
	</g>
	<g>
		<g>
			<path d="M896.5,694.5v-11.4h0l-2.3,1.2l-0.3-1.3l2.8-1.5h1.5v13H896.5z"/>
			<path d="M911.2,694.5h-8.3v-1.1l1.4-1.3c0.9-0.9,1.7-1.6,2.2-2.1s1-1.1,1.5-1.7s0.8-1.1,0.9-1.6s0.3-0.9,0.3-1.4
				c0-0.3,0-0.7-0.1-1s-0.2-0.6-0.4-0.8s-0.5-0.4-0.8-0.6s-0.7-0.2-1.2-0.2c-1,0-1.9,0.4-2.8,1.1l-0.6-1.2c0.5-0.4,1-0.7,1.7-1
				s1.3-0.4,2-0.4c0.7,0,1.3,0.1,1.8,0.3s0.9,0.5,1.2,0.9s0.5,0.8,0.7,1.2s0.2,0.9,0.2,1.4c0,0.6-0.1,1.2-0.3,1.7s-0.5,1.1-0.9,1.7
				s-0.9,1.1-1.4,1.7s-1.1,1.1-1.9,1.9l-1,1v0h5.8V694.5z"/>
			<path d="M917.7,681.5h8.2v1.2l-5.7,11.8h-1.8L924,683v0h-6.4V681.5z"/>
			<path d="M927.6,693.8l0.5-1.3c0.3,0.2,0.7,0.4,1.3,0.5s1.1,0.3,1.6,0.3c0.5,0,1-0.1,1.4-0.2s0.7-0.4,0.9-0.6s0.4-0.5,0.5-0.8
				s0.1-0.6,0.1-0.9c0-0.4-0.1-0.8-0.3-1.2s-0.4-0.6-0.8-0.8s-0.7-0.4-1.1-0.5s-0.8-0.2-1.2-0.2h-1v-1.3h1c0.5,0,0.9-0.1,1.3-0.2
				s0.8-0.4,1.1-0.7s0.5-0.8,0.5-1.2c0-0.6-0.2-1-0.6-1.4s-0.9-0.6-1.7-0.6c-0.5,0-0.9,0.1-1.4,0.3s-0.9,0.4-1.2,0.6l-0.5-1.3
				c0.4-0.3,0.9-0.5,1.5-0.7s1.3-0.3,1.9-0.3c1.2,0,2.1,0.3,2.8,0.9s1,1.3,1,2.2c0,0.7-0.2,1.3-0.6,1.8s-1,0.9-1.8,1.2v0
				c0.8,0.2,1.5,0.5,2.1,1.1s0.8,1.3,0.8,2.2c0,0.5-0.1,1-0.3,1.5s-0.5,0.9-0.9,1.2s-0.9,0.6-1.5,0.9s-1.3,0.3-2,0.3
				c-0.7,0-1.3-0.1-1.9-0.3S928,694.1,927.6,693.8z"/>
			<path d="M937.9,693.8l0.5-1.3c0.3,0.2,0.7,0.4,1.3,0.5s1.1,0.3,1.6,0.3c0.5,0,1-0.1,1.4-0.2s0.7-0.4,0.9-0.6s0.4-0.5,0.5-0.8
				s0.1-0.6,0.1-0.9c0-0.4-0.1-0.8-0.3-1.2s-0.4-0.6-0.8-0.8s-0.7-0.4-1.1-0.5s-0.8-0.2-1.2-0.2h-1v-1.3h1c0.5,0,0.9-0.1,1.3-0.2
				s0.8-0.4,1.1-0.7s0.5-0.8,0.5-1.2c0-0.6-0.2-1-0.6-1.4s-0.9-0.6-1.7-0.6c-0.5,0-0.9,0.1-1.4,0.3s-0.9,0.4-1.2,0.6l-0.5-1.3
				c0.4-0.3,0.9-0.5,1.5-0.7s1.3-0.3,1.9-0.3c1.2,0,2.1,0.3,2.8,0.9s1,1.3,1,2.2c0,0.7-0.2,1.3-0.6,1.8s-1,0.9-1.8,1.2v0
				c0.8,0.2,1.5,0.5,2.1,1.1s0.8,1.3,0.8,2.2c0,0.5-0.1,1-0.3,1.5s-0.5,0.9-0.9,1.2s-0.9,0.6-1.5,0.9s-1.3,0.3-2,0.3
				c-0.7,0-1.3-0.1-1.9-0.3S938.2,694.1,937.9,693.8z"/>
		</g>
		<g>
			<path d="M901,467.2h-8.3v-1.1l1.4-1.3c0.9-0.9,1.7-1.6,2.2-2.1s1-1.1,1.5-1.7s0.8-1.1,0.9-1.6s0.3-0.9,0.3-1.4c0-0.3,0-0.7-0.1-1
				s-0.2-0.6-0.4-0.8s-0.5-0.4-0.8-0.6s-0.7-0.2-1.2-0.2c-1,0-1.9,0.4-2.8,1.1l-0.6-1.2c0.5-0.4,1-0.7,1.7-1s1.3-0.4,2-0.4
				c0.7,0,1.3,0.1,1.8,0.3s0.9,0.5,1.2,0.9s0.5,0.8,0.7,1.2s0.2,0.9,0.2,1.4c0,0.6-0.1,1.2-0.3,1.7s-0.5,1.1-0.9,1.7
				s-0.9,1.1-1.4,1.7s-1.1,1.1-1.9,1.9l-1,1v0h5.8V467.2z"/>
			<path d="M909.6,460.4L909.6,460.4c-0.7-0.4-1.2-0.8-1.6-1.3s-0.5-1.1-0.5-1.7c0-1,0.4-1.9,1.1-2.5s1.7-1,2.9-1
				c0.6,0,1.2,0.1,1.7,0.3s0.9,0.4,1.2,0.7s0.5,0.6,0.7,1s0.2,0.8,0.2,1.2c0,0.6-0.2,1.2-0.5,1.7s-0.9,1-1.6,1.3v0.1
				c0.8,0.3,1.5,0.8,1.9,1.4s0.7,1.2,0.7,2c0,1.1-0.4,2-1.3,2.7s-1.9,1.1-3.2,1.1c-1.3,0-2.4-0.3-3.2-1s-1.2-1.5-1.2-2.5
				c0-0.8,0.2-1.5,0.7-2.1S908.8,460.7,909.6,460.4z M911.4,466.1c0.8,0,1.4-0.2,1.9-0.6s0.7-1,0.7-1.7c0-0.7-0.2-1.3-0.7-1.8
				s-1.2-0.8-2.1-1.1c-0.7,0.2-1.3,0.6-1.7,1s-0.6,1-0.6,1.7c0,0.7,0.2,1.3,0.7,1.7S910.6,466.1,911.4,466.1z M911.4,455.2
				c-0.7,0-1.3,0.2-1.7,0.6s-0.6,0.9-0.6,1.5c0,1.2,0.8,2,2.5,2.4c0.6-0.2,1.1-0.5,1.4-0.9s0.5-0.9,0.5-1.5c0-0.6-0.2-1.1-0.6-1.5
				S912.2,455.2,911.4,455.2z"/>
			<path d="M919.9,460.4L919.9,460.4c-0.7-0.4-1.2-0.8-1.6-1.3s-0.5-1.1-0.5-1.7c0-1,0.4-1.9,1.1-2.5s1.7-1,2.9-1
				c0.6,0,1.2,0.1,1.7,0.3s0.9,0.4,1.2,0.7s0.5,0.6,0.7,1s0.2,0.8,0.2,1.2c0,0.6-0.2,1.2-0.5,1.7s-0.9,1-1.6,1.3v0.1
				c0.8,0.3,1.5,0.8,1.9,1.4s0.7,1.2,0.7,2c0,1.1-0.4,2-1.3,2.7s-1.9,1.1-3.2,1.1c-1.3,0-2.4-0.3-3.2-1s-1.2-1.5-1.2-2.5
				c0-0.8,0.2-1.5,0.7-2.1S919,460.7,919.9,460.4z M921.7,466.1c0.8,0,1.4-0.2,1.9-0.6s0.7-1,0.7-1.7c0-0.7-0.2-1.3-0.7-1.8
				s-1.2-0.8-2.1-1.1c-0.7,0.2-1.3,0.6-1.7,1s-0.6,1-0.6,1.7c0,0.7,0.2,1.3,0.7,1.7S920.9,466.1,921.7,466.1z M921.7,455.2
				c-0.7,0-1.3,0.2-1.7,0.6s-0.6,0.9-0.6,1.5c0,1.2,0.8,2,2.5,2.4c0.6-0.2,1.1-0.5,1.4-0.9s0.5-0.9,0.5-1.5c0-0.6-0.2-1.1-0.6-1.5
				S922.4,455.2,921.7,455.2z"/>
			<path d="M934.8,467.2h-1.7v-3.6h-6v-1.1l5.8-8.3h1.9v8.1h1.8v1.4h-1.8V467.2z M928.9,462.2h4.3v-4.3c0-0.7,0-1.4,0.1-2h-0.1
				c-0.4,0.7-0.7,1.4-1.1,1.9L928.9,462.2L928.9,462.2z"/>
		</g>
		<g>
			<path class="st4" d="M892.6,419.3l0.5-1.3c0.3,0.2,0.7,0.4,1.3,0.5s1.1,0.3,1.6,0.3c0.5,0,1-0.1,1.4-0.2s0.7-0.4,0.9-0.6
				s0.4-0.5,0.5-0.8s0.1-0.6,0.1-0.9c0-0.4-0.1-0.8-0.3-1.2s-0.4-0.6-0.8-0.8s-0.7-0.4-1.1-0.5s-0.8-0.2-1.2-0.2h-1v-1.3h1
				c0.5,0,0.9-0.1,1.3-0.2s0.8-0.4,1.1-0.7s0.5-0.8,0.5-1.2c0-0.6-0.2-1-0.6-1.4s-0.9-0.6-1.7-0.6c-0.5,0-0.9,0.1-1.4,0.3
				s-0.9,0.4-1.2,0.6l-0.5-1.3c0.4-0.3,0.9-0.5,1.5-0.7s1.3-0.3,1.9-0.3c1.2,0,2.1,0.3,2.8,0.9s1,1.3,1,2.2c0,0.7-0.2,1.3-0.6,1.8
				s-1,0.9-1.8,1.2v0c0.8,0.2,1.5,0.5,2.1,1.1s0.8,1.3,0.8,2.2c0,0.5-0.1,1-0.3,1.5s-0.5,0.9-0.9,1.2s-0.9,0.6-1.5,0.9
				s-1.3,0.3-2,0.3c-0.7,0-1.3-0.1-1.9-0.3S893,419.6,892.6,419.3z"/>
			<path class="st4" d="M910.7,407v1.5h-5l-0.5,3.3c0.3,0,0.7-0.1,1.1-0.1c1.1,0,2,0.2,2.8,0.7c0.5,0.3,1,0.7,1.3,1.3s0.5,1.2,0.5,2
				c0,1.3-0.5,2.3-1.4,3.2s-2.1,1.3-3.5,1.3c-0.7,0-1.3-0.1-1.8-0.2s-1-0.3-1.4-0.6l0.4-1.3c0.3,0.2,0.7,0.4,1.2,0.5s1,0.2,1.6,0.2
				c0.9,0,1.6-0.3,2.2-0.8s0.9-1.2,0.9-2c0-0.9-0.3-1.6-0.9-2.1s-1.5-0.8-2.8-0.8c-0.5,0-1.1,0-1.8,0.1l0.8-6.2H910.7z"/>
			<path class="st4" d="M913.4,407h8.2v1.2L916,420h-1.8l5.6-11.5v0h-6.4V407z"/>
		</g>
	</g>
	<g>
		<g>
			<path d="M56.9,623.8v-11.4h0l-2.3,1.2l-0.3-1.3l2.8-1.5h1.5v13H56.9z"/>
			<path d="M63.5,610.8h8.2v1.2l-5.7,11.8h-1.8l5.6-11.5v0h-6.4V610.8z"/>
			<path d="M85.5,610.8v1.5h-5l-0.5,3.3c0.3,0,0.7-0.1,1.1-0.1c1.1,0,2,0.2,2.8,0.7c0.5,0.3,1,0.7,1.3,1.3s0.5,1.2,0.5,2
				c0,1.3-0.5,2.3-1.4,3.2S82.4,624,81,624c-0.7,0-1.3-0.1-1.8-0.2s-1-0.3-1.4-0.6l0.4-1.3c0.3,0.2,0.7,0.4,1.2,0.5s1,0.2,1.6,0.2
				c0.9,0,1.6-0.3,2.2-0.8s0.9-1.2,0.9-2c0-0.9-0.3-1.6-0.9-2.1s-1.5-0.8-2.8-0.8c-0.5,0-1.1,0-1.8,0.1l0.8-6.2H85.5z"/>
			<path d="M89.1,624v-1.4c0.3,0,0.7,0,1.4-0.1c1.1-0.1,2-0.6,2.7-1.3c0.9-0.8,1.5-2,1.7-3.4h-0.1c-0.8,0.9-1.8,1.4-3.1,1.4
				c-1.1,0-2.1-0.4-2.8-1.1s-1.1-1.7-1.1-2.8c0-0.8,0.2-1.6,0.5-2.3s0.9-1.3,1.6-1.7s1.5-0.6,2.3-0.6c1.3,0,2.4,0.5,3.1,1.5
				s1.2,2.3,1.2,4c0,1.3-0.2,2.5-0.6,3.6s-0.9,1.9-1.6,2.5c-0.5,0.5-1.1,0.9-1.7,1.2s-1.4,0.5-2.1,0.6C90.1,624,89.6,624,89.1,624z
				 M92.2,611.9c-0.7,0-1.4,0.3-1.8,0.9s-0.7,1.4-0.7,2.3c0,0.8,0.2,1.5,0.7,2s1.1,0.8,1.8,0.8c0.6,0,1.1-0.1,1.5-0.4s0.8-0.6,1-1
				c0.1-0.2,0.2-0.4,0.2-0.7c0-1.2-0.2-2.1-0.7-2.8S93.1,611.9,92.2,611.9z"/>
			<path d="M98.2,623.2l0.5-1.3c0.3,0.2,0.7,0.4,1.3,0.5s1.1,0.3,1.6,0.3c0.5,0,1-0.1,1.4-0.2s0.7-0.4,0.9-0.6s0.4-0.5,0.5-0.8
				s0.1-0.6,0.1-0.9c0-0.4-0.1-0.8-0.3-1.2s-0.4-0.6-0.8-0.8s-0.7-0.4-1.1-0.5s-0.8-0.2-1.2-0.2h-1v-1.3h1c0.5,0,0.9-0.1,1.3-0.2
				s0.8-0.4,1.1-0.7s0.5-0.8,0.5-1.2c0-0.6-0.2-1-0.6-1.4s-0.9-0.6-1.7-0.6c-0.5,0-0.9,0.1-1.4,0.3s-0.9,0.4-1.2,0.6l-0.5-1.3
				c0.4-0.3,0.9-0.5,1.5-0.7s1.3-0.3,1.9-0.3c1.2,0,2.1,0.3,2.8,0.9s1,1.3,1,2.2c0,0.7-0.2,1.3-0.6,1.8s-1,0.9-1.8,1.2v0
				c0.8,0.2,1.5,0.5,2.1,1.1s0.8,1.3,0.8,2.2c0,0.5-0.1,1-0.3,1.5s-0.5,0.9-0.9,1.2s-0.9,0.6-1.5,0.9s-1.3,0.3-2,0.3
				c-0.7,0-1.3-0.1-1.9-0.3S98.6,623.4,98.2,623.2z"/>
		</g>
		<g>
			<path d="M70.4,298.3h-1.7v-3.6h-6v-1.1l5.8-8.3h1.9v8.1h1.8v1.4h-1.8V298.3z M64.5,293.4h4.3v-4.3c0-0.7,0-1.4,0.1-2h-0.1
				c-0.4,0.7-0.7,1.4-1.1,1.9L64.5,293.4L64.5,293.4z"/>
			<path d="M78,285.3h8.2v1.2l-5.7,11.8h-1.8l5.6-11.5v0H78V285.3z"/>
			<path d="M95.5,285.1v1.4c-0.3,0-0.8,0-1.3,0.1c-0.7,0.1-1.3,0.3-1.8,0.6s-1,0.6-1.4,1.1s-0.7,0.9-0.9,1.4s-0.4,1-0.4,1.6h0
				c0.3-0.4,0.8-0.8,1.3-1.1s1.2-0.4,1.8-0.4c1.2,0,2.1,0.4,2.8,1.2s1.1,1.8,1.1,3c0,0.6-0.1,1.2-0.3,1.7s-0.5,1-0.8,1.5
				s-0.8,0.8-1.4,1s-1.2,0.4-1.8,0.4c-1.4,0-2.5-0.5-3.3-1.5s-1.2-2.4-1.2-4c0-1.2,0.2-2.4,0.6-3.4s0.9-1.8,1.6-2.5
				c1.1-1.1,2.5-1.7,4.2-1.9C94.7,285.2,95.1,285.1,95.5,285.1z M92.4,297.2c0.7,0,1.4-0.3,1.8-0.9s0.7-1.3,0.7-2.3
				c0-0.9-0.2-1.6-0.7-2.2s-1.1-0.8-2-0.8c-0.5,0-1,0.1-1.5,0.4s-0.8,0.7-1.1,1.2c-0.1,0.2-0.2,0.5-0.2,0.8c0,1.1,0.3,2,0.8,2.7
				S91.5,297.2,92.4,297.2z"/>
			<path d="M99.3,298.5v-1.4c0.3,0,0.7,0,1.4-0.1c1.1-0.1,2-0.6,2.7-1.3c0.9-0.8,1.5-2,1.7-3.4h-0.1c-0.8,0.9-1.8,1.4-3.1,1.4
				c-1.1,0-2.1-0.4-2.8-1.1s-1.1-1.7-1.1-2.8c0-0.8,0.2-1.6,0.5-2.3s0.9-1.3,1.6-1.7s1.5-0.6,2.3-0.6c1.3,0,2.4,0.5,3.1,1.5
				s1.2,2.3,1.2,4c0,1.3-0.2,2.5-0.6,3.6s-0.9,1.9-1.6,2.5c-0.5,0.5-1.1,0.9-1.7,1.2s-1.4,0.5-2.1,0.6
				C100.4,298.5,99.8,298.5,99.3,298.5z M102.5,286.4c-0.7,0-1.4,0.3-1.8,0.9s-0.7,1.4-0.7,2.3c0,0.8,0.2,1.5,0.7,2s1.1,0.8,1.8,0.8
				c0.6,0,1.1-0.1,1.5-0.4s0.8-0.6,1-1c0.1-0.2,0.2-0.4,0.2-0.7c0-1.2-0.2-2.1-0.7-2.8S103.4,286.4,102.5,286.4z"/>
		</g>
		<g>
			<path class="st4" d="M84.9,221.5h-1.7V218h-6v-1.1l5.8-8.3h1.9v8.1h1.8v1.4h-1.8V221.5z M79,216.6h4.3v-4.3c0-0.7,0-1.4,0.1-2
				h-0.1c-0.4,0.7-0.7,1.4-1.1,1.9L79,216.6L79,216.6z"/>
			<path class="st4" d="M95.5,208.3v1.4c-0.3,0-0.8,0-1.3,0.1c-0.7,0.1-1.3,0.3-1.8,0.6s-1,0.6-1.4,1.1s-0.7,0.9-0.9,1.4
				s-0.4,1-0.4,1.6h0c0.3-0.4,0.8-0.8,1.3-1.1s1.2-0.4,1.8-0.4c1.2,0,2.1,0.4,2.8,1.2s1.1,1.8,1.1,3c0,0.6-0.1,1.2-0.3,1.7
				s-0.5,1-0.8,1.5s-0.8,0.8-1.4,1s-1.2,0.4-1.8,0.4c-1.4,0-2.5-0.5-3.3-1.5s-1.2-2.4-1.2-4c0-1.2,0.2-2.4,0.6-3.4s0.9-1.8,1.6-2.5
				c1.1-1.1,2.5-1.7,4.2-1.9C94.7,208.4,95.1,208.3,95.5,208.3z M92.4,220.4c0.7,0,1.4-0.3,1.8-0.9s0.7-1.3,0.7-2.3
				c0-0.9-0.2-1.6-0.7-2.2s-1.1-0.8-2-0.8c-0.5,0-1,0.1-1.5,0.4s-0.8,0.7-1.1,1.2c-0.1,0.2-0.2,0.5-0.2,0.8c0,1.1,0.3,2,0.8,2.7
				S91.5,220.4,92.4,220.4z"/>
			<path class="st4" d="M105.4,221.5h-1.7V218h-6v-1.1l5.8-8.3h1.9v8.1h1.8v1.4h-1.8V221.5z M99.5,216.6h4.3v-4.3c0-0.7,0-1.4,0.1-2
				h-0.1c-0.4,0.7-0.7,1.4-1.1,1.9L99.5,216.6L99.5,216.6z"/>
		</g>
	</g>
	<g>
		<g>
			<path d="M123.1,610.3h7.2v1.5h-5.4v12h-1.8V610.3z"/>
			<path d="M130.3,627.8v-10.5c0-0.7,0-1.8-0.1-3.2h1.6l0.1,1.7h0c0.7-1.2,1.9-1.9,3.4-1.9c1.2,0,2.2,0.5,3,1.4s1.2,2.1,1.2,3.5
				c0,0.8-0.1,1.6-0.4,2.3s-0.6,1.2-1,1.6s-0.9,0.7-1.4,1s-1.1,0.3-1.7,0.3c-0.6,0-1.2-0.1-1.8-0.4s-0.9-0.6-1.2-1.1h0v5.3H130.3z
				 M132.1,618.2v1.7c0,0.3,0,0.5,0.1,0.7c0.2,0.6,0.5,1.1,1,1.5s1,0.6,1.7,0.6c0.9,0,1.6-0.3,2.2-1s0.8-1.6,0.8-2.7
				c0-1-0.3-1.9-0.8-2.5s-1.2-1-2.1-1c-0.6,0-1.2,0.2-1.7,0.6s-0.8,0.9-1,1.6C132.1,617.8,132.1,618,132.1,618.2z"/>
			<path d="M148.5,617.9v3.6c0,0.9,0,1.7,0.1,2.3h-1.6l-0.1-1.2h-0.1c-0.3,0.4-0.7,0.8-1.2,1s-1.1,0.4-1.7,0.4
				c-0.6,0-1.2-0.1-1.6-0.4s-0.8-0.6-1-1s-0.3-0.9-0.3-1.3c0-1.2,0.5-2.1,1.5-2.7s2.4-0.9,4.3-0.9v-0.2c0-0.2,0-0.4,0-0.5
				s-0.1-0.4-0.2-0.6s-0.2-0.4-0.4-0.6s-0.4-0.3-0.6-0.4s-0.6-0.2-1-0.2c-1,0-1.8,0.2-2.5,0.7l-0.4-1.2c0.4-0.3,0.9-0.5,1.5-0.6
				s1.1-0.2,1.7-0.2c0.6,0,1.1,0.1,1.5,0.2s0.8,0.4,1.1,0.6s0.5,0.5,0.7,0.9s0.3,0.7,0.4,1.1S148.5,617.5,148.5,617.9z M146.8,620.6
				v-1.7c-2.7-0.1-4.1,0.7-4.1,2.2c0,0.6,0.2,1,0.5,1.3s0.7,0.4,1.2,0.4c0.6,0,1.1-0.2,1.5-0.5s0.7-0.7,0.9-1.1
				C146.8,620.9,146.8,620.8,146.8,620.6z"/>
			<path d="M158.7,609.4l-0.1,1.5c-0.4,0.1-1.1,0.3-2,0.4c-1.6,0.3-2.8,0.9-3.5,1.8c-0.3,0.4-0.5,0.9-0.7,1.5s-0.3,1.2-0.4,1.7h0.1
				c0.3-0.7,0.8-1.2,1.4-1.6s1.3-0.6,2-0.6c1.2,0,2.2,0.4,3,1.3s1.1,2,1.1,3.5c0,1.6-0.4,2.9-1.2,3.8s-1.9,1.4-3.3,1.4
				c-0.7,0-1.2-0.1-1.8-0.4s-1-0.6-1.3-1s-0.6-0.9-0.8-1.5s-0.4-1.2-0.5-1.8s-0.1-1.2-0.1-1.9c0-2.3,0.5-4.1,1.5-5.4
				c0.4-0.7,1-1.2,1.7-1.5s1.5-0.6,2.5-0.8C157.5,609.7,158.3,609.6,158.7,609.4z M157.9,619c0-0.4,0-0.8-0.1-1.2s-0.2-0.8-0.4-1.1
				s-0.5-0.7-0.8-0.9s-0.8-0.3-1.3-0.3c-0.5,0-0.9,0.1-1.3,0.4s-0.7,0.6-0.9,1c-0.3,0.6-0.5,1.3-0.5,2.1c0,0.4,0.1,0.9,0.2,1.3
				s0.3,0.9,0.5,1.3s0.5,0.7,0.9,1s0.8,0.4,1.2,0.4c0.5,0,0.9-0.1,1.2-0.3s0.6-0.5,0.8-0.9s0.3-0.8,0.4-1.2S157.9,619.5,157.9,619z"
				/>
			<path d="M169.7,619.3h-6.8c0,1.1,0.3,2,1,2.5s1.4,0.8,2.4,0.8c1,0,1.9-0.2,2.7-0.5l0.3,1.3c-0.9,0.4-2,0.6-3.2,0.6
				c-1.5,0-2.6-0.4-3.5-1.3s-1.3-2.1-1.3-3.6c0-1,0.2-1.9,0.5-2.6s0.9-1.4,1.6-1.9s1.5-0.7,2.4-0.7c0.6,0,1.1,0.1,1.6,0.3
				s0.9,0.5,1.2,0.8s0.5,0.7,0.7,1.1s0.3,0.8,0.4,1.2s0.1,0.8,0.1,1.2C169.7,618.8,169.7,619.1,169.7,619.3z M162.9,618h5.1
				c0-0.2,0-0.5-0.1-0.7s-0.1-0.5-0.2-0.8s-0.3-0.5-0.4-0.7s-0.4-0.4-0.7-0.5s-0.6-0.2-1-0.2c-0.4,0-0.8,0.1-1.2,0.3
				s-0.6,0.4-0.8,0.7s-0.4,0.6-0.5,0.9S162.9,617.7,162.9,618z"/>
			<path d="M170.7,614.1h2l3.2,4.2h0.3v-4.2h1.7v4.2h0.3l3.2-4.2h2l-3.8,4.4c0.7,0.1,1.3,0.3,1.8,0.7s0.8,1,1.1,1.8
				c0.1,0.1,0.1,0.4,0.2,0.7s0.2,0.6,0.3,0.8s0.1,0.4,0.3,0.6s0.2,0.5,0.3,0.6h-1.8c-0.2-0.4-0.5-1.2-0.9-2.2
				c-0.3-0.8-0.7-1.3-1.1-1.6s-1-0.5-1.7-0.5H178v4.3h-1.7v-4.3H176c-0.7,0-1.3,0.2-1.7,0.5s-0.8,0.8-1.1,1.6
				c-0.5,1.2-0.8,1.9-0.9,2.2h-1.7c0.1-0.2,0.2-0.5,0.4-0.8s0.3-0.6,0.4-1.1s0.3-0.7,0.3-0.8c0.3-0.8,0.7-1.4,1.1-1.8s1-0.7,1.8-0.7
				L170.7,614.1z"/>
			<path d="M185.2,614.1h1.7v4.1c0,1.2,0,2.5-0.1,3.9l0.1,0c0.7-1.4,1.2-2.4,1.6-3l3-5h2.1v9.7h-1.7v-4.1c0-1.1,0-2.4,0.1-4h0
				c-0.7,1.4-1.3,2.4-1.6,3c-0.1,0.2-1.1,1.9-3,5.1h-2V614.1z"/>
			<path d="M196.4,626.2l-1.2,0.1c0.2-0.6,0.4-1.4,0.7-2.3s0.4-1.8,0.5-2.5l2-0.2c-0.2,0.8-0.6,1.8-0.9,2.7S196.7,625.7,196.4,626.2
				z"/>
			<path d="M204.7,614.1h1.7v4.2h0.4l3.6-4.2h2.1l-4.2,4.4c0.7,0.1,1.4,0.4,1.9,0.9s1,1.2,1.4,2.1c0,0.1,0.1,0.3,0.3,0.7
				s0.3,0.7,0.4,1s0.2,0.5,0.4,0.7h-1.8c-0.2-0.3-0.5-1-0.9-2c-0.3-0.8-0.8-1.4-1.2-1.7s-1.1-0.5-1.9-0.5h-0.3v4.3h-1.7V614.1z"/>
			<path d="M214.3,627.8v-10.5c0-0.7,0-1.8-0.1-3.2h1.6l0.1,1.7h0c0.7-1.2,1.9-1.9,3.4-1.9c1.2,0,2.2,0.5,3,1.4s1.2,2.1,1.2,3.5
				c0,0.8-0.1,1.6-0.4,2.3s-0.6,1.2-1,1.6s-0.9,0.7-1.4,1s-1.1,0.3-1.7,0.3c-0.6,0-1.2-0.1-1.8-0.4s-0.9-0.6-1.2-1.1h0v5.3H214.3z
				 M216,618.2v1.7c0,0.3,0,0.5,0.1,0.7c0.2,0.6,0.5,1.1,1,1.5s1,0.6,1.7,0.6c0.9,0,1.6-0.3,2.2-1s0.8-1.6,0.8-2.7
				c0-1-0.3-1.9-0.8-2.5s-1.2-1-2.1-1c-0.6,0-1.2,0.2-1.7,0.6s-0.8,0.9-1,1.6C216.1,617.8,216,618,216,618.2z"/>
			<path d="M232.5,617.9v3.6c0,0.9,0,1.7,0.1,2.3H231l-0.1-1.2h-0.1c-0.3,0.4-0.7,0.8-1.2,1s-1.1,0.4-1.7,0.4
				c-0.6,0-1.2-0.1-1.6-0.4s-0.8-0.6-1-1s-0.3-0.9-0.3-1.3c0-1.2,0.5-2.1,1.5-2.7s2.4-0.9,4.3-0.9v-0.2c0-0.2,0-0.4,0-0.5
				s-0.1-0.4-0.2-0.6s-0.2-0.4-0.4-0.6s-0.4-0.3-0.6-0.4s-0.6-0.2-1-0.2c-1,0-1.8,0.2-2.5,0.7l-0.4-1.2c0.4-0.3,0.9-0.5,1.5-0.6
				s1.1-0.2,1.7-0.2c0.6,0,1.1,0.1,1.5,0.2s0.8,0.4,1.1,0.6s0.5,0.5,0.7,0.9s0.3,0.7,0.4,1.1S232.5,617.5,232.5,617.9z M230.8,620.6
				v-1.7c-2.7-0.1-4.1,0.7-4.1,2.2c0,0.6,0.2,1,0.5,1.3s0.7,0.4,1.2,0.4c0.6,0,1.1-0.2,1.5-0.5s0.7-0.7,0.9-1.1
				C230.7,620.9,230.8,620.8,230.8,620.6z"/>
			<path d="M234.1,614.1h2l3.2,4.2h0.3v-4.2h1.7v4.2h0.3l3.2-4.2h2l-3.8,4.4c0.7,0.1,1.3,0.3,1.8,0.7s0.8,1,1.1,1.8
				c0.1,0.1,0.1,0.4,0.2,0.7s0.2,0.6,0.3,0.8s0.1,0.4,0.3,0.6s0.2,0.5,0.3,0.6h-1.8c-0.2-0.4-0.5-1.2-0.9-2.2
				c-0.3-0.8-0.7-1.3-1.1-1.6s-1-0.5-1.7-0.5h-0.3v4.3h-1.7v-4.3h-0.3c-0.7,0-1.3,0.2-1.7,0.5s-0.8,0.8-1.1,1.6
				c-0.5,1.2-0.8,1.9-0.9,2.2h-1.7c0.1-0.2,0.2-0.5,0.4-0.8s0.3-0.6,0.4-1.1s0.3-0.7,0.3-0.8c0.3-0.8,0.7-1.4,1.1-1.8s1-0.7,1.8-0.7
				L234.1,614.1z"/>
			<path d="M248.6,614.1h1.7v4.1c0,1.2,0,2.5-0.1,3.9l0.1,0c0.7-1.4,1.2-2.4,1.6-3l3-5h2.1v9.7h-1.7v-4.1c0-1.1,0-2.4,0.1-4h0
				c-0.7,1.4-1.3,2.4-1.6,3c-0.1,0.2-1.1,1.9-3,5.1h-2V614.1z"/>
			<path d="M263.9,614.1h1.7v4.1c0,1.2,0,2.5-0.1,3.9l0.1,0c0.7-1.4,1.2-2.4,1.6-3l3-5h2.1v9.7h-1.7v-4.1c0-1.1,0-2.4,0.1-4h0
				c-0.7,1.4-1.3,2.4-1.6,3c-0.1,0.2-1.1,1.9-3,5.1h-2V614.1z"/>
			<path d="M279.3,627.8v-10.5c0-0.7,0-1.8-0.1-3.2h1.6l0.1,1.7h0c0.7-1.2,1.9-1.9,3.4-1.9c1.2,0,2.2,0.5,3,1.4s1.2,2.1,1.2,3.5
				c0,0.8-0.1,1.6-0.4,2.3s-0.6,1.2-1,1.6s-0.9,0.7-1.4,1s-1.1,0.3-1.7,0.3c-0.6,0-1.2-0.1-1.8-0.4s-0.9-0.6-1.2-1.1h0v5.3H279.3z
				 M281,618.2v1.7c0,0.3,0,0.5,0.1,0.7c0.2,0.6,0.5,1.1,1,1.5s1,0.6,1.7,0.6c0.9,0,1.6-0.3,2.2-1s0.8-1.6,0.8-2.7
				c0-1-0.3-1.9-0.8-2.5s-1.2-1-2.1-1c-0.6,0-1.2,0.2-1.7,0.6s-0.8,0.9-1,1.6C281,617.8,281,618,281,618.2z"/>
			<path d="M297.4,617.9v3.6c0,0.9,0,1.7,0.1,2.3H296l-0.1-1.2h-0.1c-0.3,0.4-0.7,0.8-1.2,1s-1.1,0.4-1.7,0.4
				c-0.6,0-1.2-0.1-1.6-0.4s-0.8-0.6-1-1s-0.3-0.9-0.3-1.3c0-1.2,0.5-2.1,1.5-2.7s2.4-0.9,4.3-0.9v-0.2c0-0.2,0-0.4,0-0.5
				s-0.1-0.4-0.2-0.6s-0.2-0.4-0.4-0.6s-0.4-0.3-0.6-0.4s-0.6-0.2-1-0.2c-1,0-1.8,0.2-2.5,0.7l-0.4-1.2c0.4-0.3,0.9-0.5,1.5-0.6
				s1.1-0.2,1.7-0.2c0.6,0,1.1,0.1,1.5,0.2s0.8,0.4,1.1,0.6s0.5,0.5,0.7,0.9s0.3,0.7,0.4,1.1S297.4,617.5,297.4,617.9z M295.7,620.6
				v-1.7c-2.7-0.1-4.1,0.7-4.1,2.2c0,0.6,0.2,1,0.5,1.3s0.7,0.4,1.2,0.4c0.6,0,1.1-0.2,1.5-0.5s0.7-0.7,0.9-1.1
				C295.7,620.9,295.7,620.8,295.7,620.6z"/>
			<path d="M301.1,619.4l0-1.2h0.8c0.7,0,1.3-0.1,1.8-0.4s0.7-0.7,0.7-1.1c0-0.4-0.2-0.8-0.5-1s-0.8-0.4-1.4-0.4
				c-0.8,0-1.6,0.2-2.3,0.7l-0.4-1.1c1-0.6,2-0.9,3.2-0.9c0.3,0,0.6,0,0.9,0.1s0.6,0.1,0.9,0.3s0.5,0.3,0.8,0.5s0.4,0.4,0.5,0.7
				s0.2,0.6,0.2,1c0,0.6-0.2,1-0.6,1.4s-0.9,0.6-1.5,0.8v0c0.8,0.1,1.4,0.3,1.9,0.8s0.8,1,0.8,1.7c0,0.5-0.1,0.9-0.4,1.3
				s-0.6,0.7-1,0.9s-0.8,0.4-1.3,0.5s-1,0.2-1.5,0.2c-1.2,0-2.2-0.3-3.1-0.8l0.5-1.2c0.8,0.4,1.6,0.7,2.6,0.7c0.7,0,1.3-0.2,1.7-0.5
				s0.6-0.7,0.6-1.2c0-1.1-0.9-1.7-2.8-1.7H301.1z"/>
			<path d="M316.2,609.4l-0.1,1.5c-0.4,0.1-1.1,0.3-2,0.4c-1.6,0.3-2.8,0.9-3.5,1.8c-0.3,0.4-0.5,0.9-0.7,1.5s-0.3,1.2-0.4,1.7h0.1
				c0.3-0.7,0.8-1.2,1.4-1.6s1.3-0.6,2-0.6c1.2,0,2.2,0.4,3,1.3s1.1,2,1.1,3.5c0,1.6-0.4,2.9-1.2,3.8s-1.9,1.4-3.3,1.4
				c-0.7,0-1.2-0.1-1.8-0.4s-1-0.6-1.3-1s-0.6-0.9-0.8-1.5s-0.4-1.2-0.5-1.8s-0.1-1.2-0.1-1.9c0-2.3,0.5-4.1,1.5-5.4
				c0.4-0.7,1-1.2,1.7-1.5s1.5-0.6,2.5-0.8C314.9,609.7,315.7,609.6,316.2,609.4z M315.4,619c0-0.4,0-0.8-0.1-1.2s-0.2-0.8-0.4-1.1
				s-0.5-0.7-0.8-0.9s-0.8-0.3-1.3-0.3c-0.5,0-0.9,0.1-1.3,0.4s-0.7,0.6-0.9,1c-0.3,0.6-0.5,1.3-0.5,2.1c0,0.4,0.1,0.9,0.2,1.3
				s0.3,0.9,0.5,1.3s0.5,0.7,0.9,1s0.8,0.4,1.2,0.4c0.5,0,0.9-0.1,1.2-0.3s0.6-0.5,0.8-0.9s0.3-0.8,0.4-1.2S315.4,619.5,315.4,619z"
				/>
			<path d="M323.5,613.9c1.4,0,2.5,0.5,3.4,1.4s1.3,2.1,1.3,3.6c0,0.7-0.1,1.3-0.3,1.9s-0.4,1.1-0.7,1.5s-0.7,0.7-1.1,1
				s-0.9,0.5-1.3,0.6s-0.9,0.2-1.4,0.2c-1.3,0-2.4-0.5-3.3-1.4s-1.3-2.1-1.3-3.6c0-0.8,0.1-1.5,0.4-2.2s0.6-1.2,1-1.6s0.9-0.8,1.5-1
				S322.8,613.9,323.5,613.9z M324.7,615.6c-0.4-0.2-0.8-0.3-1.3-0.3s-0.9,0.1-1.3,0.3s-0.7,0.5-0.9,0.9s-0.4,0.8-0.5,1.2
				s-0.2,0.9-0.2,1.4c0,1.1,0.3,2,0.8,2.7s1.2,1.1,2.1,1.1c0.8,0,1.5-0.4,2.1-1.1s0.8-1.6,0.8-2.7c0-0.4-0.1-0.9-0.2-1.3
				s-0.3-0.8-0.5-1.2S325.1,615.8,324.7,615.6z"/>
			<path d="M330.3,614.1h1.7v4.1c0,1.2,0,2.5-0.1,3.9l0.1,0c0.7-1.4,1.2-2.4,1.6-3l3-5h2.1v9.7h-1.7v-4.1c0-1.1,0-2.4,0.1-4h0
				c-0.7,1.4-1.3,2.4-1.6,3c-0.1,0.2-1.1,1.9-3,5.1h-2V614.1z M331.8,610.2h1.3c0,0.4,0.2,0.8,0.4,1.1s0.5,0.4,0.9,0.4
				c0.4,0,0.7-0.1,0.9-0.4s0.4-0.6,0.4-1.1h1.3c0,0.8-0.3,1.4-0.8,1.8s-1.1,0.6-1.9,0.6c-0.8,0-1.4-0.2-1.8-0.7
				S331.9,610.9,331.8,610.2z"/>
		</g>
		<g>
			<path d="M128.5,284.6c1.2,0,2.3,0.3,3.2,0.9s1.6,1.4,2.1,2.4s0.7,2.2,0.7,3.5c0,1.1-0.2,2.1-0.5,3.1s-0.8,1.7-1.3,2.2
				s-1.2,1-2,1.3s-1.6,0.5-2.4,0.5c-1.2,0-2.2-0.3-3.2-0.9s-1.6-1.4-2.1-2.4s-0.8-2.2-0.8-3.6c0-1.1,0.2-2,0.5-2.9s0.7-1.6,1.3-2.2
				s1.2-1.1,2-1.4S127.6,284.6,128.5,284.6z M128.5,286c-0.7,0-1.3,0.2-1.9,0.5s-1,0.7-1.4,1.2s-0.6,1.1-0.8,1.8s-0.3,1.4-0.3,2.1
				c0,0.7,0.1,1.4,0.3,2.1s0.5,1.2,0.8,1.7s0.8,0.9,1.4,1.2s1.2,0.4,1.8,0.4c0.9,0,1.7-0.3,2.3-0.8s1.2-1.2,1.5-2s0.5-1.8,0.5-2.8
				c0-0.5-0.1-1.1-0.2-1.6s-0.3-1-0.5-1.5s-0.5-0.9-0.8-1.2s-0.7-0.6-1.2-0.8S129,286,128.5,286z"/>
			<path d="M143.5,296.7l0.3,1.3c-0.8,0.4-1.7,0.6-2.8,0.6c-1.5,0-2.6-0.5-3.5-1.4s-1.3-2.1-1.3-3.6c0-1.5,0.5-2.7,1.4-3.7
				s2.2-1.5,3.8-1.5c0.5,0,0.9,0.1,1.4,0.2s0.8,0.2,1.1,0.4l-0.4,1.3c-0.6-0.3-1.3-0.5-2-0.5c-1.1,0-1.9,0.3-2.5,1s-0.9,1.6-0.9,2.6
				c0,1.1,0.3,2,0.9,2.6s1.4,1,2.4,1C142.1,297.1,142.8,297,143.5,296.7z"/>
			<path d="M144.9,288.6h7.8v1.4h-3v8.3h-1.8V290h-3V288.6z"/>
			<path d="M160.9,292.4v3.6c0,0.9,0,1.7,0.1,2.3h-1.6l-0.1-1.2h-0.1c-0.3,0.4-0.7,0.8-1.2,1s-1.1,0.4-1.7,0.4
				c-0.6,0-1.2-0.1-1.6-0.4s-0.8-0.6-1-1s-0.3-0.9-0.3-1.3c0-1.2,0.5-2.1,1.5-2.7s2.4-0.9,4.3-0.9V292c0-0.2,0-0.4,0-0.5
				s-0.1-0.4-0.2-0.6s-0.2-0.4-0.4-0.6s-0.4-0.3-0.6-0.4s-0.6-0.2-1-0.2c-1,0-1.8,0.2-2.5,0.7l-0.4-1.2c0.4-0.3,0.9-0.5,1.5-0.6
				s1.1-0.2,1.7-0.2c0.6,0,1.1,0.1,1.5,0.2s0.8,0.4,1.1,0.6s0.5,0.5,0.7,0.9s0.3,0.7,0.4,1.1S160.9,292,160.9,292.4z M159.2,295.1
				v-1.7c-2.7-0.1-4.1,0.7-4.1,2.2c0,0.6,0.2,1,0.5,1.3s0.7,0.4,1.2,0.4c0.6,0,1.1-0.2,1.5-0.5s0.7-0.7,0.9-1.1
				C159.1,295.4,159.2,295.3,159.2,295.1z"/>
			<path d="M164.4,288.6h6.7v9.7h-1.8V290H166v2.5c0,1.5-0.1,2.7-0.3,3.5s-0.6,1.5-1.2,1.9c-0.5,0.4-1.1,0.6-1.9,0.6l-0.2-1.4
				c0.4-0.1,0.7-0.2,1-0.4c0.4-0.3,0.7-0.8,0.8-1.4s0.2-1.6,0.2-2.8V288.6z"/>
			<path d="M173.9,288.6h1.8v3.3c0.5-0.1,1-0.1,1.6-0.1c0.4,0,0.7,0,1.1,0.1s0.7,0.1,1,0.2s0.7,0.2,0.9,0.4s0.5,0.4,0.7,0.6
				s0.4,0.5,0.5,0.9s0.2,0.7,0.2,1.1c0,0.9-0.3,1.7-1,2.2c-0.9,0.7-2.3,1.1-4.2,1.1c-0.9,0-1.7,0-2.6-0.1V288.6z M175.6,293.2v3.9
				c0.3,0.1,0.8,0.1,1.3,0.1c0.4,0,0.7,0,1-0.1s0.6-0.2,1-0.3s0.6-0.4,0.7-0.6s0.3-0.6,0.3-1c0-0.3-0.1-0.6-0.2-0.9
				s-0.3-0.5-0.5-0.6s-0.4-0.3-0.7-0.4s-0.6-0.2-0.8-0.2s-0.5,0-0.8,0C176.5,293.1,176.1,293.1,175.6,293.2z"/>
			<path d="M183.8,288.6h1.8v3.9h4.6v-3.9h1.8v9.7h-1.8v-4.4h-4.6v4.4h-1.8V288.6z"/>
			<path d="M194.8,288.6h1.8v3.3c0.5-0.1,1-0.1,1.6-0.1c0.4,0,0.8,0,1.2,0.1s0.8,0.2,1.1,0.4s0.7,0.4,0.9,0.6s0.5,0.6,0.6,0.9
				s0.2,0.8,0.2,1.3c0,0.9-0.3,1.7-1,2.2c-0.9,0.7-2.2,1.1-3.9,1.1c-0.9,0-1.7,0-2.6-0.1V288.6z M196.5,293.2v3.9
				c0.3,0.1,0.7,0.1,1.2,0.1c0.4,0,0.7,0,1-0.1s0.6-0.2,0.9-0.3s0.5-0.4,0.7-0.6s0.2-0.6,0.2-1c0-0.4-0.1-0.7-0.2-1
				s-0.4-0.5-0.6-0.6s-0.6-0.3-0.9-0.3s-0.6-0.1-1-0.1C197.3,293.1,196.9,293.1,196.5,293.2z M203.5,288.6h1.7v9.7h-1.7V288.6z"/>
			<path d="M215.9,293.8h-6.8c0,1.1,0.3,2,1,2.5s1.4,0.8,2.4,0.8c1,0,1.9-0.2,2.7-0.5l0.3,1.3c-0.9,0.4-2,0.6-3.2,0.6
				c-1.5,0-2.6-0.4-3.5-1.3s-1.3-2.1-1.3-3.6c0-1,0.2-1.9,0.5-2.6s0.9-1.4,1.6-1.9s1.5-0.7,2.4-0.7c0.6,0,1.1,0.1,1.6,0.3
				s0.9,0.5,1.2,0.8s0.5,0.7,0.7,1.1s0.3,0.8,0.4,1.2s0.1,0.8,0.1,1.2C216,293.3,215.9,293.6,215.9,293.8z M209.1,292.5h5.1
				c0-0.2,0-0.5-0.1-0.7s-0.1-0.5-0.2-0.8s-0.3-0.5-0.4-0.7s-0.4-0.4-0.7-0.5s-0.6-0.2-1-0.2c-0.4,0-0.8,0.1-1.2,0.3
				s-0.6,0.4-0.8,0.7s-0.4,0.6-0.5,0.9S209.2,292.2,209.1,292.5z"/>
			<path d="M229,296.7l0.3,1.3c-0.8,0.4-1.7,0.6-2.8,0.6c-1.5,0-2.6-0.5-3.5-1.4s-1.3-2.1-1.3-3.6c0-1.5,0.5-2.7,1.4-3.7
				s2.2-1.5,3.8-1.5c0.5,0,0.9,0.1,1.4,0.2s0.8,0.2,1.1,0.4l-0.4,1.3c-0.6-0.3-1.3-0.5-2-0.5c-1.1,0-1.9,0.3-2.5,1s-0.9,1.6-0.9,2.6
				c0,1.1,0.3,2,0.9,2.6s1.4,1,2.4,1C227.6,297.1,228.3,297,229,296.7z"/>
			<path d="M235.3,288.4c1.4,0,2.5,0.5,3.4,1.4s1.3,2.1,1.3,3.6c0,0.7-0.1,1.3-0.3,1.9s-0.4,1.1-0.7,1.5s-0.7,0.7-1.1,1
				s-0.9,0.5-1.3,0.6s-0.9,0.2-1.4,0.2c-1.3,0-2.4-0.5-3.3-1.4s-1.3-2.1-1.3-3.6c0-0.8,0.1-1.5,0.4-2.2s0.6-1.2,1-1.6s0.9-0.8,1.5-1
				S234.6,288.4,235.3,288.4z M236.6,290.1c-0.4-0.2-0.8-0.3-1.3-0.3s-0.9,0.1-1.3,0.3s-0.7,0.5-0.9,0.9s-0.4,0.8-0.5,1.2
				s-0.2,0.9-0.2,1.4c0,1.1,0.3,2,0.8,2.7s1.2,1.1,2.1,1.1c0.8,0,1.5-0.4,2.1-1.1s0.8-1.6,0.8-2.7c0-0.4-0.1-0.9-0.2-1.3
				s-0.3-0.8-0.5-1.2S237,290.3,236.6,290.1z"/>
			<path d="M248.8,296.7l0.3,1.3c-0.8,0.4-1.7,0.6-2.8,0.6c-1.5,0-2.6-0.5-3.5-1.4s-1.3-2.1-1.3-3.6c0-1.5,0.5-2.7,1.4-3.7
				s2.2-1.5,3.8-1.5c0.5,0,0.9,0.1,1.4,0.2s0.8,0.2,1.1,0.4l-0.4,1.3c-0.6-0.3-1.3-0.5-2-0.5c-1.1,0-1.9,0.3-2.5,1s-0.9,1.6-0.9,2.6
				c0,1.1,0.3,2,0.9,2.6s1.4,1,2.4,1C247.4,297.1,248.1,297,248.8,296.7z"/>
			<path d="M250.2,288.6h7.8v1.4h-3v8.3h-1.8V290h-3V288.6z"/>
			<path d="M266.2,292.4v3.6c0,0.9,0,1.7,0.1,2.3h-1.6l-0.1-1.2h-0.1c-0.3,0.4-0.7,0.8-1.2,1s-1.1,0.4-1.7,0.4
				c-0.6,0-1.2-0.1-1.6-0.4s-0.8-0.6-1-1s-0.3-0.9-0.3-1.3c0-1.2,0.5-2.1,1.5-2.7s2.4-0.9,4.3-0.9V292c0-0.2,0-0.4,0-0.5
				s-0.1-0.4-0.2-0.6s-0.2-0.4-0.4-0.6s-0.4-0.3-0.6-0.4s-0.6-0.2-1-0.2c-1,0-1.8,0.2-2.5,0.7l-0.4-1.2c0.4-0.3,0.9-0.5,1.5-0.6
				s1.1-0.2,1.7-0.2c0.6,0,1.1,0.1,1.5,0.2s0.8,0.4,1.1,0.6s0.5,0.5,0.7,0.9s0.3,0.7,0.4,1.1S266.2,292,266.2,292.4z M264.5,295.1
				v-1.7c-2.7-0.1-4.1,0.7-4.1,2.2c0,0.6,0.2,1,0.5,1.3s0.7,0.4,1.2,0.4c0.6,0,1.1-0.2,1.5-0.5s0.7-0.7,0.9-1.1
				C264.5,295.4,264.5,295.3,264.5,295.1z"/>
			<path d="M269,298.3v-9.6c0.9-0.1,1.9-0.2,3.1-0.2c0.4,0,0.7,0,1.1,0s0.7,0.1,1.1,0.2s0.8,0.2,1.1,0.4s0.5,0.4,0.7,0.7
				s0.3,0.7,0.3,1.1c0,0.6-0.2,1.1-0.6,1.4s-0.9,0.6-1.5,0.8v0c0.7,0.1,1.3,0.4,1.8,0.8s0.7,0.9,0.7,1.6c0,0.4-0.1,0.8-0.2,1.1
				s-0.4,0.6-0.7,0.8s-0.6,0.4-0.9,0.5s-0.7,0.2-1.1,0.3s-0.8,0.1-1.1,0.1s-0.7,0-1,0C270.9,298.4,270,298.4,269,298.3z
				 M270.6,293.9v3.3c0.5,0,1,0.1,1.4,0.1c0.3,0,0.7,0,1-0.1s0.6-0.1,0.9-0.2s0.6-0.3,0.8-0.5s0.3-0.5,0.3-0.9
				c0-0.3-0.1-0.6-0.2-0.9s-0.4-0.4-0.7-0.5s-0.6-0.2-1-0.2s-0.7-0.1-1.2-0.1H270.6z M270.7,289.8v2.9h1.3c0.3,0,0.7,0,1-0.1
				s0.6-0.1,0.8-0.3s0.5-0.3,0.6-0.5s0.2-0.4,0.2-0.7c0-1-0.9-1.4-2.6-1.4C271.7,289.8,271.3,289.8,270.7,289.8z"/>
			<path d="M279,288.6h1.8v3.3c0.5-0.1,1-0.1,1.6-0.1c0.4,0,0.8,0,1.2,0.1s0.8,0.2,1.1,0.4s0.7,0.4,0.9,0.6s0.5,0.6,0.6,0.9
				s0.2,0.8,0.2,1.3c0,0.9-0.3,1.7-1,2.2c-0.9,0.7-2.2,1.1-3.9,1.1c-0.9,0-1.7,0-2.6-0.1V288.6z M280.7,293.2v3.9
				c0.3,0.1,0.7,0.1,1.2,0.1c0.4,0,0.7,0,1-0.1s0.6-0.2,0.9-0.3s0.5-0.4,0.7-0.6s0.2-0.6,0.2-1c0-0.4-0.1-0.7-0.2-1
				s-0.4-0.5-0.6-0.6s-0.6-0.3-0.9-0.3s-0.6-0.1-1-0.1C281.5,293.1,281.1,293.1,280.7,293.2z M287.7,288.6h1.7v9.7h-1.7V288.6z"/>
		</g>
		<g>
			<rect x="121.6" y="292.4" class="st0" width="625" height="68.1"/>
			<text transform="matrix(1 0 0 1 121.5559 306.5597)" class="st12 st13 st14">Терроризм, экстремизм и нападения на полицейских</text>
			<g>
				<path class="st4" d="M125.6,193.2v-12h-4.1v-1.5h10v1.5h-4.1v12H125.6z"/>
				<path class="st4" d="M138.9,188.7h-6.8c0,1.1,0.3,2,1,2.5s1.4,0.8,2.4,0.8c1,0,1.9-0.2,2.7-0.5l0.3,1.3c-0.9,0.4-2,0.6-3.2,0.6
					c-1.5,0-2.6-0.4-3.5-1.3s-1.3-2.1-1.3-3.6c0-1,0.2-1.9,0.5-2.6s0.9-1.4,1.6-1.9s1.5-0.7,2.4-0.7c0.6,0,1.1,0.1,1.6,0.3
					s0.9,0.5,1.2,0.8s0.5,0.7,0.7,1.1s0.3,0.8,0.4,1.2s0.1,0.8,0.1,1.2C138.9,188.2,138.9,188.5,138.9,188.7z M132.1,187.4h5.1
					c0-0.2,0-0.5-0.1-0.7s-0.1-0.5-0.2-0.8s-0.3-0.5-0.4-0.7s-0.4-0.4-0.7-0.5s-0.6-0.2-1-0.2c-0.4,0-0.8,0.1-1.2,0.3
					s-0.6,0.4-0.8,0.7s-0.4,0.6-0.5,0.9S132.2,187.1,132.1,187.4z"/>
				<path class="st4" d="M141.1,197.2v-10.5c0-0.7,0-1.8-0.1-3.2h1.6l0.1,1.7h0c0.7-1.2,1.9-1.9,3.4-1.9c1.2,0,2.2,0.5,3,1.4
					s1.2,2.1,1.2,3.5c0,0.8-0.1,1.6-0.4,2.3s-0.6,1.2-1,1.6s-0.9,0.7-1.4,1s-1.1,0.3-1.7,0.3c-0.6,0-1.2-0.1-1.8-0.4
					s-0.9-0.6-1.2-1.1h0v5.3H141.1z M142.9,187.6v1.7c0,0.3,0,0.5,0.1,0.7c0.2,0.6,0.5,1.1,1,1.5s1,0.6,1.7,0.6c0.9,0,1.6-0.3,2.2-1
					s0.8-1.6,0.8-2.7c0-1-0.3-1.9-0.8-2.5s-1.2-1-2.1-1c-0.6,0-1.2,0.2-1.7,0.6s-0.8,0.9-1,1.6C142.9,187.2,142.9,187.4,142.9,187.6
					z"/>
				<path class="st4" d="M152.5,197.2v-10.5c0-0.7,0-1.8-0.1-3.2h1.6l0.1,1.7h0c0.7-1.2,1.9-1.9,3.4-1.9c1.2,0,2.2,0.5,3,1.4
					s1.2,2.1,1.2,3.5c0,0.8-0.1,1.6-0.4,2.3s-0.6,1.2-1,1.6s-0.9,0.7-1.4,1s-1.1,0.3-1.7,0.3c-0.6,0-1.2-0.1-1.8-0.4
					s-0.9-0.6-1.2-1.1h0v5.3H152.5z M154.3,187.6v1.7c0,0.3,0,0.5,0.1,0.7c0.2,0.6,0.5,1.1,1,1.5s1,0.6,1.7,0.6c0.9,0,1.6-0.3,2.2-1
					s0.8-1.6,0.8-2.7c0-1-0.3-1.9-0.8-2.5s-1.2-1-2.1-1c-0.6,0-1.2,0.2-1.7,0.6s-0.8,0.9-1,1.6C154.3,187.2,154.3,187.4,154.3,187.6
					z"/>
				<path class="st4" d="M168,183.3c1.4,0,2.5,0.5,3.4,1.4s1.3,2.1,1.3,3.6c0,0.7-0.1,1.3-0.3,1.9s-0.4,1.1-0.7,1.5s-0.7,0.7-1.1,1
					s-0.9,0.5-1.3,0.6s-0.9,0.2-1.4,0.2c-1.3,0-2.4-0.5-3.3-1.4s-1.3-2.1-1.3-3.6c0-0.8,0.1-1.5,0.4-2.2s0.6-1.2,1-1.6
					s0.9-0.8,1.5-1S167.3,183.3,168,183.3z M169.3,185c-0.4-0.2-0.8-0.3-1.3-0.3s-0.9,0.1-1.3,0.3s-0.7,0.5-0.9,0.9
					s-0.4,0.8-0.5,1.2s-0.2,0.9-0.2,1.4c0,1.1,0.3,2,0.8,2.7s1.2,1.1,2.1,1.1c0.8,0,1.5-0.4,2.1-1.1s0.8-1.6,0.8-2.7
					c0-0.4-0.1-0.9-0.2-1.3s-0.3-0.8-0.5-1.2S169.7,185.2,169.3,185z"/>
				<path class="st4" d="M174.9,197.2v-10.5c0-0.7,0-1.8-0.1-3.2h1.6l0.1,1.7h0c0.7-1.2,1.9-1.9,3.4-1.9c1.2,0,2.2,0.5,3,1.4
					s1.2,2.1,1.2,3.5c0,0.8-0.1,1.6-0.4,2.3s-0.6,1.2-1,1.6s-0.9,0.7-1.4,1s-1.1,0.3-1.7,0.3c-0.6,0-1.2-0.1-1.8-0.4
					s-0.9-0.6-1.2-1.1h0v5.3H174.9z M176.6,187.6v1.7c0,0.3,0,0.5,0.1,0.7c0.2,0.6,0.5,1.1,1,1.5s1,0.6,1.7,0.6c0.9,0,1.6-0.3,2.2-1
					s0.8-1.6,0.8-2.7c0-1-0.3-1.9-0.8-2.5s-1.2-1-2.1-1c-0.6,0-1.2,0.2-1.7,0.6s-0.8,0.9-1,1.6C176.6,187.2,176.6,187.4,176.6,187.6
					z"/>
				<path class="st4" d="M186.2,183.5h1.7v4.1c0,1.2,0,2.5-0.1,3.9l0.1,0c0.7-1.4,1.2-2.4,1.6-3l3-5h2.1v9.7h-1.7v-4.1
					c0-1.1,0-2.4,0.1-4h0c-0.7,1.4-1.3,2.4-1.6,3c-0.1,0.2-1.1,1.9-3,5.1h-2V183.5z"/>
				<path class="st4" d="M198.1,188.8l0-1.2h0.8c0.7,0,1.3-0.1,1.8-0.4s0.7-0.7,0.7-1.1c0-0.4-0.2-0.8-0.5-1s-0.8-0.4-1.4-0.4
					c-0.8,0-1.6,0.2-2.3,0.7l-0.4-1.1c1-0.6,2-0.9,3.2-0.9c0.3,0,0.6,0,0.9,0.1s0.6,0.1,0.9,0.3s0.5,0.3,0.8,0.5s0.4,0.4,0.5,0.7
					s0.2,0.6,0.2,1c0,0.6-0.2,1-0.6,1.4s-0.9,0.6-1.5,0.8v0c0.8,0.1,1.4,0.3,1.9,0.8s0.8,1,0.8,1.7c0,0.5-0.1,0.9-0.4,1.3
					s-0.6,0.7-1,0.9s-0.8,0.4-1.3,0.5s-1,0.2-1.5,0.2c-1.2,0-2.2-0.3-3.1-0.8l0.5-1.2c0.8,0.4,1.6,0.7,2.6,0.7
					c0.7,0,1.3-0.2,1.7-0.5s0.6-0.7,0.6-1.2c0-1.1-0.9-1.7-2.8-1.7H198.1z"/>
				<path class="st4" d="M205.3,193.2l0.7-9.7h2.2l1.7,4.9c0.3,0.9,0.6,1.8,0.9,2.7h0c0.2-0.8,0.6-1.9,1.2-3.3l1.5-4.2h2.2l0.7,9.7
					h-1.7l-0.2-4.6c0-0.3,0-0.9-0.1-1.7s-0.1-1.4-0.1-1.8h-0.1c-0.1,0.4-0.5,1.5-1.1,3.1l-1.9,4.9h-1.3l-1.7-4.8
					c-0.3-0.8-0.6-1.9-1-3.2h-0.1c-0.1,1.7-0.1,2.9-0.1,3.5l-0.3,4.6H205.3z"/>
				<path class="st4" d="M218.8,195.6l-1.2,0.1c0.2-0.6,0.4-1.4,0.7-2.3s0.4-1.8,0.5-2.5l2-0.2c-0.2,0.8-0.6,1.8-0.9,2.7
					S219.1,195.1,218.8,195.6z"/>
				<path class="st4" d="M227.5,188.9v-1.2h4.9c-0.1-0.9-0.4-1.6-1-2.1s-1.4-0.8-2.4-0.8c-0.8,0-1.6,0.2-2.3,0.5l-0.4-1.2
					c0.9-0.5,1.9-0.7,3-0.7c1.5,0,2.6,0.5,3.5,1.4c0.9,0.9,1.3,2.2,1.3,3.7c0,0.9-0.2,1.8-0.6,2.5s-1,1.3-1.8,1.8s-1.7,0.7-2.8,0.7
					c-1.1,0-2-0.2-2.8-0.7l0.4-1.2c0.8,0.3,1.6,0.5,2.4,0.5c1,0,1.8-0.3,2.4-0.8s0.9-1.3,1-2.3H227.5z"/>
				<path class="st4" d="M236.4,183.5h1.7v4.2h0.4l3.6-4.2h2.1l-4.2,4.4c0.7,0.1,1.4,0.4,1.9,0.9s1,1.2,1.4,2.1
					c0,0.1,0.1,0.3,0.3,0.7s0.3,0.7,0.4,1s0.2,0.5,0.4,0.7h-1.8c-0.2-0.3-0.5-1-0.9-2c-0.3-0.8-0.8-1.4-1.2-1.7s-1.1-0.5-1.9-0.5
					h-0.3v4.3h-1.7V183.5z"/>
				<path class="st4" d="M252.4,191.6l0.3,1.3c-0.8,0.4-1.7,0.6-2.8,0.6c-1.5,0-2.6-0.5-3.5-1.4s-1.3-2.1-1.3-3.6
					c0-1.5,0.5-2.7,1.4-3.7s2.2-1.5,3.8-1.5c0.5,0,0.9,0.1,1.4,0.2s0.8,0.2,1.1,0.4l-0.4,1.3c-0.6-0.3-1.3-0.5-2-0.5
					c-1.1,0-1.9,0.3-2.5,1s-0.9,1.6-0.9,2.6c0,1.1,0.3,2,0.9,2.6s1.4,1,2.4,1C251,192,251.7,191.9,252.4,191.6z"/>
				<path class="st4" d="M253.8,183.5h7.8v1.4h-3v8.3h-1.8v-8.3h-3V183.5z"/>
				<path class="st4" d="M263.2,197.2v-10.5c0-0.7,0-1.8-0.1-3.2h1.6l0.1,1.7h0c0.7-1.2,1.9-1.9,3.4-1.9c1.2,0,2.2,0.5,3,1.4
					s1.2,2.1,1.2,3.5c0,0.8-0.1,1.6-0.4,2.3s-0.6,1.2-1,1.6s-0.9,0.7-1.4,1s-1.1,0.3-1.7,0.3c-0.6,0-1.2-0.1-1.8-0.4
					s-0.9-0.6-1.2-1.1h0v5.3H263.2z M264.9,187.6v1.7c0,0.3,0,0.5,0.1,0.7c0.2,0.6,0.5,1.1,1,1.5s1,0.6,1.7,0.6c0.9,0,1.6-0.3,2.2-1
					s0.8-1.6,0.8-2.7c0-1-0.3-1.9-0.8-2.5s-1.2-1-2.1-1c-0.6,0-1.2,0.2-1.7,0.6s-0.8,0.9-1,1.6C264.9,187.2,264.9,187.4,264.9,187.6
					z"/>
				<path class="st4" d="M282.3,188.7h-6.8c0,1.1,0.3,2,1,2.5s1.4,0.8,2.4,0.8c1,0,1.9-0.2,2.7-0.5l0.3,1.3c-0.9,0.4-2,0.6-3.2,0.6
					c-1.5,0-2.6-0.4-3.5-1.3s-1.3-2.1-1.3-3.6c0-1,0.2-1.9,0.5-2.6s0.9-1.4,1.6-1.9s1.5-0.7,2.4-0.7c0.6,0,1.1,0.1,1.6,0.3
					s0.9,0.5,1.2,0.8s0.5,0.7,0.7,1.1s0.3,0.8,0.4,1.2s0.1,0.8,0.1,1.2C282.4,188.2,282.3,188.5,282.3,188.7z M275.5,187.4h5.1
					c0-0.2,0-0.5-0.1-0.7s-0.1-0.5-0.2-0.8s-0.3-0.5-0.4-0.7s-0.4-0.4-0.7-0.5s-0.6-0.2-1-0.2c-0.4,0-0.8,0.1-1.2,0.3
					s-0.6,0.4-0.8,0.7s-0.4,0.6-0.5,0.9S275.6,187.1,275.5,187.4z"/>
				<path class="st4" d="M283.9,193.2l0.7-9.7h2.2l1.7,4.9c0.3,0.9,0.6,1.8,0.9,2.7h0c0.2-0.8,0.6-1.9,1.2-3.3l1.5-4.2h2.2l0.7,9.7
					h-1.7l-0.2-4.6c0-0.3,0-0.9-0.1-1.7s-0.1-1.4-0.1-1.8h-0.1c-0.1,0.4-0.5,1.5-1.1,3.1l-1.9,4.9h-1.3l-1.7-4.8
					c-0.3-0.8-0.6-1.9-1-3.2H286c-0.1,1.7-0.1,2.9-0.1,3.5l-0.3,4.6H283.9z"/>
				<path class="st4" d="M297.3,183.5h1.7v4.1c0,1.2,0,2.5-0.1,3.9l0.1,0c0.7-1.4,1.2-2.4,1.6-3l3-5h2.1v9.7h-1.7v-4.1
					c0-1.1,0-2.4,0.1-4h0c-0.7,1.4-1.3,2.4-1.6,3c-0.1,0.2-1.1,1.9-3,5.1h-2V183.5z"/>
				<path class="st4" d="M309.2,188.8l0-1.2h0.8c0.7,0,1.3-0.1,1.8-0.4s0.7-0.7,0.7-1.1c0-0.4-0.2-0.8-0.5-1s-0.8-0.4-1.4-0.4
					c-0.8,0-1.6,0.2-2.3,0.7l-0.4-1.1c1-0.6,2-0.9,3.2-0.9c0.3,0,0.6,0,0.9,0.1s0.6,0.1,0.9,0.3s0.5,0.3,0.8,0.5s0.4,0.4,0.5,0.7
					s0.2,0.6,0.2,1c0,0.6-0.2,1-0.6,1.4s-0.9,0.6-1.5,0.8v0c0.8,0.1,1.4,0.3,1.9,0.8s0.8,1,0.8,1.7c0,0.5-0.1,0.9-0.4,1.3
					s-0.6,0.7-1,0.9s-0.8,0.4-1.3,0.5s-1,0.2-1.5,0.2c-1.2,0-2.2-0.3-3.1-0.8l0.5-1.2c0.8,0.4,1.6,0.7,2.6,0.7
					c0.7,0,1.3-0.2,1.7-0.5s0.6-0.7,0.6-1.2c0-1.1-0.9-1.7-2.8-1.7H309.2z"/>
				<path class="st4" d="M316.4,193.2l0.7-9.7h2.2l1.7,4.9c0.3,0.9,0.6,1.8,0.9,2.7h0c0.2-0.8,0.6-1.9,1.2-3.3l1.5-4.2h2.2l0.7,9.7
					h-1.7l-0.2-4.6c0-0.3,0-0.9-0.1-1.7s-0.1-1.4-0.1-1.8h-0.1c-0.1,0.4-0.5,1.5-1.1,3.1l-1.9,4.9h-1.3l-1.7-4.8
					c-0.3-0.8-0.6-1.9-1-3.2h-0.1c-0.1,1.7-0.1,2.9-0.1,3.5l-0.3,4.6H316.4z"/>
				<path class="st4" d="M334,183.5h1.7v4.1c0,1.2,0,2.5-0.1,3.9l0.1,0c0.7-1.4,1.2-2.4,1.6-3l3-5h2.1v9.7h-1.7v-4.1
					c0-1.1,0-2.4,0.1-4h0c-0.7,1.4-1.3,2.4-1.6,3c-0.1,0.2-1.1,1.9-3,5.1h-2V183.5z"/>
				<path class="st4" d="M349.3,183.5h1.8v3.9h4.6v-3.9h1.8v9.7h-1.8v-4.4H351v4.4h-1.8V183.5z"/>
				<path class="st4" d="M367.1,187.3v3.6c0,0.9,0,1.7,0.1,2.3h-1.6l-0.1-1.2h-0.1c-0.3,0.4-0.7,0.8-1.2,1s-1.1,0.4-1.7,0.4
					c-0.6,0-1.2-0.1-1.6-0.4s-0.8-0.6-1-1s-0.3-0.9-0.3-1.3c0-1.2,0.5-2.1,1.5-2.7s2.4-0.9,4.3-0.9v-0.2c0-0.2,0-0.4,0-0.5
					s-0.1-0.4-0.2-0.6s-0.2-0.4-0.4-0.6s-0.4-0.3-0.6-0.4s-0.6-0.2-1-0.2c-1,0-1.8,0.2-2.5,0.7l-0.4-1.2c0.4-0.3,0.9-0.5,1.5-0.6
					s1.1-0.2,1.7-0.2c0.6,0,1.1,0.1,1.5,0.2s0.8,0.4,1.1,0.6s0.5,0.5,0.7,0.9s0.3,0.7,0.4,1.1S367.1,186.9,367.1,187.3z M365.4,190
					v-1.7c-2.7-0.1-4.1,0.7-4.1,2.2c0,0.6,0.2,1,0.5,1.3s0.7,0.4,1.2,0.4c0.6,0,1.1-0.2,1.5-0.5s0.7-0.7,0.9-1.1
					C365.3,190.4,365.4,190.2,365.4,190z"/>
				<path class="st4" d="M369.8,183.5h8v9.7h-1.8v-8.3h-4.5v8.3h-1.8V183.5z"/>
				<path class="st4" d="M387.5,187.3v3.6c0,0.9,0,1.7,0.1,2.3h-1.6l-0.1-1.2h-0.1c-0.3,0.4-0.7,0.8-1.2,1s-1.1,0.4-1.7,0.4
					c-0.6,0-1.2-0.1-1.6-0.4s-0.8-0.6-1-1s-0.3-0.9-0.3-1.3c0-1.2,0.5-2.1,1.5-2.7s2.4-0.9,4.3-0.9v-0.2c0-0.2,0-0.4,0-0.5
					s-0.1-0.4-0.2-0.6s-0.2-0.4-0.4-0.6s-0.4-0.3-0.6-0.4s-0.6-0.2-1-0.2c-1,0-1.8,0.2-2.5,0.7l-0.4-1.2c0.4-0.3,0.9-0.5,1.5-0.6
					s1.1-0.2,1.7-0.2c0.6,0,1.1,0.1,1.5,0.2s0.8,0.4,1.1,0.6s0.5,0.5,0.7,0.9s0.3,0.7,0.4,1.1S387.5,186.9,387.5,187.3z M385.8,190
					v-1.7c-2.7-0.1-4.1,0.7-4.1,2.2c0,0.6,0.2,1,0.5,1.3s0.7,0.4,1.2,0.4c0.6,0,1.1-0.2,1.5-0.5s0.7-0.7,0.9-1.1
					C385.8,190.4,385.8,190.2,385.8,190z"/>
				<path class="st4" d="M391.4,183.5h6.5v8.4l1,0l-0.1,4.4h-1.4l-0.1-3.1h-6.7l-0.1,3.1h-1.4l-0.1-4.3l0.8,0c0.4-0.6,0.7-1.3,1-2
					c0.4-1.2,0.6-2.5,0.6-3.9V183.5z M392.9,184.9v1.6c0,1.3-0.2,2.5-0.5,3.6c-0.2,0.7-0.4,1.3-0.8,1.8h4.5v-7H392.9z"/>
				<path class="st4" d="M408.6,188.7h-6.8c0,1.1,0.3,2,1,2.5s1.4,0.8,2.4,0.8c1,0,1.9-0.2,2.7-0.5l0.3,1.3c-0.9,0.4-2,0.6-3.2,0.6
					c-1.5,0-2.6-0.4-3.5-1.3s-1.3-2.1-1.3-3.6c0-1,0.2-1.9,0.5-2.6s0.9-1.4,1.6-1.9s1.5-0.7,2.4-0.7c0.6,0,1.1,0.1,1.6,0.3
					s0.9,0.5,1.2,0.8s0.5,0.7,0.7,1.1s0.3,0.8,0.4,1.2s0.1,0.8,0.1,1.2C408.7,188.2,408.7,188.5,408.6,188.7z M401.9,187.4h5.1
					c0-0.2,0-0.5-0.1-0.7s-0.1-0.5-0.2-0.8s-0.3-0.5-0.4-0.7s-0.4-0.4-0.7-0.5s-0.6-0.2-1-0.2c-0.4,0-0.8,0.1-1.2,0.3
					s-0.6,0.4-0.8,0.7s-0.4,0.6-0.5,0.9S401.9,187.1,401.9,187.4z"/>
				<path class="st4" d="M410.8,183.5h1.8v3.9h4.6v-3.9h1.8v9.7h-1.8v-4.4h-4.6v4.4h-1.8V183.5z"/>
				<path class="st4" d="M421.7,183.5h1.7v4.1c0,1.2,0,2.5-0.1,3.9l0.1,0c0.7-1.4,1.2-2.4,1.6-3l3-5h2.1v9.7h-1.7v-4.1
					c0-1.1,0-2.4,0.1-4h0c-0.7,1.4-1.3,2.4-1.6,3c-0.1,0.2-1.1,1.9-3,5.1h-2V183.5z"/>
				<path class="st4" d="M440,183.6v9.6h-1.7v-4.1H437c-0.7,0-1.2,0.2-1.6,0.6c-0.2,0.1-0.3,0.3-0.5,0.6s-0.3,0.4-0.3,0.6
					s-0.2,0.5-0.3,0.8s-0.2,0.6-0.3,0.7c-0.1,0.2-0.2,0.4-0.4,0.8h-1.9c0.2-0.3,0.4-0.7,0.6-1.1c0.1-0.1,0.2-0.4,0.4-0.9
					s0.4-0.9,0.5-1.2s0.4-0.6,0.6-0.8c0.3-0.3,0.7-0.5,1.1-0.6v0c-0.7-0.1-1.3-0.3-1.8-0.7s-0.8-1-0.8-1.7c0-0.9,0.4-1.6,1.3-2.1
					c0.7-0.4,1.8-0.7,3.3-0.7C438,183.4,439,183.5,440,183.6z M438.3,188v-3.3c-0.5-0.1-1-0.1-1.5-0.1c-0.3,0-0.6,0-0.9,0.1
					s-0.6,0.1-0.8,0.3s-0.5,0.3-0.6,0.5s-0.2,0.5-0.2,0.8c0,0.4,0.1,0.7,0.4,1s0.6,0.5,1,0.6s0.8,0.2,1.1,0.2H438.3z"/>
				<path class="st4" d="M447,183.5h1.8v3.9h4.6v-3.9h1.8v9.7h-1.8v-4.4h-4.6v4.4H447V183.5z"/>
				<path class="st4" d="M464.8,187.3v3.6c0,0.9,0,1.7,0.1,2.3h-1.6l-0.1-1.2h-0.1c-0.3,0.4-0.7,0.8-1.2,1s-1.1,0.4-1.7,0.4
					c-0.6,0-1.2-0.1-1.6-0.4s-0.8-0.6-1-1s-0.3-0.9-0.3-1.3c0-1.2,0.5-2.1,1.5-2.7s2.4-0.9,4.3-0.9v-0.2c0-0.2,0-0.4,0-0.5
					s-0.1-0.4-0.2-0.6s-0.2-0.4-0.4-0.6s-0.4-0.3-0.6-0.4s-0.6-0.2-1-0.2c-1,0-1.8,0.2-2.5,0.7l-0.4-1.2c0.4-0.3,0.9-0.5,1.5-0.6
					s1.1-0.2,1.7-0.2c0.6,0,1.1,0.1,1.5,0.2s0.8,0.4,1.1,0.6s0.5,0.5,0.7,0.9s0.3,0.7,0.4,1.1S464.8,186.9,464.8,187.3z M463.1,190
					v-1.7c-2.7-0.1-4.1,0.7-4.1,2.2c0,0.6,0.2,1,0.5,1.3s0.7,0.4,1.2,0.4c0.6,0,1.1-0.2,1.5-0.5s0.7-0.7,0.9-1.1
					C463.1,190.4,463.1,190.2,463.1,190z"/>
				<path class="st4" d="M471.8,183.5h8v9.7h-1.8v-8.3h-4.5v8.3h-1.8V183.5z"/>
				<path class="st4" d="M486.8,183.3c1.4,0,2.5,0.5,3.4,1.4s1.3,2.1,1.3,3.6c0,0.7-0.1,1.3-0.3,1.9s-0.4,1.1-0.7,1.5
					s-0.7,0.7-1.1,1s-0.9,0.5-1.3,0.6s-0.9,0.2-1.4,0.2c-1.3,0-2.4-0.5-3.3-1.4s-1.3-2.1-1.3-3.6c0-0.8,0.1-1.5,0.4-2.2
					s0.6-1.2,1-1.6s0.9-0.8,1.5-1S486.1,183.3,486.8,183.3z M488.1,185c-0.4-0.2-0.8-0.3-1.3-0.3s-0.9,0.1-1.3,0.3s-0.7,0.5-0.9,0.9
					s-0.4,0.8-0.5,1.2s-0.2,0.9-0.2,1.4c0,1.1,0.3,2,0.8,2.7s1.2,1.1,2.1,1.1c0.8,0,1.5-0.4,2.1-1.1s0.8-1.6,0.8-2.7
					c0-0.4-0.1-0.9-0.2-1.3s-0.3-0.8-0.5-1.2S488.5,185.2,488.1,185z"/>
				<path class="st4" d="M494.3,183.5h6.7v9.7h-1.8v-8.3H496v2.5c0,1.5-0.1,2.7-0.3,3.5s-0.6,1.5-1.2,1.9c-0.5,0.4-1.1,0.6-1.9,0.6
					l-0.2-1.4c0.4-0.1,0.7-0.2,1-0.4c0.4-0.3,0.7-0.8,0.8-1.4s0.2-1.6,0.2-2.8V183.5z"/>
				<path class="st4" d="M503.8,183.5h1.7v4.1c0,1.2,0,2.5-0.1,3.9l0.1,0c0.7-1.4,1.2-2.4,1.6-3l3-5h2.1v9.7h-1.7v-4.1
					c0-1.1,0-2.4,0.1-4h0c-0.7,1.4-1.3,2.4-1.6,3c-0.1,0.2-1.1,1.9-3,5.1h-2V183.5z"/>
				<path class="st4" d="M514.9,183.5h1.8v8.3h4.5v-8.3h1.7v8.4l1,0l-0.1,4.4h-1.4l-0.1-3.1h-7.4V183.5z"/>
				<path class="st4" d="M533.7,188.7h-6.8c0,1.1,0.3,2,1,2.5c0.6,0.6,1.4,0.8,2.4,0.8c1,0,1.9-0.2,2.7-0.5l0.3,1.3
					c-0.9,0.4-2,0.6-3.2,0.6c-1.5,0-2.6-0.4-3.5-1.3s-1.3-2.1-1.3-3.6c0-1,0.2-1.9,0.5-2.6c0.4-0.8,0.9-1.4,1.6-1.9
					c0.7-0.5,1.5-0.7,2.4-0.7c0.6,0,1.1,0.1,1.6,0.3c0.5,0.2,0.9,0.5,1.2,0.8c0.3,0.3,0.5,0.7,0.7,1.1c0.2,0.4,0.3,0.8,0.4,1.2
					c0.1,0.4,0.1,0.8,0.1,1.2C533.7,188.2,533.7,188.5,533.7,188.7z M526.9,187.4h5.1c0-0.2,0-0.5-0.1-0.7c0-0.2-0.1-0.5-0.2-0.8
					c-0.1-0.3-0.3-0.5-0.4-0.7s-0.4-0.4-0.7-0.5c-0.3-0.1-0.6-0.2-1-0.2c-0.4,0-0.8,0.1-1.2,0.3s-0.6,0.4-0.8,0.7s-0.4,0.6-0.5,0.9
					S526.9,187.1,526.9,187.4z"/>
				<path class="st4" d="M535.8,183.5h1.7v4.1c0,1.2,0,2.5-0.1,3.9l0.1,0c0.7-1.4,1.2-2.4,1.6-3l3-5h2.1v9.7h-1.7v-4.1
					c0-1.1,0-2.4,0.1-4h0c-0.7,1.4-1.3,2.4-1.6,3c-0.1,0.2-1.1,1.9-3,5.1h-2V183.5z M537.4,179.6h1.3c0,0.4,0.2,0.8,0.4,1.1
					c0.2,0.3,0.5,0.4,0.9,0.4c0.4,0,0.7-0.1,0.9-0.4c0.2-0.3,0.4-0.6,0.4-1.1h1.3c0,0.8-0.3,1.4-0.8,1.8c-0.5,0.4-1.1,0.6-1.9,0.6
					c-0.8,0-1.4-0.2-1.8-0.7C537.7,180.9,537.4,180.3,537.4,179.6z"/>
				<path class="st4" d="M553.6,191.6l0.3,1.3c-0.8,0.4-1.7,0.6-2.8,0.6c-1.5,0-2.6-0.5-3.5-1.4c-0.9-0.9-1.3-2.1-1.3-3.6
					c0-1.5,0.5-2.7,1.4-3.7c1-1,2.2-1.5,3.8-1.5c0.5,0,0.9,0.1,1.4,0.2c0.4,0.1,0.8,0.2,1.1,0.4l-0.4,1.3c-0.6-0.3-1.3-0.5-2-0.5
					c-1.1,0-1.9,0.3-2.5,1s-0.9,1.6-0.9,2.6c0,1.1,0.3,2,0.9,2.6c0.6,0.7,1.4,1,2.4,1C552.2,192,552.9,191.9,553.6,191.6z"/>
				<path class="st4" d="M555.9,183.5h1.7v4.2h0.4l3.6-4.2h2.1l-4.2,4.4c0.7,0.1,1.4,0.4,1.9,0.9c0.5,0.5,1,1.2,1.4,2.1
					c0,0.1,0.1,0.3,0.3,0.7c0.2,0.4,0.3,0.7,0.4,1s0.2,0.5,0.4,0.7h-1.8c-0.2-0.3-0.5-1-0.9-2c-0.3-0.8-0.8-1.4-1.2-1.7
					c-0.5-0.4-1.1-0.5-1.9-0.5h-0.3v4.3h-1.7V183.5z"/>
				<path class="st4" d="M565.4,183.5h1.7v4.1c0,1.2,0,2.5-0.1,3.9l0.1,0c0.7-1.4,1.2-2.4,1.6-3l3-5h2.1v9.7H572v-4.1
					c0-1.1,0-2.4,0.1-4h0c-0.7,1.4-1.3,2.4-1.6,3c-0.1,0.2-1.1,1.9-3,5.1h-2V183.5z"/>
				<path class="st4" d="M575.4,183.5h2l1.4,2.1c0.3,0.4,0.6,0.9,1,1.6h0c0.3-0.5,0.6-1,1-1.6l1.3-2.1h1.9l-3.3,4.7l3.4,5h-2
					l-1.4-2.2c-0.2-0.3-0.5-0.8-1-1.7h0c-0.3,0.6-0.7,1.1-1,1.7l-1.4,2.2h-1.9l3.4-4.9L575.4,183.5z"/>
			</g>
		</g>
	</g>
	<g>
		<g>
			<path d="M101.2,891.7h-8.3v-1.1l1.4-1.3c0.9-0.9,1.7-1.6,2.2-2.1s1-1.1,1.5-1.7s0.8-1.1,0.9-1.6s0.3-0.9,0.3-1.4
				c0-0.3,0-0.7-0.1-1s-0.2-0.6-0.4-0.8s-0.5-0.4-0.8-0.6S97,880,96.5,880c-1,0-1.9,0.4-2.8,1.1l-0.6-1.2c0.5-0.4,1-0.7,1.7-1
				s1.3-0.4,2-0.4c0.7,0,1.3,0.1,1.8,0.3s0.9,0.5,1.2,0.9s0.5,0.8,0.7,1.2s0.2,0.9,0.2,1.4c0,0.6-0.1,1.2-0.3,1.7s-0.5,1.1-0.9,1.7
				s-0.9,1.1-1.4,1.7s-1.1,1.1-1.9,1.9l-1,1v0h5.8V891.7z"/>
			<path d="M107.5,878.5c1.4,0,2.4,0.6,3.2,1.7s1.1,2.8,1.1,4.8c0,2.2-0.4,3.9-1.2,5.1s-1.9,1.8-3.3,1.8c-1.3,0-2.3-0.6-3.1-1.8
				s-1.2-2.8-1.2-4.9c0-2.1,0.4-3.8,1.3-5S106.1,878.5,107.5,878.5z M107.4,879.9c-0.8,0-1.4,0.5-1.9,1.4s-0.7,2.3-0.7,4
				c0,1.7,0.2,3,0.7,3.9s1.1,1.4,1.9,1.4c0.9,0,1.5-0.5,2-1.4s0.7-2.3,0.7-4c0-1.7-0.2-3-0.7-3.9S108.3,879.9,107.4,879.9z"/>
			<path d="M117.2,891.7v-11.4h0l-2.3,1.2l-0.3-1.3l2.8-1.5h1.5v13H117.2z"/>
			<path d="M130.7,891.7h-1.7v-3.6h-6V887l5.8-8.3h1.9v8.1h1.8v1.4h-1.8V891.7z M124.8,886.8h4.3v-4.3c0-0.7,0-1.4,0.1-2h-0.1
				c-0.4,0.7-0.7,1.4-1.1,1.9L124.8,886.8L124.8,886.8z"/>
		</g>
		<g>
			<path d="M255.6,891.7h-8.3v-1.1l1.4-1.3c0.9-0.9,1.7-1.6,2.2-2.1s1-1.1,1.5-1.7s0.8-1.1,0.9-1.6s0.3-0.9,0.3-1.4
				c0-0.3,0-0.7-0.1-1s-0.2-0.6-0.4-0.8s-0.5-0.4-0.8-0.6s-0.7-0.2-1.2-0.2c-1,0-1.9,0.4-2.8,1.1l-0.6-1.2c0.5-0.4,1-0.7,1.7-1
				s1.3-0.4,2-0.4c0.7,0,1.3,0.1,1.8,0.3s0.9,0.5,1.2,0.9s0.5,0.8,0.7,1.2s0.2,0.9,0.2,1.4c0,0.6-0.1,1.2-0.3,1.7s-0.5,1.1-0.9,1.7
				s-0.9,1.1-1.4,1.7s-1.1,1.1-1.9,1.9l-1,1v0h5.8V891.7z"/>
			<path d="M262,878.5c1.4,0,2.4,0.6,3.2,1.7s1.1,2.8,1.1,4.8c0,2.2-0.4,3.9-1.2,5.1s-1.9,1.8-3.3,1.8c-1.3,0-2.3-0.6-3.1-1.8
				s-1.2-2.8-1.2-4.9c0-2.1,0.4-3.8,1.3-5S260.6,878.5,262,878.5z M261.8,879.9c-0.8,0-1.4,0.5-1.9,1.4s-0.7,2.3-0.7,4
				c0,1.7,0.2,3,0.7,3.9s1.1,1.4,1.9,1.4c0.9,0,1.5-0.5,2-1.4s0.7-2.3,0.7-4c0-1.7-0.2-3-0.7-3.9S262.7,879.9,261.8,879.9z"/>
			<path d="M271.7,891.7v-11.4h0l-2.3,1.2l-0.3-1.3l2.8-1.5h1.5v13H271.7z"/>
			<path d="M285.9,878.7v1.5h-5l-0.5,3.3c0.3,0,0.7-0.1,1.1-0.1c1.1,0,2,0.2,2.8,0.7c0.5,0.3,1,0.7,1.3,1.3s0.5,1.2,0.5,2
				c0,1.3-0.5,2.3-1.4,3.2s-2.1,1.3-3.5,1.3c-0.7,0-1.3-0.1-1.8-0.2s-1-0.3-1.4-0.6l0.4-1.3c0.3,0.2,0.7,0.4,1.2,0.5s1,0.2,1.6,0.2
				c0.9,0,1.6-0.3,2.2-0.8s0.9-1.2,0.9-2c0-0.9-0.3-1.6-0.9-2.1s-1.5-0.8-2.8-0.8c-0.5,0-1.1,0-1.8,0.1l0.8-6.2H285.9z"/>
		</g>
		<g>
			<path d="M410.4,891.7h-8.3v-1.1l1.4-1.3c0.9-0.9,1.7-1.6,2.2-2.1s1-1.1,1.5-1.7s0.8-1.1,0.9-1.6s0.3-0.9,0.3-1.4
				c0-0.3,0-0.7-0.1-1s-0.2-0.6-0.4-0.8s-0.5-0.4-0.8-0.6s-0.7-0.2-1.2-0.2c-1,0-1.9,0.4-2.8,1.1l-0.6-1.2c0.5-0.4,1-0.7,1.7-1
				s1.3-0.4,2-0.4c0.7,0,1.3,0.1,1.8,0.3s0.9,0.5,1.2,0.9s0.5,0.8,0.7,1.2s0.2,0.9,0.2,1.4c0,0.6-0.1,1.2-0.3,1.7s-0.5,1.1-0.9,1.7
				s-0.9,1.1-1.4,1.7s-1.1,1.1-1.9,1.9l-1,1v0h5.8V891.7z"/>
			<path d="M416.7,878.5c1.4,0,2.4,0.6,3.2,1.7s1.1,2.8,1.1,4.8c0,2.2-0.4,3.9-1.2,5.1s-1.9,1.8-3.3,1.8c-1.3,0-2.3-0.6-3.1-1.8
				s-1.2-2.8-1.2-4.9c0-2.1,0.4-3.8,1.3-5S415.4,878.5,416.7,878.5z M416.6,879.9c-0.8,0-1.4,0.5-1.9,1.4s-0.7,2.3-0.7,4
				c0,1.7,0.2,3,0.7,3.9s1.1,1.4,1.9,1.4c0.9,0,1.5-0.5,2-1.4s0.7-2.3,0.7-4c0-1.7-0.2-3-0.7-3.9S417.5,879.9,416.6,879.9z"/>
			<path d="M426.4,891.7v-11.4h0l-2.3,1.2l-0.3-1.3l2.8-1.5h1.5v13H426.4z"/>
			<path d="M440.3,878.5v1.4c-0.3,0-0.8,0-1.3,0.1c-0.7,0.1-1.3,0.3-1.8,0.6s-1,0.6-1.4,1.1s-0.7,0.9-0.9,1.4s-0.4,1-0.4,1.6h0
				c0.3-0.4,0.8-0.8,1.3-1.1s1.2-0.4,1.8-0.4c1.2,0,2.1,0.4,2.8,1.2s1.1,1.8,1.1,3c0,0.6-0.1,1.2-0.3,1.7s-0.5,1-0.8,1.5
				s-0.8,0.8-1.4,1s-1.2,0.4-1.8,0.4c-1.4,0-2.5-0.5-3.3-1.5s-1.2-2.4-1.2-4c0-1.2,0.2-2.4,0.6-3.4s0.9-1.8,1.6-2.5
				c1.1-1.1,2.5-1.7,4.2-1.9C439.5,878.5,439.9,878.5,440.3,878.5z M437.3,890.6c0.7,0,1.4-0.3,1.8-0.9s0.7-1.3,0.7-2.3
				c0-0.9-0.2-1.6-0.7-2.2s-1.1-0.8-2-0.8c-0.5,0-1,0.1-1.5,0.4s-0.8,0.7-1.1,1.2c-0.1,0.2-0.2,0.5-0.2,0.8c0,1.1,0.3,2,0.8,2.7
				S436.4,890.6,437.3,890.6z"/>
		</g>
		<g>
			<path d="M565.6,891.7h-8.3v-1.1l1.4-1.3c0.9-0.9,1.7-1.6,2.2-2.1c0.5-0.5,1-1.1,1.5-1.7c0.4-0.6,0.8-1.1,0.9-1.6
				c0.2-0.5,0.3-0.9,0.3-1.4c0-0.3,0-0.7-0.1-1s-0.2-0.6-0.4-0.8c-0.2-0.2-0.5-0.4-0.8-0.6s-0.7-0.2-1.2-0.2c-1,0-1.9,0.4-2.8,1.1
				l-0.6-1.2c0.5-0.4,1-0.7,1.7-1c0.6-0.2,1.3-0.4,2-0.4c0.7,0,1.3,0.1,1.8,0.3s0.9,0.5,1.2,0.9c0.3,0.4,0.5,0.8,0.7,1.2
				s0.2,0.9,0.2,1.4c0,0.6-0.1,1.2-0.3,1.7s-0.5,1.1-0.9,1.7s-0.9,1.1-1.4,1.7s-1.1,1.1-1.9,1.9l-1,1v0h5.8V891.7z"/>
			<path d="M571.9,878.5c1.4,0,2.4,0.6,3.2,1.7s1.1,2.8,1.1,4.8c0,2.2-0.4,3.9-1.2,5.1c-0.8,1.2-1.9,1.8-3.3,1.8
				c-1.3,0-2.3-0.6-3.1-1.8s-1.2-2.8-1.2-4.9c0-2.1,0.4-3.8,1.3-5C569.5,879.1,570.6,878.5,571.9,878.5z M571.8,879.9
				c-0.8,0-1.4,0.5-1.9,1.4c-0.5,0.9-0.7,2.3-0.7,4c0,1.7,0.2,3,0.7,3.9c0.5,0.9,1.1,1.4,1.9,1.4c0.9,0,1.5-0.5,2-1.4
				c0.4-1,0.7-2.3,0.7-4c0-1.7-0.2-3-0.7-3.9C573.4,880.3,572.7,879.9,571.8,879.9z"/>
			<path d="M581.6,891.7v-11.4h0l-2.3,1.2l-0.3-1.3l2.8-1.5h1.5v13H581.6z"/>
			<path d="M588.3,878.7h8.2v1.2l-5.7,11.8H589l5.6-11.5v0h-6.4V878.7z"/>
		</g>
		<g>
			<path d="M720.4,891.7h-8.3v-1.1l1.4-1.3c0.9-0.9,1.7-1.6,2.2-2.1c0.5-0.5,1-1.1,1.5-1.7c0.4-0.6,0.8-1.1,0.9-1.6
				c0.2-0.5,0.3-0.9,0.3-1.4c0-0.3,0-0.7-0.1-1s-0.2-0.6-0.4-0.8c-0.2-0.2-0.5-0.4-0.8-0.6s-0.7-0.2-1.2-0.2c-1,0-1.9,0.4-2.8,1.1
				l-0.6-1.2c0.5-0.4,1-0.7,1.7-1c0.6-0.2,1.3-0.4,2-0.4c0.7,0,1.3,0.1,1.8,0.3s0.9,0.5,1.2,0.9c0.3,0.4,0.5,0.8,0.7,1.2
				s0.2,0.9,0.2,1.4c0,0.6-0.1,1.2-0.3,1.7s-0.5,1.1-0.9,1.7s-0.9,1.1-1.4,1.7s-1.1,1.1-1.9,1.9l-1,1v0h5.8V891.7z"/>
			<path d="M726.7,878.5c1.4,0,2.4,0.6,3.2,1.7s1.1,2.8,1.1,4.8c0,2.2-0.4,3.9-1.2,5.1c-0.8,1.2-1.9,1.8-3.3,1.8
				c-1.3,0-2.3-0.6-3.1-1.8s-1.2-2.8-1.2-4.9c0-2.1,0.4-3.8,1.3-5C724.3,879.1,725.4,878.5,726.7,878.5z M726.6,879.9
				c-0.8,0-1.4,0.5-1.9,1.4c-0.5,0.9-0.7,2.3-0.7,4c0,1.7,0.2,3,0.7,3.9c0.5,0.9,1.1,1.4,1.9,1.4c0.9,0,1.5-0.5,2-1.4
				c0.4-1,0.7-2.3,0.7-4c0-1.7-0.2-3-0.7-3.9C728.1,880.3,727.5,879.9,726.6,879.9z"/>
			<path d="M736.4,891.7v-11.4h0l-2.3,1.2l-0.3-1.3l2.8-1.5h1.5v13H736.4z"/>
			<path d="M745.3,884.9L745.3,884.9c-0.7-0.4-1.2-0.8-1.6-1.3s-0.5-1.1-0.5-1.7c0-1,0.4-1.9,1.1-2.5c0.8-0.6,1.7-1,2.9-1
				c0.6,0,1.2,0.1,1.7,0.3c0.5,0.2,0.9,0.4,1.2,0.7c0.3,0.3,0.5,0.6,0.7,1c0.2,0.4,0.2,0.8,0.2,1.2c0,0.6-0.2,1.2-0.5,1.7
				c-0.3,0.5-0.9,1-1.6,1.3v0.1c0.8,0.3,1.5,0.8,1.9,1.4s0.7,1.2,0.7,2c0,1.1-0.4,2-1.3,2.7c-0.8,0.7-1.9,1.1-3.2,1.1
				c-1.3,0-2.4-0.3-3.2-1s-1.2-1.5-1.2-2.5c0-0.8,0.2-1.5,0.7-2.1S744.5,885.3,745.3,884.9z M747.1,890.7c0.8,0,1.4-0.2,1.9-0.6
				s0.7-1,0.7-1.7c0-0.7-0.2-1.3-0.7-1.8c-0.5-0.4-1.2-0.8-2.1-1.1c-0.7,0.2-1.3,0.6-1.7,1c-0.4,0.5-0.6,1-0.6,1.7
				c0,0.7,0.2,1.3,0.7,1.7S746.3,890.7,747.1,890.7z M747.1,879.8c-0.7,0-1.3,0.2-1.7,0.6s-0.6,0.9-0.6,1.5c0,1.2,0.8,2,2.5,2.4
				c0.6-0.2,1.1-0.5,1.4-0.9c0.4-0.4,0.5-0.9,0.5-1.5c0-0.6-0.2-1.1-0.6-1.5C748.4,880,747.8,879.8,747.1,879.8z"/>
		</g>
		<g>
			<path d="M875.2,891.7h-8.3v-1.1l1.4-1.3c0.9-0.9,1.7-1.6,2.2-2.1c0.5-0.5,1-1.1,1.5-1.7c0.4-0.6,0.8-1.1,0.9-1.6
				c0.2-0.5,0.3-0.9,0.3-1.4c0-0.3,0-0.7-0.1-1s-0.2-0.6-0.4-0.8c-0.2-0.2-0.5-0.4-0.8-0.6s-0.7-0.2-1.2-0.2c-1,0-1.9,0.4-2.8,1.1
				l-0.6-1.2c0.5-0.4,1-0.7,1.7-1c0.6-0.2,1.3-0.4,2-0.4c0.7,0,1.3,0.1,1.8,0.3s0.9,0.5,1.2,0.9c0.3,0.4,0.5,0.8,0.7,1.2
				s0.2,0.9,0.2,1.4c0,0.6-0.1,1.2-0.3,1.7s-0.5,1.1-0.9,1.7s-0.9,1.1-1.4,1.7s-1.1,1.1-1.9,1.9l-1,1v0h5.8V891.7z"/>
			<path d="M881.5,878.5c1.4,0,2.4,0.6,3.2,1.7s1.1,2.8,1.1,4.8c0,2.2-0.4,3.9-1.2,5.1c-0.8,1.2-1.9,1.8-3.3,1.8
				c-1.3,0-2.3-0.6-3.1-1.8s-1.2-2.8-1.2-4.9c0-2.1,0.4-3.8,1.3-5C879,879.1,880.1,878.5,881.5,878.5z M881.4,879.9
				c-0.8,0-1.4,0.5-1.9,1.4c-0.5,0.9-0.7,2.3-0.7,4c0,1.7,0.2,3,0.7,3.9c0.5,0.9,1.1,1.4,1.9,1.4c0.9,0,1.5-0.5,2-1.4
				c0.4-1,0.7-2.3,0.7-4c0-1.7-0.2-3-0.7-3.9C882.9,880.3,882.3,879.9,881.4,879.9z"/>
			<path d="M891.2,891.7v-11.4h0l-2.3,1.2l-0.3-1.3l2.8-1.5h1.5v13H891.2z"/>
			<path d="M898.7,891.9v-1.4c0.3,0,0.7,0,1.4-0.1c1.1-0.1,2-0.6,2.7-1.3c0.9-0.8,1.5-2,1.7-3.4h-0.1c-0.8,0.9-1.8,1.4-3.1,1.4
				c-1.1,0-2.1-0.4-2.8-1.1s-1.1-1.7-1.1-2.8c0-0.8,0.2-1.6,0.5-2.3c0.4-0.7,0.9-1.3,1.6-1.7c0.7-0.4,1.5-0.6,2.3-0.6
				c1.3,0,2.4,0.5,3.1,1.5s1.2,2.3,1.2,4c0,1.3-0.2,2.5-0.6,3.6c-0.4,1-0.9,1.9-1.6,2.5c-0.5,0.5-1.1,0.9-1.7,1.2s-1.4,0.5-2.1,0.6
				C899.7,891.9,899.1,891.9,898.7,891.9z M901.8,879.8c-0.7,0-1.4,0.3-1.8,0.9c-0.5,0.6-0.7,1.4-0.7,2.3c0,0.8,0.2,1.5,0.7,2
				c0.5,0.5,1.1,0.8,1.8,0.8c0.6,0,1.1-0.1,1.5-0.4c0.4-0.3,0.8-0.6,1-1c0.1-0.2,0.2-0.4,0.2-0.7c0-1.2-0.2-2.1-0.7-2.8
				C903.4,880.2,902.7,879.8,901.8,879.8z"/>
		</g>
	</g>
</g>
<g>
	<path d="M55.4,920.2l1.2,0.7l-1.9,2.5v0l3-0.4v1.4l-3-0.4v0.1l1.9,2.4l-1.3,0.7l-1.2-2.8h0l-1.3,2.8l-1.1-0.7l1.9-2.4V924l-3,0.4
		V923l2.9,0.4v0l-1.9-2.5l1.2-0.7l1.2,2.8h0L55.4,920.2z"/>
	<path d="M59.7,924.2h8v9.7H66v-8.3h-4.5v8.3h-1.8V924.2z"/>
	<path d="M74.7,924c1.4,0,2.5,0.5,3.4,1.4s1.3,2.1,1.3,3.6c0,0.7-0.1,1.3-0.3,1.9s-0.4,1.1-0.7,1.5s-0.7,0.7-1.1,1s-0.9,0.5-1.3,0.6
		s-0.9,0.2-1.4,0.2c-1.3,0-2.4-0.5-3.3-1.4s-1.3-2.1-1.3-3.6c0-0.8,0.1-1.5,0.4-2.2s0.6-1.2,1-1.6s0.9-0.8,1.5-1S74,924,74.7,924z
		 M76,925.7c-0.4-0.2-0.8-0.3-1.3-0.3s-0.9,0.1-1.3,0.3s-0.7,0.5-0.9,0.9s-0.4,0.8-0.5,1.2s-0.2,0.9-0.2,1.4c0,1.1,0.3,2,0.8,2.7
		s1.2,1.1,2.1,1.1c0.8,0,1.5-0.4,2.1-1.1s0.8-1.6,0.8-2.7c0-0.4-0.1-0.9-0.2-1.3s-0.3-0.8-0.5-1.2S76.4,925.9,76,925.7z"/>
	<path d="M86.9,924.2h6.5v8.4l1,0l-0.1,4.4h-1.4l-0.1-3.1h-6.7L86,937h-1.4l-0.1-4.3l0.8,0c0.4-0.6,0.7-1.3,1-2
		c0.4-1.2,0.6-2.5,0.6-3.9V924.2z M88.4,925.6v1.6c0,1.3-0.2,2.5-0.5,3.6c-0.2,0.7-0.4,1.3-0.8,1.8h4.5v-7H88.4z"/>
	<path d="M103.2,928v3.6c0,0.9,0,1.7,0.1,2.3h-1.6l-0.1-1.2h-0.1c-0.3,0.4-0.7,0.8-1.2,1s-1.1,0.4-1.7,0.4c-0.6,0-1.2-0.1-1.6-0.4
		s-0.8-0.6-1-1s-0.3-0.9-0.3-1.3c0-1.2,0.5-2.1,1.5-2.7s2.4-0.9,4.3-0.9v-0.2c0-0.2,0-0.4,0-0.5s-0.1-0.4-0.2-0.6s-0.2-0.4-0.4-0.6
		s-0.4-0.3-0.6-0.4s-0.6-0.2-1-0.2c-1,0-1.8,0.2-2.5,0.7l-0.4-1.2c0.4-0.3,0.9-0.5,1.5-0.6s1.1-0.2,1.7-0.2c0.6,0,1.1,0.1,1.5,0.2
		s0.8,0.4,1.1,0.6s0.5,0.5,0.7,0.9s0.3,0.7,0.4,1.1S103.2,927.5,103.2,928z M101.5,930.6V929c-2.7-0.1-4.1,0.7-4.1,2.2
		c0,0.6,0.2,1,0.5,1.3s0.7,0.4,1.2,0.4c0.6,0,1.1-0.2,1.5-0.5s0.7-0.7,0.9-1.1C101.5,931,101.5,930.8,101.5,930.6z"/>
	<path d="M106,924.2h1.8v3.9h4.6v-3.9h1.8v9.7h-1.8v-4.4h-4.6v4.4H106V924.2z"/>
	<path d="M116.9,924.2h1.8v3.9h4.6v-3.9h1.8v9.7h-1.8v-4.4h-4.6v4.4h-1.8V924.2z"/>
	<path d="M127.8,924.2h1.8v3.3c0.5-0.1,1-0.1,1.6-0.1c0.4,0,0.8,0,1.2,0.1s0.8,0.2,1.1,0.4s0.7,0.4,0.9,0.6s0.5,0.6,0.6,0.9
		s0.2,0.8,0.2,1.3c0,0.9-0.3,1.7-1,2.2c-0.9,0.7-2.2,1.1-3.9,1.1c-0.9,0-1.7,0-2.6-0.1V924.2z M129.6,928.8v3.9
		c0.3,0.1,0.7,0.1,1.2,0.1c0.4,0,0.7,0,1-0.1s0.6-0.2,0.9-0.3s0.5-0.4,0.7-0.6s0.2-0.6,0.2-1c0-0.4-0.1-0.7-0.2-1s-0.4-0.5-0.6-0.6
		s-0.6-0.3-0.9-0.3s-0.6-0.1-1-0.1C130.4,928.6,130,928.7,129.6,928.8z M136.6,924.2h1.7v9.7h-1.7V924.2z"/>
	<path d="M140.6,933.9l0.7-9.7h2.2l1.7,4.9c0.3,0.9,0.6,1.8,0.9,2.7h0c0.2-0.8,0.6-1.9,1.2-3.3l1.5-4.2h2.2l0.7,9.7H150l-0.2-4.6
		c0-0.3,0-0.9-0.1-1.7s-0.1-1.4-0.1-1.8h-0.1c-0.1,0.4-0.5,1.5-1.1,3.1l-1.9,4.9h-1.3l-1.7-4.8c-0.3-0.8-0.6-1.9-1-3.2h-0.1
		c-0.1,1.7-0.1,2.9-0.1,3.5l-0.3,4.6H140.6z"/>
	<path d="M164.8,932.2l0.3,1.3c-0.8,0.4-1.7,0.6-2.8,0.6c-1.5,0-2.6-0.5-3.5-1.4s-1.3-2.1-1.3-3.6c0-1.5,0.5-2.7,1.4-3.7
		s2.2-1.5,3.8-1.5c0.5,0,0.9,0.1,1.4,0.2s0.8,0.2,1.1,0.4l-0.4,1.3c-0.6-0.3-1.3-0.5-2-0.5c-1.1,0-1.9,0.3-2.5,1s-0.9,1.6-0.9,2.6
		c0,1.1,0.3,2,0.9,2.6s1.4,1,2.4,1C163.4,932.7,164.1,932.5,164.8,932.2z"/>
	<path d="M166.1,924.2h1.9l2.1,5.7c0.3,0.7,0.5,1.3,0.6,2h0c0-0.1,0.1-0.3,0.2-0.6s0.1-0.5,0.2-0.8s0.1-0.5,0.2-0.7l1.9-5.7h1.9
		l-2.6,6.9c-0.7,1.7-1.2,3-1.7,3.9s-1,1.6-1.6,2.1c-0.7,0.6-1.5,1-2.2,1.1l-0.4-1.5c0.5-0.2,1.1-0.5,1.5-0.9c0.6-0.5,1.1-1.1,1.5-2
		c0.1-0.2,0.1-0.3,0.1-0.4c0-0.1,0-0.3-0.1-0.5L166.1,924.2z"/>
	<path d="M177.5,924.2h6.5v8.4l1,0l-0.1,4.4h-1.4l-0.1-3.1h-6.7l-0.1,3.1h-1.4l-0.1-4.3l0.8,0c0.4-0.6,0.7-1.3,1-2
		c0.4-1.2,0.6-2.5,0.6-3.9V924.2z M179,925.6v1.6c0,1.3-0.2,2.5-0.5,3.6c-0.2,0.7-0.4,1.3-0.8,1.8h4.5v-7H179z"/>
	<path d="M194.7,929.4h-6.8c0,1.1,0.3,2,1,2.5s1.4,0.8,2.4,0.8c1,0,1.9-0.2,2.7-0.5l0.3,1.3c-0.9,0.4-2,0.6-3.2,0.6
		c-1.5,0-2.6-0.4-3.5-1.3s-1.3-2.1-1.3-3.6c0-1,0.2-1.9,0.5-2.6s0.9-1.4,1.6-1.9s1.5-0.7,2.4-0.7c0.6,0,1.1,0.1,1.6,0.3
		s0.9,0.5,1.2,0.8s0.5,0.7,0.7,1.1s0.3,0.8,0.4,1.2s0.1,0.8,0.1,1.2C194.8,928.9,194.8,929.2,194.7,929.4z M188,928.1h5.1
		c0-0.2,0-0.5-0.1-0.7s-0.1-0.5-0.2-0.8s-0.3-0.5-0.4-0.7s-0.4-0.4-0.7-0.5s-0.6-0.2-1-0.2c-0.4,0-0.8,0.1-1.2,0.3s-0.6,0.4-0.8,0.7
		s-0.4,0.6-0.5,0.9S188,927.8,188,928.1z"/>
	<path d="M204.5,919.5l-0.1,1.5c-0.4,0.1-1.1,0.3-2,0.4c-1.6,0.3-2.8,0.9-3.5,1.8c-0.3,0.4-0.5,0.9-0.7,1.5s-0.3,1.2-0.4,1.7h0.1
		c0.3-0.7,0.8-1.2,1.4-1.6s1.3-0.6,2-0.6c1.2,0,2.2,0.4,3,1.3s1.1,2,1.1,3.5c0,1.6-0.4,2.9-1.2,3.8s-1.9,1.4-3.3,1.4
		c-0.7,0-1.2-0.1-1.8-0.4s-1-0.6-1.3-1s-0.6-0.9-0.8-1.5s-0.4-1.2-0.5-1.8s-0.1-1.2-0.1-1.9c0-2.3,0.5-4.1,1.5-5.4
		c0.4-0.7,1-1.2,1.7-1.5s1.5-0.6,2.5-0.8C203.2,919.8,204,919.6,204.5,919.5z M203.6,929.1c0-0.4,0-0.8-0.1-1.2s-0.2-0.8-0.4-1.1
		s-0.5-0.7-0.8-0.9s-0.8-0.3-1.3-0.3c-0.5,0-0.9,0.1-1.3,0.4s-0.7,0.6-0.9,1c-0.3,0.6-0.5,1.3-0.5,2.1c0,0.4,0.1,0.9,0.2,1.3
		s0.3,0.9,0.5,1.3s0.5,0.7,0.9,1s0.8,0.4,1.2,0.4c0.5,0,0.9-0.1,1.2-0.3s0.6-0.5,0.8-0.9s0.3-0.8,0.4-1.2S203.6,929.6,203.6,929.1z"
		/>
	<path d="M207.6,924.2h1.8v3.9h4.6v-3.9h1.8v9.7h-1.8v-4.4h-4.6v4.4h-1.8V924.2z"/>
	<path d="M218.5,924.2h1.8v3.3c0.5-0.1,1-0.1,1.6-0.1c0.4,0,0.8,0,1.2,0.1s0.8,0.2,1.1,0.4s0.7,0.4,0.9,0.6s0.5,0.6,0.6,0.9
		s0.2,0.8,0.2,1.3c0,0.9-0.3,1.7-1,2.2c-0.9,0.7-2.2,1.1-3.9,1.1c-0.9,0-1.7,0-2.6-0.1V924.2z M220.2,928.8v3.9
		c0.3,0.1,0.7,0.1,1.2,0.1c0.4,0,0.7,0,1-0.1s0.6-0.2,0.9-0.3s0.5-0.4,0.7-0.6s0.2-0.6,0.2-1c0-0.4-0.1-0.7-0.2-1s-0.4-0.5-0.6-0.6
		s-0.6-0.3-0.9-0.3s-0.6-0.1-1-0.1C221.1,928.6,220.6,928.7,220.2,928.8z M227.2,924.2h1.7v9.7h-1.7V924.2z"/>
	<path d="M230.7,924.2h2l1.4,2.1c0.3,0.4,0.6,0.9,1,1.6h0c0.3-0.5,0.6-1,1-1.6l1.3-2.1h1.9l-3.3,4.7l3.4,5h-2l-1.4-2.2
		c-0.2-0.3-0.5-0.8-1-1.7h0c-0.3,0.6-0.7,1.1-1,1.7l-1.4,2.2h-1.9l3.4-4.9L230.7,924.2z"/>
	<path d="M245.3,924.2h8v9.7h-1.8v-8.3H247v8.3h-1.8V924.2z"/>
	<path d="M256.1,937.9v-10.5c0-0.7,0-1.8-0.1-3.2h1.6l0.1,1.7h0c0.7-1.2,1.9-1.9,3.4-1.9c1.2,0,2.2,0.5,3,1.4s1.2,2.1,1.2,3.5
		c0,0.8-0.1,1.6-0.4,2.3s-0.6,1.2-1,1.6s-0.9,0.7-1.4,1s-1.1,0.3-1.7,0.3c-0.6,0-1.2-0.1-1.8-0.4s-0.9-0.6-1.2-1.1h0v5.3H256.1z
		 M257.9,928.3v1.7c0,0.3,0,0.5,0.1,0.7c0.2,0.6,0.5,1.1,1,1.5s1,0.6,1.7,0.6c0.9,0,1.6-0.3,2.2-1s0.8-1.6,0.8-2.7
		c0-1-0.3-1.9-0.8-2.5s-1.2-1-2.1-1c-0.6,0-1.2,0.2-1.7,0.6s-0.8,0.9-1,1.6C257.9,927.9,257.9,928.1,257.9,928.3z"/>
	<path d="M267.5,924.2h1.7v4.1c0,1.2,0,2.5-0.1,3.9l0.1,0c0.7-1.4,1.2-2.4,1.6-3l3-5h2.1v9.7h-1.7v-4.1c0-1.1,0-2.4,0.1-4h0
		c-0.7,1.4-1.3,2.4-1.6,3c-0.1,0.2-1.1,1.9-3,5.1h-2V924.2z"/>
	<path d="M278.6,924.2h5.9v1.4h-4.2v8.3h-1.7V924.2z"/>
	<path d="M290,924c1.4,0,2.5,0.5,3.4,1.4s1.3,2.1,1.3,3.6c0,0.7-0.1,1.3-0.3,1.9s-0.4,1.1-0.7,1.5s-0.7,0.7-1.1,1s-0.9,0.5-1.3,0.6
		s-0.9,0.2-1.4,0.2c-1.3,0-2.4-0.5-3.3-1.4s-1.3-2.1-1.3-3.6c0-0.8,0.1-1.5,0.4-2.2s0.6-1.2,1-1.6s0.9-0.8,1.5-1S289.3,924,290,924z
		 M291.3,925.7c-0.4-0.2-0.8-0.3-1.3-0.3s-0.9,0.1-1.3,0.3s-0.7,0.5-0.9,0.9s-0.4,0.8-0.5,1.2s-0.2,0.9-0.2,1.4c0,1.1,0.3,2,0.8,2.7
		s1.2,1.1,2.1,1.1c0.8,0,1.5-0.4,2.1-1.1s0.8-1.6,0.8-2.7c0-0.4-0.1-0.9-0.2-1.3s-0.3-0.8-0.5-1.2S291.7,925.9,291.3,925.7z"/>
	<path d="M296.8,933.9v-9.6c0.9-0.1,1.9-0.2,3.1-0.2c0.4,0,0.7,0,1.1,0s0.7,0.1,1.1,0.2s0.8,0.2,1.1,0.4s0.5,0.4,0.7,0.7
		s0.3,0.7,0.3,1.1c0,0.6-0.2,1.1-0.6,1.4s-0.9,0.6-1.5,0.8v0c0.7,0.1,1.3,0.4,1.8,0.8s0.7,0.9,0.7,1.6c0,0.4-0.1,0.8-0.2,1.1
		s-0.4,0.6-0.7,0.8s-0.6,0.4-0.9,0.5s-0.7,0.2-1.1,0.3s-0.8,0.1-1.1,0.1s-0.7,0-1,0C298.8,934,297.8,934,296.8,933.9z M298.5,929.4
		v3.3c0.5,0,1,0.1,1.4,0.1c0.3,0,0.7,0,1-0.1s0.6-0.1,0.9-0.2s0.6-0.3,0.8-0.5s0.3-0.5,0.3-0.9c0-0.3-0.1-0.6-0.2-0.9
		s-0.4-0.4-0.7-0.5s-0.6-0.2-1-0.2s-0.7-0.1-1.2-0.1H298.5z M298.5,925.4v2.9h1.3c0.3,0,0.7,0,1-0.1s0.6-0.1,0.8-0.3
		s0.5-0.3,0.6-0.5s0.2-0.4,0.2-0.7c0-1-0.9-1.4-2.6-1.4C299.6,925.3,299.1,925.4,298.5,925.4z"/>
	<path d="M311,924c1.4,0,2.5,0.5,3.4,1.4s1.3,2.1,1.3,3.6c0,0.7-0.1,1.3-0.3,1.9s-0.4,1.1-0.7,1.5s-0.7,0.7-1.1,1s-0.9,0.5-1.3,0.6
		s-0.9,0.2-1.4,0.2c-1.3,0-2.4-0.5-3.3-1.4s-1.3-2.1-1.3-3.6c0-0.8,0.1-1.5,0.4-2.2s0.6-1.2,1-1.6s0.9-0.8,1.5-1S310.3,924,311,924z
		 M312.2,925.7c-0.4-0.2-0.8-0.3-1.3-0.3s-0.9,0.1-1.3,0.3s-0.7,0.5-0.9,0.9s-0.4,0.8-0.5,1.2s-0.2,0.9-0.2,1.4c0,1.1,0.3,2,0.8,2.7
		s1.2,1.1,2.1,1.1c0.8,0,1.5-0.4,2.1-1.1s0.8-1.6,0.8-2.7c0-0.4-0.1-0.9-0.2-1.3s-0.3-0.8-0.5-1.2S312.6,925.9,312.2,925.7z"/>
	<path d="M317.8,937.9v-10.5c0-0.7,0-1.8-0.1-3.2h1.6l0.1,1.7h0c0.7-1.2,1.9-1.9,3.4-1.9c1.2,0,2.2,0.5,3,1.4s1.2,2.1,1.2,3.5
		c0,0.8-0.1,1.6-0.4,2.3s-0.6,1.2-1,1.6s-0.9,0.7-1.4,1s-1.1,0.3-1.7,0.3c-0.6,0-1.2-0.1-1.8-0.4s-0.9-0.6-1.2-1.1h0v5.3H317.8z
		 M319.6,928.3v1.7c0,0.3,0,0.5,0.1,0.7c0.2,0.6,0.5,1.1,1,1.5s1,0.6,1.7,0.6c0.9,0,1.6-0.3,2.2-1s0.8-1.6,0.8-2.7
		c0-1-0.3-1.9-0.8-2.5s-1.2-1-2.1-1c-0.6,0-1.2,0.2-1.7,0.6s-0.8,0.9-1,1.6C319.6,927.9,319.6,928.1,319.6,928.3z"/>
	<path d="M333.3,924c1.4,0,2.5,0.5,3.4,1.4s1.3,2.1,1.3,3.6c0,0.7-0.1,1.3-0.3,1.9s-0.4,1.1-0.7,1.5s-0.7,0.7-1.1,1
		s-0.9,0.5-1.3,0.6s-0.9,0.2-1.4,0.2c-1.3,0-2.4-0.5-3.3-1.4s-1.3-2.1-1.3-3.6c0-0.8,0.1-1.5,0.4-2.2s0.6-1.2,1-1.6s0.9-0.8,1.5-1
		S332.7,924,333.3,924z M334.6,925.7c-0.4-0.2-0.8-0.3-1.3-0.3s-0.9,0.1-1.3,0.3s-0.7,0.5-0.9,0.9s-0.4,0.8-0.5,1.2
		s-0.2,0.9-0.2,1.4c0,1.1,0.3,2,0.8,2.7s1.2,1.1,2.1,1.1c0.8,0,1.5-0.4,2.1-1.1s0.8-1.6,0.8-2.7c0-0.4-0.1-0.9-0.2-1.3
		s-0.3-0.8-0.5-1.2S335,925.9,334.6,925.7z"/>
	<path d="M340.1,933.9v-9.6c0.9-0.1,1.9-0.2,3.1-0.2c0.4,0,0.7,0,1.1,0s0.7,0.1,1.1,0.2s0.8,0.2,1.1,0.4s0.5,0.4,0.7,0.7
		s0.3,0.7,0.3,1.1c0,0.6-0.2,1.1-0.6,1.4s-0.9,0.6-1.5,0.8v0c0.7,0.1,1.3,0.4,1.8,0.8s0.7,0.9,0.7,1.6c0,0.4-0.1,0.8-0.2,1.1
		s-0.4,0.6-0.7,0.8s-0.6,0.4-0.9,0.5s-0.7,0.2-1.1,0.3s-0.8,0.1-1.1,0.1s-0.7,0-1,0C342.1,934,341.2,934,340.1,933.9z M341.8,929.4
		v3.3c0.5,0,1,0.1,1.4,0.1c0.3,0,0.7,0,1-0.1s0.6-0.1,0.9-0.2s0.6-0.3,0.8-0.5s0.3-0.5,0.3-0.9c0-0.3-0.1-0.6-0.2-0.9
		s-0.4-0.4-0.7-0.5s-0.6-0.2-1-0.2s-0.7-0.1-1.2-0.1H341.8z M341.8,925.4v2.9h1.3c0.3,0,0.7,0,1-0.1s0.6-0.1,0.8-0.3
		s0.5-0.3,0.6-0.5s0.2-0.4,0.2-0.7c0-1-0.9-1.4-2.6-1.4C342.9,925.3,342.4,925.4,341.8,925.4z"/>
</g>
</svg>
